<?xml version="1.0" encoding="UTF-8"?>
<svg id="Capa_1" data-name="Capa 1" xmlns="http://www.w3.org/2000/svg" version="1.1" viewBox="0 0 1366 768">
  <defs>
    <style>
      .cls-1 {
        fill: #020202;
      }

      .cls-1, .cls-2, .cls-3, .cls-4, .cls-5, .cls-6, .cls-7, .cls-8, .cls-9, .cls-10, .cls-11, .cls-12, .cls-13, .cls-14, .cls-15, .cls-16, .cls-17, .cls-18, .cls-19, .cls-20, .cls-21, .cls-22, .cls-23, .cls-24, .cls-25, .cls-26, .cls-27, .cls-28, .cls-29, .cls-30, .cls-31, .cls-32, .cls-33, .cls-34, .cls-35, .cls-36, .cls-37, .cls-38, .cls-39, .cls-40, .cls-41, .cls-42, .cls-43, .cls-44, .cls-45, .cls-46, .cls-47, .cls-48, .cls-49, .cls-50, .cls-51, .cls-52, .cls-53, .cls-54, .cls-55, .cls-56, .cls-57, .cls-58, .cls-59, .cls-60, .cls-61, .cls-62, .cls-63, .cls-64, .cls-65, .cls-66, .cls-67, .cls-68, .cls-69, .cls-70, .cls-71, .cls-72, .cls-73, .cls-74, .cls-75, .cls-76, .cls-77, .cls-78, .cls-79, .cls-80, .cls-81, .cls-82, .cls-83, .cls-84, .cls-85, .cls-86, .cls-87, .cls-88, .cls-89, .cls-90, .cls-91, .cls-92, .cls-93, .cls-94, .cls-95, .cls-96, .cls-97, .cls-98, .cls-99, .cls-100, .cls-101, .cls-102, .cls-103, .cls-104, .cls-105, .cls-106, .cls-107, .cls-108, .cls-109, .cls-110, .cls-111, .cls-112, .cls-113, .cls-114, .cls-115, .cls-116, .cls-117, .cls-118, .cls-119, .cls-120, .cls-121, .cls-122, .cls-123, .cls-124, .cls-125, .cls-126, .cls-127, .cls-128, .cls-129, .cls-130, .cls-131, .cls-132, .cls-133, .cls-134, .cls-135, .cls-136, .cls-137, .cls-138, .cls-139, .cls-140, .cls-141, .cls-142, .cls-143, .cls-144, .cls-145, .cls-146, .cls-147, .cls-148, .cls-149, .cls-150, .cls-151, .cls-152, .cls-153, .cls-154, .cls-155, .cls-156, .cls-157, .cls-158, .cls-159, .cls-160, .cls-161, .cls-162, .cls-163, .cls-164, .cls-165, .cls-166 {
        stroke-width: 0px;
      }

      .cls-2 {
        fill: #1f1e28;
      }

      .cls-3 {
        fill: #828282;
      }

      .cls-4 {
        fill: #ababab;
      }

      .cls-5 {
        fill: #292929;
      }

      .cls-6 {
        fill: #343434;
      }

      .cls-7 {
        fill: #181818;
      }

      .cls-8 {
        fill: #c5c4c4;
      }

      .cls-9 {
        fill: #706d82;
      }

      .cls-10 {
        fill: #545454;
      }

      .cls-11 {
        fill: #535061;
      }

      .cls-12 {
        fill: #595667;
      }

      .cls-13 {
        fill: #060507;
      }

      .cls-14 {
        fill: #767577;
      }

      .cls-15 {
        fill: #000;
      }

      .cls-16 {
        fill: #717171;
      }

      .cls-17 {
        fill: #bebdbd;
      }

      .cls-18 {
        fill: #f9f9f9;
      }

      .cls-19 {
        fill: #c5c3c3;
      }

      .cls-20 {
        fill: #e0e0e0;
      }

      .cls-21 {
        fill: #c8c7c7;
      }

      .cls-22 {
        fill: #7d7d7d;
      }

      .cls-23 {
        fill: #1d1d1d;
      }

      .cls-24 {
        fill: #f2f2f2;
      }

      .cls-25 {
        fill: #0e0d12;
      }

      .cls-26 {
        fill: #2f2f2f;
      }

      .cls-27 {
        fill: #232229;
      }

      .cls-28 {
        fill: #29282f;
      }

      .cls-29 {
        fill: #7d77a5;
      }

      .cls-30 {
        fill: #565656;
      }

      .cls-31 {
        fill: #403d55;
      }

      .cls-32 {
        fill: #8d85b9;
      }

      .cls-33 {
        fill: #403d53;
      }

      .cls-34 {
        fill: #b8b7b7;
      }

      .cls-35 {
        fill: #afaeae;
      }

      .cls-36 {
        fill: #b8aff3;
      }

      .cls-37 {
        fill: #5d5b6b;
      }

      .cls-38 {
        fill: #b2a9eb;
      }

      .cls-39 {
        fill: #c7c5c5;
      }

      .cls-40 {
        fill: #b4b4b4;
      }

      .cls-41 {
        fill: #353346;
      }

      .cls-42 {
        fill: #c4c3c3;
      }

      .cls-43 {
        fill: #8e8e8e;
      }

      .cls-44 {
        fill: #9b9b9b;
      }

      .cls-45 {
        fill: #b1b1b1;
      }

      .cls-46 {
        fill: #363636;
      }

      .cls-47 {
        fill: #585474;
      }

      .cls-48 {
        fill: #b7b7b7;
      }

      .cls-49 {
        fill: #0d0d0d;
      }

      .cls-50 {
        fill: #d4d4d4;
      }

      .cls-51 {
        fill: #9a92cb;
      }

      .cls-52 {
        fill: #5b5a67;
      }

      .cls-53 {
        fill: #909090;
      }

      .cls-54 {
        fill: #0c0c0c;
      }

      .cls-55 {
        fill: #101010;
      }

      .cls-56 {
        fill: #99967f;
      }

      .cls-57 {
        fill: #eae7c3;
      }

      .cls-58 {
        fill: #bfb5fc;
      }

      .cls-59 {
        fill: #636074;
      }

      .cls-60 {
        fill: #131218;
      }

      .cls-61 {
        fill: #918ac0;
      }

      .cls-62 {
        fill: #6d61af;
      }

      .cls-63 {
        fill: #a5a5a5;
      }

      .cls-64 {
        fill: #313038;
      }

      .cls-65 {
        fill: #050505;
      }

      .cls-66 {
        fill: #6b677f;
      }

      .cls-67 {
        fill: #3e3a51;
      }

      .cls-68 {
        fill: #8b8b8b;
      }

      .cls-69 {
        fill: #b1b0b0;
      }

      .cls-70 {
        fill: #333043;
      }

      .cls-71 {
        fill: #212121;
      }

      .cls-72 {
        fill: #e3e3e3;
      }

      .cls-73 {
        fill: #060608;
      }

      .cls-74 {
        fill: #363536;
      }

      .cls-75 {
        fill: #3f3c51;
      }

      .cls-76 {
        fill: #4c4c4c;
      }

      .cls-77 {
        fill: #888;
      }

      .cls-78 {
        fill: #2d2b3c;
      }

      .cls-79 {
        fill: #e6e6e6;
      }

      .cls-80 {
        fill: #fdfdfd;
      }

      .cls-81 {
        fill: #2b2b2b;
      }

      .cls-82 {
        fill: #68638a;
      }

      .cls-83 {
        fill: #1d1d1a;
      }

      .cls-84 {
        fill: #353244;
      }

      .cls-85 {
        fill: #09080b;
      }

      .cls-86 {
        fill: #6c6c6c;
      }

      .cls-87 {
        fill: #979797;
      }

      .cls-88 {
        fill: #46435d;
      }

      .cls-89 {
        fill: #a4a4a4;
      }

      .cls-90 {
        fill: #bcbcbc;
      }

      .cls-91 {
        fill: #08070a;
      }

      .cls-92 {
        fill: #6a6a6a;
      }

      .cls-93 {
        fill: #4b4958;
      }

      .cls-94 {
        fill: #010101;
      }

      .cls-95 {
        fill: #494560;
      }

      .cls-96 {
        fill: #c9c8c8;
      }

      .cls-97 {
        fill: #32312e;
      }

      .cls-98 {
        fill: #dedede;
      }

      .cls-99 {
        fill: #cdcccc;
      }

      .cls-100 {
        fill: #404040;
      }

      .cls-101 {
        fill: #4e4a66;
      }

      .cls-102 {
        fill: #e2e2e2;
      }

      .cls-103 {
        fill: #8e8c77;
      }

      .cls-104 {
        fill: #19191c;
      }

      .cls-105 {
        fill: #060607;
      }

      .cls-106 {
        fill: #867fb0;
      }

      .cls-107 {
        fill: #2e2e2e;
      }

      .cls-108 {
        fill: #4f4f4f;
      }

      .cls-109 {
        fill: #aea5e3;
      }

      .cls-110 {
        fill: #aea5e5;
      }

      .cls-111 {
        fill: #232220;
      }

      .cls-112 {
        fill: #b5b5b5;
      }

      .cls-113 {
        fill: #fafafa;
      }

      .cls-114 {
        fill: #625d82;
      }

      .cls-115 {
        fill: #77738d;
      }

      .cls-116 {
        fill: #a2a2a2;
      }

      .cls-117 {
        fill: #121117;
      }

      .cls-118 {
        fill: #111;
      }

      .cls-119 {
        fill: #dcd9b8;
      }

      .cls-120 {
        fill: #ededed;
      }

      .cls-121 {
        fill: #2b2a32;
      }

      .cls-122 {
        fill: #dfdfdf;
      }

      .cls-123 {
        fill: #a1a1a1;
      }

      .cls-124 {
        fill: #302d3e;
      }

      .cls-125 {
        fill: #54506c;
      }

      .cls-126 {
        fill: #c6c5c5;
      }

      .cls-127 {
        fill: #1c1a22;
      }

      .cls-128 {
        fill: #868686;
      }

      .cls-129 {
        fill: #43414d;
      }

      .cls-130 {
        fill: #43424d;
      }

      .cls-131 {
        fill: #dadada;
      }

      .cls-132 {
        fill: #b6b6b6;
      }

      .cls-133 {
        fill: #141220;
      }

      .cls-134 {
        fill: #e8e5c2;
      }

      .cls-135 {
        fill: #54506f;
      }

      .cls-136 {
        fill: #010001;
      }

      .cls-137 {
        fill: #040405;
      }

      .cls-138 {
        fill: #0d0c10;
      }

      .cls-139 {
        fill: #969696;
      }

      .cls-140 {
        fill: #d2d2d2;
      }

      .cls-141 {
        fill: #9887f3;
      }

      .cls-142 {
        fill: #9988f5;
      }

      .cls-143 {
        fill: #202020;
      }

      .cls-144 {
        fill: #cac8c8;
      }

      .cls-145 {
        fill: #1b1b1b;
      }

      .cls-146 {
        fill: #cac9c9;
      }

      .cls-147 {
        fill: #070608;
      }

      .cls-148 {
        fill: #6d6d6d;
      }

      .cls-149 {
        fill: #a89fde;
      }

      .cls-150 {
        fill: #35333d;
      }

      .cls-151 {
        fill: #f0f0f0;
      }

      .cls-152 {
        fill: #191919;
      }

      .cls-153 {
        fill: #0f0e13;
      }

      .cls-154 {
        fill: #d1d1d1;
      }

      .cls-155 {
        fill: #c2c1c1;
      }

      .cls-156 {
        fill: #272626;
      }

      .cls-157 {
        fill: #050406;
      }

      .cls-158 {
        fill: #393939;
      }

      .cls-159 {
        fill: #0a0a0a;
      }

      .cls-160 {
        fill: #030303;
      }

      .cls-161 {
        fill: #151513;
      }

      .cls-162 {
        fill: #c0bfbf;
      }

      .cls-163 {
        fill: #262431;
      }

      .cls-164 {
        fill: #fefefe;
      }

      .cls-165 {
        fill: #050507;
      }

      .cls-166 {
        fill: #929292;
      }
    </style>
  </defs>
  <path class="cls-80" d="M606.89.08C733.46.08,860.02.1,986.59,0c2.93,0,3.41.66,3.41,3.48-.08,253-.08,506,0,759.01,0,2.75-.38,3.51-3.37,3.51-253.13-.09-506.27-.09-759.4-.01-2.73,0-3.22-.7-3.22-3.29.06-253.12.06-506.24,0-759.36,0-2.55.39-3.33,3.19-3.33,126.57.09,253.13.08,379.7.08Z"/>
  <path class="cls-15" d="M466.26,507.49c2.36-4.67,4.97-9.24,5.84-14.51.41-.63.28-1.33.28-2.01,0-.57,0-1.37-.5-1.52-.85-.25-.75,1-1.4,1.23-2.51,5.58-5.29,11-9.93,15.16-2.29,2.05-4.74,3.98-8.17,2.59-1.12-.89-.32-1.61.42-1.79,3.13-.78,4.83-3.16,6.57-5.53.37-.29-.11.06.28-.2.86-.57,1.95-.96,1.67-2.33-.07-.35-.25-.77-.58-.81-1.34-.17-1.73.9-2.22,1.82-2.52,3.53-5.61,6.47-9.18,8.91-.87.52-1.74,1.04-2.61,1.56-2.11-.22-.35-1.18-.34-1.8,5.94-6.31,11.7-12.75,15.15-20.88.34-1,.44-2.04.59-3.08.07-.46.22-.91-.1-1.58-1.43-.15-2.25,1.32-3.53,1.62-4.24,3.02-8.71,5.57-13.83,6.82-2.43.6-4.38.15-5.87-2.25,6.33-.56,11.51-3.49,16.34-7.18.17-.32.52-.49.7-.77.77-1.24,2.32-2.39,1.17-4.04-1.39-1.99-2.65.11-3.98.36-.58.11-1.1.39-1.64.61h.03c-1.67,1.34-3.57,2.23-5.65,2.65-1.23.25-2.63.59-3.14-1.2,1.67-2.35,4.41-3.33,6.55-5.08.82-.67,1.72-1.23,2.46-1.98.66-.67.79-1.44.15-2.2-.56-.66-1.32-.63-1.87-.14-.99.89-2.23,1.19-3.4,1.66-4.13,2.3-8.05,5.13-13.11,5.29,3.15-2.57,6.72-4.5,9.67-7.26,1.11-.87,1.89-2.03,2.77-3.11.64-.79,1.69-1.54.68-2.68-.83-.94-1.95-1.33-3.16-.78-1.58.72-2.99,1.85-4.8,2.03-2.03.7-4.01,1.59-6.21,1.63.14-3.7,3.94-3.91,5.7-6.13-3.12-.53-6.25-1.33-9.44.26-1.51.75-2.6,1.49-2.51,3.35.11,2.26-1.04,3.78-3,4.76-1.41.71-2.23,2.06-3.39,3.04-1.96,1.67-3.77,1.14-4.63-1.24-1.49-4.11-1.35-4.6,1.9-6.64,1.36-.67,2.54-1.57,3.52-2.74,3.21-4.45,8.2-5.21,13.03-6.28,3.05.11,6.11-.19,9.14.27,1.59.24,2.62-.6,3.76-1.5,7.45-5.89,12.97-13.54,18.86-20.84,3.46-4.29,6.64-8.82,10.45-12.83,2.61-2.21,5.41-4.14,8.23-6.07,7.54-3.96,14.82-8.56,23.5-9.79,7.8-1.13,14.87,1.48,21.95,4.2,5.31,2.04,9.5,5.28,13.11,9.76,6.46,8.02,11.34,7.6,17.29-.8,1.06-1.5,1.46-3.55,3.39-4.39.37-.05.72.03,1.04.21.95,4.04-1.72,6.8-3.55,9.83-.6.99-1.64,1.67-2.37,2.6-1.14,1.06-2.5,1.7-3.93,2.22,1.51-.54,3.16-.81,4.16-2.31,2.7-3.2,5.75-6.1,8.28-9.45.43-.57.97-1.01,1.77-.93.78.24,1.04.85,1.16,1.58-1.83,8.74-10.35,15.27-19.54,14.97,2.41,5.56,9.53,7.14,13.67,2.89,3.64-3.73,6.32-8.16,8.46-12.9.56-1.23.75-2.82,2.57-2.99.84.24,1.07.89,1.14,1.66-.64,7.06-4.12,12.74-8.84,17.72-4.59,4.85-8.01,5.32-13.94,2.4-1.37-.67-2.58-1.62-4.09-2.31-.21-.26-.18.16-.08.19,1.24.36,1.31,1.55,1.52,2.55.34,1.61.26,3.3.8,4.89.69,7.72.1,15.25-3.32,22.36-5.13,7.26-5.26,7.57-.44,14.83,4.93,7.43,7.14,15.68,8.35,24.36.47,3.36,1.22,6.68,1.85,10.02.17.9.67,2.08-.5,2.46-1.41.46-1.74-.87-1.99-1.88-1.29-5.25-2.34-10.56-3.57-15.82-1.07-4.56-1.65-9.31-4.81-13.11-1.24-1.43-2.24-3.04-3.3-4.59-1.4-2.04-2.71-2.62-4.74-.52-5.76,5.93-12.79,9.45-20.98,10.85-3.95.67-7.76.19-11.56-.62-2.26-.48-2.98.24-2.96,2.45.06,6.72-.07,13.44.05,20.16.09,4.97-.5,9.87-1.05,14.79-.29.95-.56,1.9-1.24,2.67-1.27.95-1.93.32-2.28-.93-.33-1.15-.23-2.34-.23-3.52-.01-11.09-.05-22.17.03-33.26.02-2.49-.6-3.64-3.36-3.56-5.23.15-10.26-1.25-15.18-2.87-2.57-.85-3.81-.37-4.54,2.4-1.46,5.58-3.61,10.92-6.95,15.69-1.11,1.59-2.28,3.24-4.5,3.83-.71-2.31,1.98-2.9,2.05-4.65Z"/>
  <path class="cls-146" d="M890.64,217.06c-3.1,4.94-7.83,7.93-12.58,11.03-10.51,6.85-20.61,14.36-26.88,25.55-3.91,6.97-6.68,14.56-10.15,21.79-3.08,6.42-7.88,11.72-12.19,17.28-4.38,5.67-10.89,7.65-17.82,8.01-6.95.36-13.86-1.12-20.76-1.04-5.88.07-11.8.19-17.65,2.41-36.03,13.62-72.18,26.91-108.3,40.28-14.03,5.19-28.08,10.32-42.13,15.46-1.58.58-3.38.62-1.33,3.11,1.78,2.15.8,5.71-1.67,7.51-2.37,1.74-4.91,3.16-7.83,3.97-4.66,1.3-8.17,3.87-9.57,8.94-1.33,4.86-2.17,9.88-4.33,14.49-1.14-1.09-.68-2.36-.46-3.64.83-4.87,1.97-9.69,2.48-14.62.22-2.17,1.18-4.08,3.15-5.28.29-.2.59-.39.89-.57,2.71-3.16,6.05-4.92,10.3-5.03,1.37-.04,2.69-.83,3.8-1.75.84-.69.91-1.63.62-2.57-.29-.99-1.04-.7-1.73-.47-2.48.74-4.96,1.5-7.53,1.85-2.43-.11-4.51,1.03-6.69,1.82-1.49.54-2.95,1.31-4.36,1.04,1.74.54,4.23-1.12,6.01.95-1.03,2.13-3.04,1.43-4.67,1.45-2.39.02-4.4.59-5.86,2.59-1.59-1.04-3.03-1.15-4.99-.41-32.05,12.05-64.19,23.85-96.3,35.73-3.12,1.15-6.13,2.43-8.79,4.5-2.54,1.98-5.06,2.6-8.05.42-1.97-1.44-4.54-1.93-6.99-2.36-1.02-.18-2.17-.07-2.81-1.17,1.27-2.22,3.3-1.28,5.11-1.26,3.51,1.46,7.01,2.67,10.27-.56,4.25-3.26,9.43-4.43,14.28-6.35,1.28-.55,2.6-.96,3.86-1.56,5.71-2.47,11.75-4.03,17.52-6.34,9.2-3.61,18.51-6.9,27.69-10.55,14.47-5.22,28.78-10.88,43.18-16.3,2.61-.82,5.04-2.25,7.84-2.5,6.35-1.02,12.14-3.77,18.08-6.01,42.35-16.01,84.71-32,127.12-47.84,11.6-4.33,23.06-9,34.78-13.02,3.74-1.28,7.37-1.29,11.14-.9,5.5.58,10.99,1.45,16.49,1.73,9.53.48,17.89-2.98,24.57-9.68,7.92-7.95,13.26-17.78,17.35-28.08,2.29-5.77,3.08-12.11,8.11-16.48.44-.76.97-1.45,1.6-2.06.24-.23.5-.43.77-.62.81-.49,1.57-1.06,2.27-1.69.24-.21.49-.39.75-.56,1.1-.62,1.96-1.53,2.88-2.37.24-.22.5-.41.77-.59,2.91-2.23,6.02-4.09,9.33-5.68,5.87-2.82,10.56-7.42,16.04-10.84.77-.61,1.46-1.34,2.49-1.53.34,0,.63.12.88.36Z"/>
  <path class="cls-146" d="M654.65,515c4.15,1.01,5.57,3.58,3.59,7.17-2.96,5.39-7.66,8.84-13.33,11.06-5.65,2.21-11.6,2.92-17.57,3.52-.66.07-1.38-.22-2.05-.41-3.49-.99-7.34-1.05-11.03-.14-5.21,1.29-8.88-.99-9.75-6.21-1.5-8.98-1.49-18.06-1.42-27.17-2.28-.38-3.28,1.47-4.58,2.43-9.69,7.11-19.53,14.02-29.84,20.16-3.76,2.24-4.47,6.19-7.09,8.99-9.86,10.54-20.7,19.09-36.23,18.06-7.89-.52-14.57-4.34-21.04-8.52-.48-.31-.91-.68-1.47-1.11-2.05,3.78-3.97,7.43-6,11.02-3.26,5.76-6.94,11.3-12.18,15.38-5.21,4.05-11.49,3.45-15.39-1.72-4.11-5.45-9.42-9.48-14.33-14.01-1.8-1.67-2.99-2.68-4.75.55-2.96,5.43-7.41,9.78-12.62,13.15-4,2.59-8.53,1.45-10.32-2.23-2.08-4.3-.27-10,3.74-11.74.17,2.05-.57,4.1.76,6.13,1.97,3,4.24,3.62,7.03,1.29,4.59-3.82,7.42-8.81,9.11-14.48,1.38-4.63,1.97-4.79,5.78-1.61,7.34,6.12,14.35,12.62,21.58,18.86,3.41,2.94,5.18,2.76,8.23-.79,4.09-4.77,7.46-10.05,10.45-15.56,1.46-2.7,3.12-5.29,4.45-8.06.56-1.18,1.25-2.3,2.67-2.65.36-.06.71-.05,1.06.02,2.34.89,4.33,2.41,6.41,3.74,6.58,4.22,13.96,5.85,21.53,6.29,5.24.31,10.2-1.55,14.74-4.33,5.81-3.57,10.48-8.41,15.05-13.35.96-1.04,1.82-2.18,3.01-2.98,11.78-7.92,22.25-17.53,33.53-26.09,2.35-1.79,4.71-3.57,7.27-5.05,3.48-2.02,5.08-1.23,5.25,2.78.35,8.14,1.26,16.23,2.23,24.31.23,1.88.49,3.76,1.1,5.55,1.3,3.83,3.76,4.85,7.43,3.16.97-.44,1.92-.91,2.83-1.47,1.52-.94,2.9-.9,4.65-.27,9.43,3.4,17.84.83,25.53-4.94,3.03-2.27,2.7-5.49,1.97-8.71Z"/>
  <path class="cls-146" d="M409.18,468.22c-15.99,9.04-32.03,7.38-47.45-.88-19.1-10.24-32.57-25.67-39.47-46.52-2.24-6.78-2.49-13.83-3.4-20.82-1.52-11.75,1.25-22.85,5.65-33.32,6.49-15.41,19.23-23.12,35.52-25.56,12.46-1.86,24.28,0,35.9,4.73,11.86,4.82,23.79,5.75,35.85-.05,4.28-2.06,8.61-3.68,11.66-7.55,2.02-2.57,5.08-2.47,7.93-2.81.88-.39,1.89-.74,2.74-.42,2.71,1,5.3.76,7.94-.2.89-.32,1.87-.18,2.72.39.74,1.84-1.05,1.66-1.82,2.29-2.16.58-4.11,1.95-6.5,1.64-2.82-.96-5.64-1.9-8.66-1-1.25.33-1.9,1.26-2.36,2.38-.91,2.89-2.9,4.64-5.55,6.05-6.39,3.41-13.04,6.08-20.1,7.58-7.98,1.7-15.75-.18-23.24-2.63-7.77-2.55-15.5-5.23-23.73-5.06-5.74.12-11.55.35-17.21,1.53-7.44,1.56-13.46,5.65-18.27,11.42-2.79,3.35-5.42,6.91-7.3,10.86-5.02,10.56-6.39,21.79-5.68,33.38.49,7.99,2.84,15.4,5.53,22.89,2.92,8.15,8.08,14.61,13.52,20.97,4.15,4.85,9.06,8.96,13.86,13.13,2.33,2.03,5.24,3.19,8.19,4.07,7.81,2.33,15.81,4,23.93,4.36,5.23.23,10.55-.62,15.78-1.52,1.06-.18,2.09-.4,3.14-.07.38.15.67.39.87.74Z"/>
  <path class="cls-146" d="M465.11,335.57c-1.15.06-2.47-.22-3.41.26-2.61,1.31-5.02,1.42-7.61,0-.75-.41-1.8-.27-2.72-.38,5.49-3.16,11.76-4.04,17.69-5.84,12.32-3.72,24.22-8.51,36.15-13.22,21.25-8.4,42.81-16,64.09-24.3,29.64-11.56,59.89-21.41,89.61-32.71,15.97-6.07,32.37-10.91,48.66-16.02,9.88-3.1,19.74-6.28,29.6-9.44.53-.17,1.01-.53,1.81-1.27-9.82-.56-14.54-6.5-15.9-15.16-.55-3.5.79-7.23,3.97-9.7.43,3.33.22,6.74-.25,9.96-.55,3.74.79,6.25,3.31,8.36,2.62,2.19,5.43,4.19,9.09,4.33.82.03,1.62.3,2.37.68,1.73.88,1.82,2.03.46,3.32-.88.83-2.05,1.15-3.16,1.53-18.16,6.2-36.14,12.91-54.12,19.62-6.48,2.42-13.47,2.96-19.86,5.64-.74.31-1.77.14-2.34.71-5.38,5.38-12.89,6.08-19.47,8.68-15.22,6.02-30.8,11.16-46.17,16.79-14.14,5.18-28.23,10.49-42.54,15.19-7.44,2.44-14.82,5.13-22.05,8.04-6.19,2.49-12.61,4.57-18.51,7.79-3.19,2.14-6.95,2.91-10.42,4.4-7.1,2.47-14.1,5.2-21.17,7.77-4.58,1.4-8.95,3.39-13.47,4.94-1.21.24-2.42,1-3.64.03Z"/>
  <path class="cls-136" d="M654.65,515c2.57,3.49,2.27,6.23-1.45,9.44-5.73,4.96-12.6,6.86-20.03,6.45-2.51-.14-5.52.62-7.42-2.24-.66-.99-1.48.16-2.03.57-7.15,5.42-12.26,4.22-13.43-6.49-.94-8.56-1.82-17.12-2.32-25.73-.2-3.58-.7-3.85-3.66-1.88-10.14,6.74-19.24,14.82-28.73,22.4-.09.07-.18.16-.27.22-7.97,5.32-15.15,11.53-21.66,18.58-2.87,3.11-6.38,5.62-10.19,7.56-11.99,6.12-23.37,3.16-34.49-2.49-2.51-1.27-4.77-3.04-7.15-4.57-.47-2.85,1.69-1.99,3.09-2.2,3.92,1.31,7.22,3.98,11.22,5.15,8.54,2.51,17.06,4.11,25.34-.81,3.97-2.36,7.47-5.34,10.98-8.33,3.37-2.87,4.53-5.74,2.69-10.14-1.73-4.11-2.22-8.68-3.15-13.07-1.1-5.2-2.02-10.44-4.18-15.35-.47-1.07-.95-2.2-.18-3.37,3.66,3.8,3.94,8.89,5.11,13.61,1.42,5.71,2.59,11.48,4.02,17.89,1.46-2.11.41-3.47.19-4.66-1.69-9.2-2.38-18.64-6.74-27.22-1.91-3.76-5.04-6.61-7.05-10.27-.34-.61-.94-.95-.5-1.69,1.6-2.71,2.3-5.93,4.62-8.24,1.03,3.53-1.87,5.67-2.73,8.03,4.15-1.34,7.56-4.96,12.2-6.27,1.05.73.56,1.81.63,2.76-2.8,4.27-7.61,5.33-11.37,7.46.89.14,1.42,1.1,1.75,2.25,6.8,9.48,8.04,20.71,9.97,31.72.45,2.55.8,5.12,1.21,7.67.45,2.76,2.44,3.46,4.71,1.59,4.65-3.81,9.29-7.63,13.85-11.54,7.35-6.29,14.82-12.41,22.77-17.92,1.16-.8,2.36-1.57,3.61-2.23,4.08-2.18,6.56-1.16,7.43,3.44.81,4.27,1.01,8.66,1.66,12.97.94,6.28,1.13,12.68,2.99,18.82,2.08,1.26,3.31-.83,4.96-1.26,6.67-3.94,12.96-8.61,20.65-10.59,4.37-1.13,8.71-2.26,13.07-.04Z"/>
  <path class="cls-144" d="M513.17,317.96c3.2-2.78,7.46-3.18,11.12-4.97,6.96-3.41,14.39-5.77,21.63-8.46,6.32-2.35,12.82-4.32,19.2-6.58,7.06-2.49,14.1-5.04,21.14-7.58,7.39-2.67,14.79-5.32,22.15-8.07,13.75-5.16,27.81-9.46,41.3-15.34,2.32-1.01,4.99-1.23,7.37-2.29,1.4-.62,2.9-.89,3.48-2.65.44-1.34,1.91-1.47,2.95-1.55,3.12-.25,5.8-1.59,8.53-2.88.42-.2.84-.6,1.24-.57,7.77.47,14.28-3.66,21.2-6.04,10.54-3.62,20.92-7.71,31.47-11.34,4.71-1.62,9.4-3.36,14.1-5.04.92-.33,2.4-.58,2.18-1.89-.19-1.15-1.71-1.28-2.62-1.32-5.55-.25-9.31-3.44-12.71-7.35-.91-1.05-1.53-2.24-1.23-3.55.98-4.19-.64-8.64,1.36-12.71,1.6-1.51,3.06-3.43,5.7-2.39,2.33.92,2.6,2.92,2.94,5.15.55,3.58,1.31,7.15,3.2,10.37.87,1.48,1.97,2.3,3.59,2.47,1.34.14,2.25-.64,2.8-1.77.52-1.06-.18-1.78-.92-2.42-6.02-5.16-6.06-11.79-4.52-18.75.22-.99.76-2.03,1.43-2.79,1.61-1.83,3.2-4.16,6.14-3.16,2.88.98,2.89,3.71,3.02,6.18.12,2.22-.2,4.48,1.07,6.53.57.92,1.12,1.75,2.13,2.27,1.44.75,2.68.67,3.85-.5,1.21-1.2.33-2.24-.34-3.12-2.27-2.94-3.02-6.39-3.12-9.92-.19-6.28,4.96-8.62,10.52-6.81,2.3.75,2.84,3.01,1.88,4.98-1.2,2.48-1,4.75-.15,7.15-.24.34-.54.43-.92.27-1.87-1.47-1.59-3.51-1.48-5.52.07-1.22.79-2.83-1.1-3.21-1.84-.36-2.86.91-3.27,2.53-.74,2.9-.14,5.61,1.45,8.12.57.9,1.16,1.78,1.83,2.6,2.9,3.5,2.74,4.37-1.05,6.67-3.73,2.27-7.31,2.26-10.85-.42-3.46-2.61-5.51-5.79-4.46-10.33.11-.46.26-.91.32-1.38.08-.7.22-1.53-.67-1.77-.8-.22-1.28.43-1.69,1.01-.55.78-.85,1.68-1.1,2.59-1.5,5.66,1.28,11.29,6.68,13.57,4.66,1.97,4.74,2.34,1.24,6.27-1.24,1.4-2.28,2.98-4.13,3.77-5.27,2.24-8.96,1.13-12.15-3.71-1.86-2.83-2.84-5.93-3.1-9.29-.1-1.25.09-3.14-1.41-3.26-1.85-.15-1.73,1.93-2.01,3.2-.79,3.55-.66,7.04,1.43,10.22,2.85,4.47,7.09,6.25,12.19,6.33,1.24.02,2.74-.83,3.58.53.86,1.39-.23,2.68-.9,3.89-.28.52-.7.94-1.16,1.31-7.59,3.6-15.65,5.95-23.51,8.82-14.85,5.44-29.68,10.93-44.6,16.19-24.53,9.07-49.15,17.89-73.74,26.82-17.5,6.36-34.96,12.81-52.51,19.01-1.56.55-3.08,1.17-4.61,1.8-7.93,2.53-15.68,5.61-23.52,8.41-2.6.66-4.93,2.67-7.89,1.65Z"/>
  <path class="cls-94" d="M500.97,536.77c-3.22,5.47-6.4,10.97-9.66,16.42-2.42,4.05-5.06,7.96-8.48,11.26-3.19,3.08-4.89,3.06-8.05-.02-7.85-7.64-16.32-14.55-25-22.03-1.35,5.57-2.95,10.54-6.36,14.67-.9,1.09-1.75,2.23-2.76,3.21-2.22,2.16-4.66,3.85-7.82,1.82-2.69-1.73-3.46-5.73-1.85-8.88,4.1-4.41,7.68-9.23,11.05-14.19,2.25-3.32,3.87-4,7.26-1.89,2.78,1.74,5.37,3.85,7.82,6.04,6.59,5.89,13.16,11.82,19.52,17.95,1.93,1.86,2.95,1.58,4.45-.2,6.08-7.24,10.81-15.38,15.69-23.43.91-2.34,1.16-4.77,1.15-7.28-.04-10.49,0-20.99-.03-31.48,0-4.48-.16-4.6-4.47-4.79-4.02-.17-7.94-.94-11.8-2.07-4.13-1.2-4.76-.88-6.17,3.1-2.22,7.72-5.83,14.59-12.12,19.81-1.63,1.35-3.36,2.52-5.42,3.2-1.2.39-2.25.76-3.19-.85,2.61-.57,4.36-2.51,6.5-3.84.14.11.21.16.21.16,0,.13-.09.08-.25-.14,1.69-1.94,3.38-3.88,5.07-5.82.53,1.78-1.7,2.39-1.79,4.58,5.94-5.47,8.84-11.96,10.35-19.16.98-4.69.87-4.74,5.42-3.57,5.79,1.48,11.48,3.42,17.62,2.71,2.39-.28,1.77,1.7,1.78,2.93.05,10.39.03,20.78.03,31.18,0,2.24.02,4.49-.01,6.73-.02,1,.09,1.7,1.34,1.15.83.92.67,1.83-.02,2.73Z"/>
  <path class="cls-146" d="M547.77,482.38c-.84-.78-1.68-1.56-2.74-2.54,4.38-2.52,8.86-4.07,12.23-7.38.54-1.53,1.84-2.44,2.96-3.42,11.2-9.78,17.85-22.55,23.71-35.85,1.75-3.97,3.14-8.1,5.16-11.96,2.07-3.84,2.7-8.15,4.02-12.23.69-2.14.18-4.96,2.94-6.14-2.43,14.47-3.39,29.38-10.25,42.67-4.1,7.94-10.3,14.6-15.6,21.8-5.23,7.11-12.41,11.34-20.74,13.85-.62.19-1.13.79-1.69,1.19Z"/>
  <path class="cls-146" d="M475.45,494.98c-.01-.23-.07-.48-.03-.7q.86-5.18,5.91-3.61c4.77,1.47,9.62,2.4,14.63,1.99,2.16-.18,3.05.3,3.03,2.82-.09,12.87,0,25.75.16,38.62.02,1.93-1,2.67-2.37,3.38-4.72-2.62-4.51-7.11-4.07-11.46.68-6.66,1.45-13.31,1.23-20-.08-2.6,1.6-5.37.36-7.6-1.48-2.68-4.8-.55-7.16-1.51-2.61-1.06-5.44-1.66-7.88-2.99-1.96-1.07-2.86-.43-3.81,1.06Z"/>
  <path class="cls-146" d="M766.28,201.26c1.15,1.31,2.12.57,3.38-.04,8-3.9,15.94-7.92,24.89-9.41,11.09-1.85,21.92-1.3,32.49,2.69,1.08.41,2.25.78,2.78,2-.84.75-1.8.5-2.68.2-7.54-2.51-15.17-1.12-22.75-.46-10.89.95-21.16,4.34-31.11,8.72-2.67,1.18-4.5-.4-6.58-1.35-.71-.5-1.18-1.1-.8-2.03.13-.11.25-.22.38-.33Z"/>
  <path class="cls-96" d="M409.18,468.22c-.36-.06-.71-.13-1.07-.19,1.21-2.8,4.36-2.86,6.37-4.54.5-.18,1.01-.2,1.53-.09.68.22,1.28.54,1.61,1.22-.78,1.01-3.24.98-2.77,2.21.64,1.67.55,3.51,1.29,4.95.81,1.58,2.18.75,3.07-.41,1.26-1.63,2.2-3.32,4.69-3.76,1.69-.3,1.39-2.55,1.1-4.01-.36-1.77.38-2.27,1.87-3.04,4.2-2.18,8.45-1.19,13.09-.88-1.92,3.35-6.2,3.71-7.64,7.06-1.72-1.76-3.14-1.38-4.43.55-1.83,2.74-3.73,5.43-6.25,7.59-2.06,1.76-4.4,2.76-7.11,1.59-2.61-1.12-2.97-3.37-2.78-5.89.13-1.8.38-3.87-2.58-2.36Z"/>
  <path class="cls-21" d="M846.81,212.81c8.07,5.4,16.28,1.85,24.52.51,5.27-.85,10.59-2.27,15.98-.56-.38.49-.89.8-1.48.87-6.33.74-12.23,3.25-18.48,4.38-4.11.75-8.19.84-12.28.63-3.78-.2-7.41-2.94-8.25-5.83Z"/>
  <path class="cls-17" d="M766.78,202.88c3.31,2.37,6.19.94,9.59-.35,10.4-3.95,21.02-6.94,32.32-7.64,7.23-.45,14.22-.74,21.13,1.62,1.08,1.44,3.44.99,4.23,2.86.45.58.37,1.07-.24,1.48-4.44-1.8-8.63-4.28-13.61-4.5-1.41-.06-2.81-.37-4.22-.25-13.78,1.18-27.38,3.21-40.14,8.97-1.83.83-3.71,1.75-5.77,1.22-1.7-.44-3.49-1.03-3.28-3.41Z"/>
  <path class="cls-19" d="M833.91,200.87c.05-.5.1-1,.14-1.5,4.32,2.99,7.03,7.49,10.56,11.22.72.76,1.28,1.66,2.2,2.22,2.72,3.12,5.93,5,10.29,5.03,6.86.04,13.4-1.22,19.9-3.32,3.3-1.07,6.76-1.87,10.31-1.75.2,0,.4.02.6.07.23.39.17.73-.16,1.02-6.92,2.25-14.03,3.77-21.1,5.44-4.56.81-9.13,1.39-13.7.07-.35-.06-.7-.17-1.03-.31-1.61-.91-3.06-2.08-4.66-3.04-3.35-3.33-7.19-6.21-9.6-10.41-.87-1.7-2.56-2.72-3.6-4.28-.05-.15-.1-.3-.15-.45Z"/>
  <path class="cls-49" d="M394.67,587.7c3.6-5.8,7.88-11.09,12.19-16.36.79-.97,2.01-2.46,3.14-1.64,1.43,1.04-.18,2.33-.88,3.21-4.31,5.41-8.14,11.23-13.38,15.86-.87.15-1.23-.2-1.07-1.08Z"/>
  <path class="cls-146" d="M596.04,402.86c-2.14,4.51-2.52,9.56-4.27,14.19-.64,1.69-.56,3.71-2.27,4.91-1.02-1.32-.54-2.7-.11-4.03,4.24-13.12,6.94-26.59,9.2-40.17.21-1.28.42-2.58,1.09-3.7.88-1.46,1.9-2.79,3.94-1.86-2.78,2.22-3.19,5.28-3.56,8.62-.55,5.05-1.7,10.03-2.6,15.04-.13,1.18.31,2.47-.71,3.46-.94,1.05.08,2.49-.73,3.56v-.02Z"/>
  <path class="cls-55" d="M688.05,494.54c-2.72,5.23-7.56,8.83-9.84,14.21-.15.35-.75.79-1.05.73-.57-.12-.94-.65-.96-1.31-.04-1.47.63-2.72,1.32-3.95,2.18-3.85,5.64-6.56,8.65-9.66.41-.43,1.06-.45,1.89,0Z"/>
  <path class="cls-118" d="M400.47,541.82c4.08.03,8.16,0,12.23.15.98.04,2,.62,2.88,1.14.4.24.76.98.7,1.44-.11.88-.93.96-1.65.8-4.67-1.08-9.59-.39-14.16-2.09-.42-.48-.42-.96,0-1.44Z"/>
  <path class="cls-96" d="M443.03,478.85c-.13,1.17.43,1.41,1.44,1.1,2.31-.69,4.62-1.36,6.93-2.05-2.63,3.14-6.22,4.83-9.88,6.32-.99.4-2.45.7-3.21-.52-.76-1.22.15-2.19.97-3.08,1.05-1.14,2.29-2,3.66-2.69.32.28.35.58.08.9Z"/>
  <path class="cls-42" d="M438.55,465.11c1.47-.95,2.98-1.84,4.41-2.86,2.45-1.75,3.77.31,5.02,1.65,1.46,1.56-.6,2.19-1.37,2.94-1.07,1.04-1.97,2.37-3.54,2.81.78-1.25,1.31-2.34-.77-2.93-1.3-.37-2.5-1.06-3.74-1.61Z"/>
  <path class="cls-155" d="M443.03,478.85c-.03-.3-.05-.6-.08-.9,1.55-1.4,3.18-2.73,4.64-4.22,1.56-1.59.14-1.85-1.09-2.11.89-.74,1.78-1.49,2.68-2.23,1.08-.9,1.95-2.06,3.36-.14,1.26,1.72,1.23,2.74-.54,4-2.88,2.06-5.66,4.25-8.97,5.6Z"/>
  <path class="cls-120" d="M449.33,508.5c2.78-3.16,6.08-5.83,8.46-9.35.63-.67,1.34-1,2.08-.22.74.77.87,1.61-.02,2.4-1.25,3.26-3.2,5.69-6.96,6.04-.73.07-.35.7-.51,1.06-1.02-.47-2.03-.02-3.04.06Z"/>
  <path class="cls-17" d="M451.38,477.9c.93-.69,1.92-1.31,2.76-2.09,1.49-1.37,2.48-.97,3.7.5,1.18,1.42,1.18,2.45-.23,3.53-.83.63-1.34,1.67-2.47,1.9.41-2.91-1.55-3.5-3.76-3.84Z"/>
  <path class="cls-71" d="M648.47,558.13c-1.27-2.87-2.56-5.74-3.82-8.61-.26-.6-.9-1.32-.17-1.87.87-.66,1.55.06,1.99.75,1.59,2.48,2.84,5.09,2.82,8.13.1.73.57,1.65-.83,1.6Z"/>
  <path class="cls-35" d="M458.5,484.35c1.39-1.03,2.3-3.95,4.17-2.76,2.22,1.41-.41,3.5-.64,5.34-.02.17-.32.31-.49.46.07-2.09-.8-3.25-3.04-3.04Z"/>
  <path class="cls-26" d="M446.38,508.26c.07.61-.63,1.36.34,1.8-1.3,1.55-2.9,2.51-5.43,2.71,1.5-2.2,3.3-3.35,5.09-4.51Z"/>
  <path class="cls-63" d="M470.47,490.68c.19-.76.35-1.54.59-2.29.17-.54.45-1.15,1.15-1,.64.13.93.7.8,1.31-.31,1.43.17,3.02-.91,4.28-.69-.67.96-2.98-1.63-2.3Z"/>
  <path class="cls-21" d="M887.9,213.6c0-.26,0-.52,0-.78,2.28.53,4.55,1.06,2.74,4.23-.25-.01-.49-.02-.74-.03-.28-1.37-1.33-2.29-2-3.42Z"/>
  <path class="cls-69" d="M620.93,525.63c-1.5,1.01-2.66,3.38-4.96,1.26,1.87.42,3.15-1.48,4.96-1.26Z"/>
  <path class="cls-158" d="M400.47,541.82c0,.48,0,.96,0,1.44-.96-.03-2,.37-2.93-.75.81-1.03,1.9-.76,2.92-.69Z"/>
  <path class="cls-107" d="M394.67,587.7c.36.36.71.72,1.07,1.08-.48.91-1.01,1.76-2.27,1.77-.53-1.37.29-2.13,1.2-2.84Z"/>
  <path class="cls-30" d="M648.47,558.13c.7-.31.55-1.07.83-1.6.35.85,1.3,1.79.08,2.55-.61.38-.87-.36-.91-.95Z"/>
  <path class="cls-146" d="M596.03,402.88c.16-1.21-.52-2.58.73-3.56-.17,1.2.34,2.55-.73,3.56Z"/>
  <path class="cls-164" d="M556.97,469.97c-4.15,2.61-8.11,5.59-13.22,7.16.67-3.32,3.26-5.74,3.53-8.99,3.34-7.2,3.52-14.87,3.29-22.59-.69-2.22.08-2.86,2.23-2.13,8.84,2.98,12.02-.15,16.13-5.84,1.86-2.57,3.43-5.33,5.15-8,1.79-2.77,2.89-5.58,1.75-8.88.1-.85-.21-1.66-.23-2.5.04-.59.32-1.1.49-1.66.14-.45-.09-.77,0-.31s-.45-.15-.08.15c.36.3-.46.66-.12.35-.5.75-.31,1.84-1.2,2.37-2.07,4.97-4.69,9.61-8,13.87-5.35,6.9-11.53,7.07-17.4.52-.87-.98-.93-1.97-.49-2.91.68-1.43,1.64-.22,2.35.09,2.77,1.2,5.39.8,7.73-.86,4.59-3.27,8.23-7.37,10.23-12.75.81-1.17-.45-2.47-.12-3-.03.06.2,1.06-.74,1.47-2.44,4.11-5.97,7.27-9.22,10.68-.97.5-1.53.36-1.39-.89,3.14-3.41,5.78-7.1,6.7-11.78.08-.54.27-1.06.34-1.6-.35.62-.79,1.11-1.37,1.47-2.05,3.08-3.67,6.43-6.47,8.99-3.85,3.52-6.81,3.77-10.94.53-1.38-1.08-2.66-2.35-3.75-3.72-8.25-10.31-19.61-13.46-32.08-14.1-.82-.04-1.65-.04-2.47-.06-9.2.7-16.75,5.45-24.42,9.91-2.28,1.72-4.66,3.3-6.85,5.14-9.34,8.12-17.8,17.12-26.26,26.12-1.37,1.46-2.9,2.77-4.22,4.27-3.3,3.75-7.12,6.12-12.36,5.15-3.05-.3-5.47,1.57-8.19,2.4-1.9.19-3.49.02-3.06-2.57.69-2.93,2.55-5.28,4.26-7.58,3.5-4.7,6.29-9.84,9.55-14.68,2.6-3.78,5.26-7.52,7.63-11.45.41-.92.88-1.8,1.65-2.49,3.31-2.7,5.91-6.21,9.56-8.54,1.28-.33,2.52-.75,3.67-1.42,1.42-.67,2.88-1.23,4.42-1.54.93-.09,1.84-.1,2.56.64,4.31,0,8.35.95,11.8,3.65,1.49,1.17,2.82.43,3.87-.4,7.31-5.78,16.35-7.61,24.76-10.79,27.16-10.26,54.43-20.25,81.67-30.33,2.04-.76,4.33-2.41,5.65,1.02,1.22-.57,2.53-.41,3.82-.54.77.16,1.3.58,1.46,1.39-.5,2.95-.87,5.92-1.91,8.75-3.76,11.56-6.36,23.4-8.2,35.4-.98,6.63-3.87,12.61-6.47,18.67-5.2,12.13-11.75,23.41-21.57,32.48-1.01.94-1.82,2.23-3.45,2.23Z"/>
  <path class="cls-58" d="M547.64,488.72c4.19,9.83,4.76,20.67,8.26,30.6,2.17,6.17.11,9.23-3.99,13.06-12.67,11.85-24.24,14.42-42.93,5.14-1.26-.63-2.49-1.33-3.73-2-1.59-.81-5.09.24-3.53-3.63,1.11-12.25.6-24.53.51-36.79-.01-2.15.18-2.89,2.68-2.22,13.37,3.59,24.65-.32,33.93-10.25,1.92-2.06,3.1-2.06,4.6.03,1.43,2,2.81,4.04,4.22,6.07Z"/>
  <path class="cls-164" d="M540.23,437.49q5.31-.63,6.36,4.92c3.28,17.38-3.41,34.78-16.75,43.7-7.92,5.29-16.74,7.02-25.63,4.25-5.55-1.73-10.55-5.5-14.58-10.04-1.56-1.76-2.92-3.7-4.35-5.57-3.42-4.49-4.71-8.96-1.84-14.56,2.94-5.74,3.51-12.44,6.32-18.32.74-.39,1.19.06,1.62.56.13.28.22.58.28.87,2.73,2.67,5.8,3.34,9.3,1.64,1.87-.91,2.85-.09,3.29,1.78.48,2.07,1.07,4.09,2.13,5.97,1.5,2.64,3.65,4.4,6.72,4.48,3.05.08,4.49-2.17,5.72-4.55.54-1.05,1-2.13,1.59-3.16.53-.7.94-1.58,2.08-1.27,1.06,1.25,1.58,2.84,2.73,4.06,3.4,3.6,7.96,3.1,10.42-1.17,2.25-3.91,2.63-8.15,2.38-12.53.36-1.15,1.06-1.56,2.2-1.05Z"/>
  <path class="cls-164" d="M497.04,426.32c1.6-1.67,3.19-3.33,4.79-5,.63-.18.86.2,1.01.69.07,1.47.77.61,1.23.29,1.85-1.3,3.77-2.28,6.78-.95-1.74-1.59-3.22-1.13-4.48-1.51-.64-.27-1.37-.48-1.1-1.45,5.2-4.56,10.73-8.48,18.12-6.03,5.79,1.92,10.48,5.67,14.15,10.52,1.34,1.77.78,3.9-.61,5.51-1.27,1.47-2.67.72-4.1-.09-3.49-1.95-5.79-1.35-8.45,2.01-1.21,2.07-1.83,4.36-2.52,6.63-.42.89-.18,2.31-1.8,2.22-1.46-.78-1.93-2.34-2.81-3.57-3.26-4.58-8.22-4.77-11.68-.41-3.41,4.3-7.16,4.86-10.06,1.49-1.92-2.23-2.15-4.73-.67-7.2.65-1.08,1.07-2.38,2.19-3.16Z"/>
  <path class="cls-1" d="M521.53,436.85c.55-2.35.93-4.77,2.85-6.53-.61,3.67-2.38,7.04-2.16,10.97.17,3.02.82,5.83,2.02,8.48,1.09,2.4,2.73,4.19,5.88,4.21,3.07.02,4.41-1.73,5.53-4.06,2.35-4.89,2.57-10.05.67-14.96-1.19-3.07-.95-4.52,2.28-5.17.44.36.42.76.12,1.19-.05.61-.1,1.22-.16,1.83-.2.14-.42.19-.64.16-.41.33-.02.67,0,1.01.48,1.72.39,3.49.58,5.23.03,3.64-.07,7.26-1.62,10.66-1.22,2.67-2.89,4.91-6.05,5.27-3.18.36-5.36-1.39-6.89-3.95-.57-.95-1.83-1.55-1.66-2.93-.69-.6-.65-1.5-.96-2.26-.07-.67-.1-1.35-.06-1.57.09.39-.15,1.28.17,2.12.18,1.1-.02,2.12-.54,3.1-1.89,6.04-4.27,8.52-8.11,8.45-3.89-.08-7.38-3.52-8.89-8.86-.38-1.36-.62-2.75-.98-4.37-2.05,1.18-4.13,2.01-6.55,1.9-2.47-.11-4.01-1.62-5.64-3.1-.04-.03,0-.22.07-.28.07-.08.2-.11.31-.16,1.01-.8,1.85-.15,2.72.31.19.1.39.2.58.29.29.14.59.24.88.37-.18-.4-.68-.17-.92-.47-.98-.59-2.05-1.01-2.84-1.86-.17-.3-.29-.61-.36-.95.01-1.14-.29-2.66.78-3.19,1.3-.65,1.89.9,2.62,1.71.73.81,1.57,1.35,2.64,1.52.92.33,1.79-.04,2.54-.19-.45,0-1.02.23-1.61.22-2.53-.48-3.95-2.32-5.19-4.29-1.31.01-1.19,1.76-2.39,1.84,1.15-4.61,2.89-8.91,6.49-12.21-.61,1.13-1.25,2.24-1.83,3.38-1.3,2.51-.45,5.64,1.93,7.45,2.4,1.83,4.39.7,6.32-.82.54-.43,1.15-.94,1.4-1.55,1.27-2.97,3.43-4.07,6.63-3.86,3.32.22,5.37,2.1,7.01,4.65.69,1.08,1.12,2.32,1.67,3.48.91.48.13,1.53.7,2.18-.03.41.41-.32,0-.09-.17-1.49.51-2.85.67-4.29Z"/>
  <path class="cls-96" d="M433.66,455.4c5.13.59,8.53-2.29,11.77-5.69,6.65-6.98,13.22-14.05,20.14-20.76,3.34-3.24,6.61-6.69,10.67-9.13.36.27.4.59.11.94-6.85,8.39-13.68,16.8-20.55,25.17-1.04,1.27-2.28,2.38-3.37,3.62-4.14,4.73-8.49,8.83-15.6,6.3-.82-.29-1.86.05-2.79.1-.33-.04-.47-.21-.39-.54Z"/>
  <path class="cls-21" d="M576.14,420.53c2.34,2.45,1.46,4.88-.02,7.32-2.86,4.7-5.37,9.66-9.21,13.68-4.2,4.41-8.48,5.32-13.96,2.79-1.77-.82-2.19-.36-2.38,1.23-1.14-2.45-.24-5.33-1.92-7.67,1.96-.7,2.84.76,3.97,1.41,6.13,3.53,9.92,3.01,14.64-2.26,4.2-4.69,6.96-10.14,8.3-16.31.09-.38.29-.45.59-.2Z"/>
  <path class="cls-113" d="M488.28,488.69c-2.03-.55-4.16-.88-6.07-1.72-1.83-.8-4.88-.43-5.2-2.87-.51-3.88-2.01-8.14,1.78-11.79,3.22,6.29,7.7,11.34,13.16,15.53-.82,2.04-2.35,1.02-3.68.85Z"/>
  <path class="cls-18" d="M524.85,440.34c.16-3.03.52-6.08,2.53-8.61.89-1.11,2.09-1.66,3.4-.69,1.6,1.18-.21,1.76-.61,2.49-2.2,4.05-1.32,7.86,2.8,9.67,2.24.98,1.22,2.17.83,3.36-.65,2.01-1.28,4.45-3.82,4.5-2.35.05-3.07-2.28-3.87-4.1-.91-2.07-1.15-4.31-1.27-6.62Z"/>
  <path class="cls-99" d="M454.88,466.02c-.84-.43-.81-1.07-.3-1.7,1.91-2.34,3.85-4.65,5.78-6.98,2.51-2.18,3.95-5.12,5.6-7.91.54-.9.92-1.89,1.44-2.81.38-.68.76-1.71,1.77-1.08.75.47.11,1.24-.13,1.87-1.66,4.38-3.73,8.56-6.32,12.46-.71,1.07-1.29,2.22-2.02,3.28-.69.93-1.37,1.86-2.06,2.79-1.22,1.93-2.5.72-3.76.07Z"/>
  <path class="cls-24" d="M461.36,448.14c-2.24,4.39-5.27,8.23-8.27,12.12-1.51,1.96-2.35.83-3.61-.15-1.67-1.29-.8-1.99.35-2.89,3.96-3.1,7.47-6.69,10.83-10.42,1.19-.05,1.26.48.7,1.35Z"/>
  <path class="cls-8" d="M460.69,463.17c.42-2.65,2.3-4.55,3.57-6.75,1.91-3.32,3.47-6.76,4.54-10.46-3.12,3.59-4,8.82-8.45,11.39,4.33-6.21,7.84-12.88,10.96-19.76.7-.17,1.01.07.87.81-1.88,9.16-5.59,17.47-11.48,24.77Z"/>
  <path class="cls-79" d="M467.2,464.65c-1.04,3.02-2.55,5.81-4.25,8.49-.52.81-.98,2.22-2.27.79-.82-.91-2.06-1.78-.55-3.19,2.41-2.27,4.29-4.98,6.15-7.7,1.36-.07,1.16.77.92,1.61Z"/>
  <path class="cls-126" d="M482.65,414.91c6.51-4.71,13.49-8.38,21.48-9.85,1.14-.21,2.32-.41,3.47.02-8.65,1.35-15.83,6.21-23.53,9.82-.47.41-.94.41-1.41,0Z"/>
  <path class="cls-50" d="M423.07,455.2c-.61,2.1.76,2.25,2.25,2.28-1.82,1.32-4.23,2.11-4.42,4.9-1.18.61-1.85,1.98-3.27,2.23-.66-.09-1.3-.21-1.62-.91,1.65-3.42,3.6-6.59,7.06-8.5Z"/>
  <path class="cls-122" d="M497.5,441.75c-3.1.55-3.93-2.02-5.06-4.3-.98,1.46-.29,2.63-.56,3.69-1.34.39-.98-.87-1.36-1.41.01-.4.03-.8.04-1.2,1.28-.91.84-2.92,2.5-3.77.96,2.58,2.56,4.61,5.16,5.71.44.81-.25.99-.72,1.28Z"/>
  <path class="cls-154" d="M537.91,432.64c.19.16.41.22.65.18,1.3.96,2.14-.07,3.02-.74.71-.55,1.34-1.06,1.9.1.51,1.04.24,1.8-.92,2.12-.55.15-1.12.25-1.69.34-.75.12-1.76-.27-2.09.75-.4,1.23,1.04,1.35,1.45,2.1-1.02.13-1.5.79-1.72,1.72-.48-1.87-.97-3.74-1.45-5.62-.3-.84.07-1.09.86-.95Z"/>
  <path class="cls-6" d="M459.84,501.33c.37-1.73-.03-2.72-2.06-2.19.15-1.85,1.8-2.4,3.05-2.92.89-.37,1.1,1.3,1.4,1.88,1.16,2.24-.42,2.99-2.39,3.22Z"/>
  <path class="cls-65" d="M420.9,462.38c-.06-3.02,1.82-4.28,4.42-4.9,2.75-.81,5.33-2.32,8.34-2.08.11.19.24.37.39.54-4.02-.07-7.21,2.53-10.93,3.46-1.38.35-1.02,2.31-2.22,2.98Z"/>
  <path class="cls-98" d="M557.64,425.34c.27.6.77.84,1.39.89-1.69,2.2-3.78,3.13-7.55,1.93,2.86-.67,4.51-1.74,6.15-2.81Z"/>
  <path class="cls-34" d="M482.65,414.91c.47,0,.94,0,1.41,0l-7.7,5.85c-.04-.31-.08-.62-.11-.94,1.89-1.96,4.16-3.42,6.4-4.91Z"/>
  <path class="cls-159" d="M487.33,434.25c-.15-2.48,1.33-4.19,2.97-6.56-.14,3.08-1.69,4.76-2.97,6.56Z"/>
  <path class="cls-112" d="M538.72,430.99c-.04-.4-.08-.79-.12-1.19.47-.91.94-1.82,1.41-2.73,2.34,2.15,2.15,2.74-1.29,3.92Z"/>
  <path class="cls-90" d="M502.5,422.01c-.22-.23-.44-.46-.66-.68.78-1.42,1.98-2.33,3.45-2.93.27.74,1,.65,1.57.86-.72,2.07-2.16,3.01-4.36,2.75Z"/>
  <path class="cls-81" d="M484.47,447.03c-.13-2.11,1.05-3.65,2.18-5.93.41,2.88-.79,4.45-2.18,5.93Z"/>
  <path class="cls-145" d="M563.31,413.44c.38-1.37.76-2.75,1.13-4.12.87,1.54,1.93,3.03-.1,4.25-.34-.04-.69-.09-1.03-.13Z"/>
  <path class="cls-3" d="M471.56,471.1c-.14,1.57-.87,2.87-2.55,4.95.79-2.6.44-4.38,1.56-5.9.53.1.84.45.99.95Z"/>
  <path class="cls-14" d="M501.7,531.89c-.81,3.15,2.44,2.35,3.54,3.63-1.16.38-3.12-1.32-3.41,1.32-.29-.02-.57-.04-.86-.07,0-.91.02-1.82.02-2.73.24-.72.47-1.43.71-2.15Z"/>
  <path class="cls-7" d="M503.94,416.42c-1.13.91-2.27,1.82-3.4,2.74.33-1.71,1.32-2.78,2.68-3.52.28.22.71.31.72.79Z"/>
  <path class="cls-116" d="M488.28,488.69c1.15-.61,2.75.71,3.68-.85.58.31,1.15.62,2.26,1.21-2.43.7-4.2.5-5.94-.37Z"/>
  <path class="cls-8" d="M454.88,466.02c1.25-.02,2.53.93,3.76-.07q-1.65,2.95-3.76.07Z"/>
  <path class="cls-71" d="M568.25,415.55c.02-1.18.4-2.23,1.37-3.48.87,2,.42,3.52-.51,5.01-.17-.57-.2-1.22-.86-1.53Z"/>
  <path class="cls-4" d="M482.84,454.24c-.86.91-.11,2.56-1.46,3.25-.3.39-.58.38-.85-.03-.14-1.63.99-2.82,1.48-4.23.78-.07,1.06.27.84,1.02Z"/>
  <path class="cls-140" d="M546.3,427.02c.26.22.53.42.78.66.86.81,1.32,1.94.08,2.46-1.05.44-1.09-1.01-1.48-1.7-.39-.74-.54-1.37.63-1.41Z"/>
  <path class="cls-132" d="M482.06,440.65c-1.06.88-.32,2.27-.95,3.28-.65.1-1.01-.06-.7-.8-.1-1.44-.23-2.9.9-4.07,1.39,0,.88.88.75,1.6Z"/>
  <path class="cls-102" d="M480.53,457.45c.28.01.57.02.85.03,0,1.45-.3,2.83-1,4.1-1.68-.25-.62-1.36-.68-2.13.28-.67.55-1.34.83-2.01Z"/>
  <path class="cls-123" d="M475.84,471.52c-.56-1.59-.26-2.72.85-3.87.87,1.52.23,2.6-.85,3.87Z"/>
  <path class="cls-20" d="M490.51,439.74c.45.47.91.94,1.36,1.41.13.15.2.33.21.53.18.61-.07.9-.68.92-.55-.24-1.1-.49-1.66-.73-.1-.84.24-1.51.77-2.12Z"/>
  <path class="cls-5" d="M576.14,420.53c-.19.08-.39.15-.59.2-.16-.61-.19-1.29-.87-1.61.18-1-.25-2.14.71-2.94.68.32.76.96.84,1.6-.03.92-.06,1.84-.09,2.76Z"/>
  <path class="cls-46" d="M480.42,446.67c-.3.81-.59,1.63-1.05,2.88-.39-1.82-.42-3.06.3-4.22.73.18.32,1,.75,1.34Z"/>
  <path class="cls-68" d="M461.97,445.3c.31-.92.84-1.62,2.01-2.03.3,1.3-.24,2.15-1.13,2.89-.48-.09-.77-.38-.88-.85Z"/>
  <path class="cls-48" d="M461.97,445.3c.29.28.59.57.88.85-.34.78-.42,1.76-1.48,1.99-.23-.45-.47-.9-.7-1.35.44-.5.87-1,1.31-1.5Z"/>
  <path class="cls-54" d="M483.2,431.71c.44-1.97,1.1-2.72,2.61-2.78-.76.81-1.52,1.62-2.61,2.78Z"/>
  <path class="cls-77" d="M467.2,464.65c-.28-.55-.03-1.41-.92-1.61.08-.87.38-1.54,1.4-1.68.4,1.19.3,2.29-.47,3.29Z"/>
  <path class="cls-152" d="M485.26,425.02c-.13-1.03,0-1.88,1.23-2,.52,1.26-.64,1.48-1.23,2Z"/>
  <path class="cls-89" d="M546.3,427.02c-.21.47-.42.94-.63,1.41-.72-.75-1.21-1.6-1.29-2.69,1.14-.15,1.51.59,1.92,1.28Z"/>
  <path class="cls-10" d="M494.6,415.54c.87-.72,1.69-1.6,3.11-1.21-.49,1.09-1.44,1.48-2.32,1.95-.3-.21-.72-.27-.79-.73Z"/>
  <path class="cls-76" d="M503.94,416.42c-.24-.26-.48-.53-.72-.79.8-.62,1.6-1.24,2.78-2.15-.09,1.83-1.31,2.21-2.06,2.94Z"/>
  <path class="cls-87" d="M482.84,454.24c-.28-.34-.56-.68-.84-1.02.25-.71.51-1.41.76-2.12.7-.06,1.03.17.71.9.1.83-.14,1.57-.63,2.23Z"/>
  <path class="cls-3" d="M492.54,416.95c.44,1.72-.86,2.02-2.18,3,.11-1.98,1.35-2.31,2.21-2.95l-.02-.05Z"/>
  <path class="cls-100" d="M464.7,495.14c.07,1.24-.22,2.29-.95,2.25-1.23-.08-.52-.89-.12-1.39.2-.26.52-.42,1.07-.86Z"/>
  <path class="cls-143" d="M500.73,411.91c.68-.1.96.15.74.52-.21.35-.62.66-1.01.79-.35.12-.74-.21-.55-.59.19-.36.64-.57.82-.73Z"/>
  <path class="cls-86" d="M494.6,415.54c.26.24.52.49.79.73-.87.54-1.56,1.85-2.84.68,0,0,.02.05.02.05.68-.49,1.36-.98,2.03-1.46Z"/>
  <path class="cls-54" d="M483.37,431.19c-.12,1.39-.82,1.95-1.93,2.77.09-1.66,1.01-2.2,1.93-2.77Z"/>
  <path class="cls-81" d="M472.1,435.56c.24-.74.44-1.51,1.48-2.06.12,1.1.02,1.97-.66,2.74-.51.05-.62-.37-.82-.69Z"/>
  <path class="cls-116" d="M471.56,471.1l-.99-.95c.18-.69.66-1.76,1.14-1.45.88.58.47,1.62-.15,2.4Z"/>
  <path class="cls-148" d="M472.1,435.56c.27.23.54.46.82.69-.11.76-.06,1.58-.74,2.15-.29-.27-.58-.54-.87-.81.26-.67.52-1.35.79-2.02Z"/>
  <path class="cls-166" d="M480.42,446.67c-.25-.45-.5-.89-.75-1.34.25-.74.49-1.47.74-2.21.23.27.47.54.7.8-.23.92-.46,1.83-.69,2.75Z"/>
  <path class="cls-44" d="M482.06,440.65c-.14-.58-.12-1.24-.75-1.6.18-.55.59-1.47,1-1.14,1.06.85.14,1.83-.25,2.74Z"/>
  <path class="cls-53" d="M479.7,459.46c.17.73-.11,1.6.68,2.13-.07.58-.57.87-.87.5-.71-.85-.74-1.82.19-2.63Z"/>
  <path class="cls-81" d="M470.34,479.71c.35,1.04.25,1.76-.27,1.9-1.12.32-.58-.49-.43-.9.11-.3.37-.54.7-1Z"/>
  <path class="cls-43" d="M483.47,452.01c-.24-.3-.48-.6-.71-.9.21-.71.25-1.53,1.11-1.88.63,1.06.14,1.93-.4,2.79Z"/>
  <path class="cls-15" d="M887.9,213.6c1.94.39,3,1.3,2,3.42-.63.5-1.25,1.01-1.88,1.51-5.46,2.29-9.31,6.96-14.49,9.7-4.1,2.17-8.55,3.82-11.77,7.42l.05-.04c-1.51.56-2.43,1.88-3.59,2.88l.05-.04c-1.18.44-2.07,1.25-2.86,2.2l.05-.04c-4.55,3-8.41,6.68-9.3,12.28-1.07,6.73-4.51,12.34-7.67,18.11-2.38,4.34-5.08,8.46-8.09,12.42-4,5.28-9.13,8.77-15.19,11.09-7.04,3.85-14.42,1.81-21.7,1.18-3.14-.27-6.29-.51-9.41-1.04-5.67-.97-10.46,1.9-15.52,3.6-.51.24-.99.54-1.52.73-.8.1-1.4-.21-1.87-.84-.13-.32-.15-.65-.05-.99,1.11-1.66,3.38-1.78,4.52-3.4.53-.72,1.32-1.29,1.71-2.04.7-1.37-.65-.41-.95-.69-2.24-.02-4.36.87-6.61.71-1.82-.13-3.61-.35-4.36-2.28-.68-1.75.71-2.8,1.71-3.91,1.17-1.3,2.59-2.37,3.5-3.87-1.2-1.56-2.79-.28-4.17-.57-1.25-.26-2.7-.02-3.34-1.47-.66-1.51.13-2.71,1.06-3.85,1.18-1.44,2.8-2.5,3.9-4.39-1.9-.45-3.61-.16-5.31.16-1.63.31-3.27.42-4.91.16-1.23-.19-2.26-.72-2.6-2.05-.3-1.17.22-2.11,1.06-2.82,2.15-1.83,4.33-3.61,7.01-5.59-2.2-.07-3.96-.05-5.72.25-1.95.34-3.57-.15-4.39-2.05-.79-1.82-.46-3.46,1.28-4.64.83-.57,2-.73,2.36-1.92-5.66-.58-5.82-.69-6.54-4.4.72-1.79,2.45-2.87,3.2-4.61-1.72-1.18-3.38-.02-5.04.11-3.16.26-4.3-.66-4.21-3.52.22-.44.52-.81.89-1.13.71-.58,1.5-1.07,2.18-1.69.85-.8.71-2.41,2.18-2.71.26-.25.55-.49.66-.82.49-1.39,2.22-2.7,1.31-4.12-.97-1.51-2.55.21-3.87.14-5.22-.26-9.31-2.72-12.62-6.64-3.5-4.56-2.13-9.36-.63-14.14.29-.94,1.03-1.68,2.14-1.48,1.63.29,1.9,1.72,1.98,2.98.22,3.83.9,7.45,3.03,10.77,3.72,5.79,9.82,6.21,14.28.89.23-.27.46-.54.69-.81q2.83-3.33-1.22-4.88c-6.28-2.41-9.41-10.8-6.26-16.93.75-1.46,1.65-3.27,3.67-2.59,2.3.78,1.2,2.68.81,4.22-1.2,4.73.58,8.39,5.4,11.02,3.55,1.94,7.87.95,10.92-2.34,1.32-1.43-.09-1.8-.74-2.44-2.95-2.92-5-6.25-5.06-10.56-.03-1.6.41-3.04,1.36-4.3,1.13-1.49,2.75-1.94,4.42-1.34,1.76.63,1.44,2.21,1.13,3.62-.5,2.25-.65,4.44.94,6.38.03.61.31,1.05.89,1.29,1.98,2.85,4.27,3.29,7.56,1.83,15.22-6.74,31.14-10.05,47.84-8.98,4.47.29,8.48,1.91,11.72,5.14,0,0,0-.03,0-.03,1.33,1.6,2.97,2.9,4.31,4.5,2.42,4.04,6.24,6.78,9.39,10.14,1.1,1.42,2.72,2.11,4.22,2.97h-.02c4.95,1.71,9.9,1.51,14.85-.02,7.08-1.62,13.95-4.21,21.26-4.82Z"/>
  <path class="cls-73" d="M414.86,463.93c-1.94,1.88-4.61,2.54-6.74,4.1-14.43,3.15-28.57,1.73-42.67-2.24-7-1.97-11.67-6.94-16.69-11.54-4.98-4.56-9.56-9.56-13.28-15.16-6.56-9.86-10.39-20.75-11.82-32.59-1.23-10.18-.5-20.36,2.64-29.77,4.89-14.67,16.82-29.86,36.26-30.78,12.39-.58,24,1.02,35.73,5.08,9.19,3.18,19.04,4.71,28.66.02,2.93-1.43,6.22-2.1,9.21-3.57,3.7-1.82,7.42-3.45,8.88-7.78.27-.22.58-.36.91-.45,4.11-.25,4.98.31,5.47,3.51-.32.16-.66.22-1.01.21-2.45-1.22-3.35-.56-3.85,2.26-.78,4.42-.16,8.69.23,13.03.04,1.76-.22,3.54.36,5.26,4.23,8.67,7.04,17.99,12.23,26.23,2.58,4.1,5.1,8.21,8.59,11.61,2.19,2.14,3.6,1.72,4.33-1.28.48-1.97.26-3.97-.03-5.97-.68-4.71-2.45-9.08-3.96-13.54-1.29-3.78-2.85-7.49-3.52-11.47-1.22-5.1-3.76-9.56-6.7-13.82-.86-.89-1.48-1.91-1.57-3.18.13-1.07.21-2.21,1.82-1.64.29.18.53.4.74.67.68,1.31,1.5,2.52,2.68,3.45,2.63,3.93,4.96,8.02,6.62,12.46,2.68,7.18,5.18,14.42,7.45,21.74,1.48,4.77,2.13,9.68.39,14.61-.25.7-.9,1.7.14,2.16.85.38,1.56-.43,2.01-1.11,2.11-3.12,2.17-6.68,1.86-10.23-.76-8.65-3.29-16.85-6.44-24.9-3.17-8.09-7.86-15.27-12.76-22.36-.92-2.34-2.47-4.09-4.79-5.12-.3-.14-.58-.33-.83-.54-.48-.51-.79-1.08-.66-1.81.3-.78.91-.86,1.62-.74,1.29.31,2.36,1.05,3.48,1.71,3,1.38,4.52,4.2,6.47,6.61.62,1.19,1.34,2.3,2.31,3.24,7.31,10.76,12.1,22.6,15.01,35.25,1.09,5.08.73,10.21.63,15.33-.03.37-.11.74-.22,1.1-.31,2.03-1.54,3.57-2.79,5.09-3.27,3.12-5.04,3.29-10.06,1-1.57-1-3.57-1.17-4.92-2.58-3.67-2.72-6.23-6.42-8.6-10.22-1.57-2.51-3.67-3.65-6.51-4.25-10.95-2.3-21.25.85-31.61,3.51-5.38,1.38-10.3,4-15.44,6.04-2.47.98-3.6,3.27-5.56,4.69-.39.04-.74-.08-1.04-.33-.7-3.41,1.49-4.84,4.06-6.16,11.49-5.89,23.74-9.17,31.9-10.13-7.28,1-18.85,3.62-29.67,9.07-4.53,2.28-4.87,1.98-6.94-2.81-.53-2.27-2.19-3.1-4.22-4.02-7.32-3.32-14.96-3.76-21.29-3.28,1.64,0,4.79.1,7.92-.03,3.27-.14,6.24,1.01,9.27,1.9,1.39.41,3.56.61,2.41,3.14-.72.78-1.68.62-2.59.63.92.02,1.85.13,2.59-.61,2.75-1.35,4.52-.1,5.88,2.23,2.06,5.1,2.16,5.26-2.53,8.14-7.58,4.65-14.64,9.84-20.05,17.04-.52.7-1.08,1.65-2.28,1.22-.22-.31-.35-.64-.39-1.02,1.52-4.9,5.56-7.78,9.04-11.05,3.1-2.9,6.47-5.5,10.34-7.38,1.06-.51,2.02-1.22,2.86-2.07.9-.9,1.36-1.94.76-3.2-.53-1.1-1.5-1.43-2.64-1.38-1.42.06-2.8.44-4.2.61-7.82.96-15.63,2.28-23.55.94-1.05-.18-2.1-.28-3.07-.76-3.56-1.79-4.02-5.47-.97-8.03,1.9-1.59,4.29-1.81,6.6-2.3,9.09-1.93,17.89-.22,26.51,2.37,4.42,1.33,8.25.31,12.39-.8,12.36-3.31,23.46-9.13,33.97-16.26.78-.53,1.65-.91,2.53-1.25,3.56-1.65,3.63-1.85,2.02-5.41-1.39-3.56-2.08-7.25-2.13-11.06-.06-4.51,0-4.37-4.26-2.44-5.68,2.57-11.4,5.14-17.6,6.26-8.26,1.49-16.25-.2-23.99-2.77-7.87-2.61-15.71-5.57-24.09-4.97-7.33.52-15.08-.32-21.79,3.54-11.4,6.57-18.59,16.29-21.3,29.35-1.67,8.05-2.26,16.01-1.39,24.24,1.15,10.83,4.74,20.71,10.58,29.69,5.7,8.77,13.38,15.84,21.39,22.5,1.28,1.07,2.74,1.89,4.31,2.4,13.31,4.37,26.88,6.32,40.77,3.51,5.18-1.05,9.61-3.59,12.74-8.22,5.82-8.6,11.43-17.34,17.14-26,1.04-1.57,1.89-3.28,3.59-4.3.36-.12.73-.12,1.1,0,.88.88.24,1.68-.12,2.5-5.01,7.23-9.6,14.74-14.39,22.12-4.27,6.58-8.5,12.97-16.39,15.65-14.1,3.58-27.95,2.13-41.73-1.84-3.9-1.12-7.53-2.57-9.14-4.3,5.2,6.67,35.36,10.87,51.38,5.9,1.99-.76,3.46-3.01,6.03-2.12Z"/>
  <path class="cls-15" d="M556.97,469.97c15.89-14.31,24.62-32.78,30.62-52.83,2.85-12.08,5.6-24.18,8.46-36.26,1.02-2.75.52-5.89,2.14-8.49.21-1.6-.73-1.07-1.52-.82-1.12.34-2.25.68-3.38.02-.77-2.78,1.38-2.9,3.1-3.47,2.41-.8,5.01.51,7.36-.74,1.06-2.13,2.26-4.11,5-4.3,2.6-.67,5.2-1.34,7.8-2.01,1.39-.31,2.3.13,2.46,1.65.12,1.11-.04,2.13-1.16,2.73-1.97,1.05-3.99,2.4-6.23,2.2-3-.26-4.98.73-6.32,3.34-.33.64-.94,1.05-1.67,1.22,0,0,0-.02,0-.02-2.09.32-3.44,1.41-3.74,3.6-2.17,15.68-6.05,30.97-10.38,46.16-3.59,8.96-7.27,17.89-11.94,26.37-5.17,9.39-11.66,17.67-20.31,24.13-1.36-.68-.32-1.64-.29-2.48Z"/>
  <path class="cls-39" d="M766.84,298.68c.25-.16.49-.33.74-.49,8.21-4.34,16.74-4.7,25.77-2.98,5.13.98,10.51,1.37,15.82.93,2.4-.2,4.41-1.57,6.62-2.31,8.78-2.75,14.2-9.45,18.75-16.79,3.58-5.77,7.14-11.62,9.64-18.02,1.08-2.76,1.21-5.73,2.25-8.49,1.41-3.72,3.31-6.89,7.39-8.14-.34.75-.46,1.78-1.04,2.2-4.5,3.31-4.97,8.46-6.57,13.23-3.11,9.3-8.56,17.38-14.06,25.44-5.58,8.17-13.81,11.89-22.75,14.37-4.69,1.3-9.59-.15-14.37-.62-5.02-.49-10.01-1.46-15.05-1.19-4.15.23-7.91,2.2-11.73,3.63-31.6,11.85-63.12,23.89-94.69,35.81-17.27,6.52-34.61,12.88-51.87,19.44-8.12,3.09-16.22,6.25-24.51,8.86-.65.2-1.39.13-2.09.19.56-2.16,2.59-2.19,4.16-2.76,18.09-6.62,36.06-13.56,54.06-20.42,19.72-7.11,39.22-14.79,58.86-22.1,16.77-6.25,33.54-12.5,50.22-18.99,1.45-.57,2.93-.71,4.45-.8Z"/>
  <path class="cls-28" d="M653.65,341.29c-11.62,4.47-23.25,8.93-34.87,13.4-7.89,3.03-15.79,6.05-23.68,9.07-2.46.77-4.91,1.55-7.37,2.32-.79.33-1.49.34-1.89-.59.06-1.74,1.56-1.91,2.7-2.35,19.93-7.66,39.91-15.21,59.91-22.7,1.11-.42,2.22-.82,3.44-.52.75.24,1.42.59,1.76,1.36Z"/>
  <path class="cls-150" d="M586.06,365.18c.34.7,1.01.78,1.67.9-11.63,4.48-23.25,8.97-34.89,13.42-2.74,1.05-5.54,1.94-8.31,2.9-.79.3-1.5.33-1.91-.61.07-1.74,1.56-1.9,2.71-2.35,12.31-4.84,24.72-9.38,37.07-14.11,1.18-.45,2.4-1.15,3.67-.16Z"/>
  <path class="cls-55" d="M853.82,242.4c-5.55,2.83-6.77,8.27-8.52,13.57-4.39,13.26-11.07,25.18-21.83,34.4-1.95,1.67-4.25,2.97-6.9,3.38-.4.27-.73.2-1-.2,9.32-3.52,15.14-10.76,19.86-19.04,2.95-5.19,6.39-10.16,8.31-15.88.96-2.87,1.43-5.91,2.45-8.76,1.61-4.49,4.52-7.85,9.29-9.25-.55.59-1.1,1.19-1.65,1.78Z"/>
  <path class="cls-129" d="M542.85,381.5c.34.71,1.03.77,1.68.9-9.11,3.96-18.48,7.24-27.84,10.54-.93.44-1.82.69-2.33-.58.36-1.29,1.46-1.78,2.54-2.22,7.6-3.08,15.36-5.72,22.98-8.75.98-.39,2.01-.73,2.97.11Z"/>
  <path class="cls-55" d="M861.77,235.66c.73-2.26,2.79-3.24,4.59-4.17,5.77-2.97,11.4-6.11,16.34-10.39,1.5-1.3,3.22-2.39,5.33-2.55-5.08,3.47-9.66,7.65-15.14,10.57-3.79,2.02-7.41,4.35-11.11,6.55Z"/>
  <path class="cls-12" d="M514.53,392.19c.49.91,1.39.65,2.16.76-5.69,2.61-11.66,4.45-17.59,6.43-.79.36-1.48.45-1.76-.62.55-1.58,2.06-1.79,3.35-2.29,3.28-1.29,6.45-2.87,9.81-3.96,1.29-.42,2.61-1.25,4.03-.31Z"/>
  <path class="cls-131" d="M608.75,363.08l-5,4.3h-7c3.99-1.57,7.4-4.66,11.99-4.3Z"/>
  <path class="cls-59" d="M481.24,407.09l2.14-4.93c2.39.19,4.44-.93,6.57-1.73,1.28-.48,2.53-1.11,3.98-.85.67.21,1.25.52,1.57,1.18-4.65,2.35-9.95,3.23-14.27,6.32Z"/>
  <path class="cls-146" d="M603.63,372.22c.73-.91,1.36-1.91,2.2-2.7,1.46-1.39,2.61-3.11,5.33-2.35,1.84.51,3.88-.68,5.61-1.67,2.59-1.48,2.49-2.73-.22-4.41,1.21-1.32,2.23-.71,2.63.58.43,1.42.7,3.1-.91,4.12-1.79,1.13-3.78,2.25-5.84,2.21-3.11-.07-5.49.63-6.93,3.58-.33.68-1.13.77-1.87.65Z"/>
  <path class="cls-97" d="M466.97,405.03c1.42.99,3.08,1.66,4.2,3.07-1.93-.72-3.82-.74-5.64.34-.89.06-1.79.13-2.68.19-.87-.75-2.21.35-2.98-.78.34-1.93,2.1-1.5,3.32-1.96,1.21-.46,2.57-.34,3.78-.85Z"/>
  <path class="cls-37" d="M495.5,400.77c-.62-.07-1.23-.16-1.53-.82.62-1.94,1.93-2.09,3.56-1.35.34.63.95.7,1.57.77-1.2.47-2.4.93-3.6,1.4Z"/>
  <path class="cls-55" d="M858.24,238.5c.72-1.56,1.6-2.9,3.59-2.88-.92,1.3-2.11,2.27-3.59,2.88Z"/>
  <path class="cls-55" d="M855.43,240.65c.42-1.43,1.26-2.31,2.86-2.2-.65,1.13-1.62,1.83-2.86,2.2Z"/>
  <path class="cls-127" d="M456.2,339.07c-.63.05-1.09.33-1.34.93-1.56-.2-1.43,1.35-2.12,2.05-1.32-.11-1.91-1.22-2.67-2.03-1.84-1.93-.2-1.99,1.17-2.09-1.1-.16-2.2.49-3.36.21-.32-.13-.57-.35-.74-.65,3.29-1.78,6.28-.69,9.2.99.21.18.26.33.15.44-.09.1-.18.15-.28.15Z"/>
  <path class="cls-9" d="M456.2,339.07c.05-.19.09-.39.12-.59,2.28.08,4.14-1.45,6.34-1.66.69-.32,1.32-.4,1.74.41-.76,2.46-3.59,2.07-4.99,3.66-1.07-.61-2.15-1.22-3.22-1.83Z"/>
  <path class="cls-115" d="M464.23,337.57c-.35-.61-.96-.66-1.56-.74.81-.42,1.62-.84,2.44-1.26,1.13-.26,2.25-.52,3.38-.78.5.41,1.54.07,1.56,1.14-1.63,1.65-3.45,2.62-5.82,1.65Z"/>
  <path class="cls-127" d="M445.83,339.77c-.27-.02-.54-.04-.81-.07.22-1.2.94-1.91,2.11-2.21.08.1.16.21.24.31.09,1.13-.76,1.52-1.54,1.96Z"/>
  <path class="cls-11" d="M481.95,329.83c7.09-2.6,14.17-5.2,21.26-7.8.52.38,1.57.06,1.56,1.16-.23.57-.62,1.06-1.17,1.24-6.73,2.3-13.19,5.39-20.22,6.77-.74-.18-1.57-.28-1.43-1.37Z"/>
  <path class="cls-93" d="M504.88,322.88c-.64-.13-1.3-.2-1.68-.85,3.32-1.36,6.65-2.71,9.97-4.07,2.57-.8,5.13-1.6,7.7-2.4.71.15,1.5.2,1.62,1.17-.23.72-.77,1.21-1.43,1.45-4.61,1.66-9.18,3.43-13.84,4.93-.79.25-1.61.31-2.34-.23Z"/>
  <path class="cls-66" d="M481.95,329.83c.32.65.97.67,1.55.8-.65,2.1-2.71,2.04-4.24,2.6-3,1.09-5.86,2.88-9.28,2.3-.59-.07-1.17-.15-1.5-.75,4.49-1.65,8.98-3.3,13.46-4.95Z"/>
  <path class="cls-64" d="M544.28,307.1c17.38-6.38,34.76-12.8,52.15-19.15,25.27-9.21,50.57-18.37,75.86-27.53.99-.36,2.03-.58,3.04-.86.72.15,1.53.18,1.6,1.2-.75,1.6-2.36,1.84-3.77,2.35-40.5,14.61-80.95,29.34-121.41,44.02-1.77.64-3.51,1.4-5.44,1.5-.93-.18-2.08-.06-2.03-1.53Z"/>
  <path class="cls-121" d="M677.05,260.46c-.66-.13-1.34-.23-1.71-.91,13.36-4.94,26.71-9.91,40.08-14.8,9.29-3.4,18.62-6.69,27.93-10.03.23.17.31.34.24.52-.07.18-.13.28-.21.28-1.21.53.47,2.69-1.56,2.76-1.69-.02-2.99,1.08-4.49,1.61-18.76,6.75-37.49,13.55-56.23,20.31-1.29.47-2.64,1.18-4.06.27Z"/>
  <path class="cls-130" d="M544.28,307.1c.5.88,1.38.63,2.14.74.15,1.29-.91,1.56-1.72,1.84-6.4,2.2-12.7,4.71-19.1,6.89-.99.34-2.03.63-3.02-.08-.66-.13-1.35-.23-1.71-.92,7.71-3.07,15.45-6.06,23.41-8.46Z"/>
  <path class="cls-111" d="M743.38,235.52l-.04-.8c.52-1.5,1.85-2.68,1.79-4.63-6.68.93-12.37-.49-16.08-6.57,2.57,1.59,4.51,4.09,7.53,5.05,2.02.64,3.93,1.58,6.15.88,1.1-.35,2.41-.88,3.22.35.77,1.16-.16,2.25-.67,3.28-.46.94-.81,1.99-1.91,2.45Z"/>
  <path class="cls-15" d="M461.19,513.32c2.48,1.33-.03,1.45-.31,2.53-.75-1.35.6-1.74.35-2.55,0,0-.04.03-.04.03Z"/>
  <path class="cls-65" d="M414.86,463.93c-2.24-.13-3.74,1.9-5.89,2.03h0c.29-.36.5-.92.87-1.06,7.43-2.77,10.48-9.57,14.56-15.51,4.43-6.45,8.53-13.09,12.74-19.67.36-.56,1.05-.9,1.59-1.34.1.13.21.25.31.38-.21,1.87-1.88,3-2.37,4.73-3.64,6.99-8.55,13.16-12.63,19.86-.36.59-.65,1.23-.97,1.85-2.58,2.65-4.24,6.06-7.06,8.5-.38.08-.76.15-1.14.23Z"/>
  <path class="cls-156" d="M866.64,218.43c-4.95,2.13-9.9,2.43-14.85,0,4.95.73,9.9.7,14.85,0Z"/>
  <path class="cls-17" d="M838.21,205.33c-1.79-1.16-3.48-2.42-4.31-4.5,1.91,1.04,3.5,2.4,4.31,4.5Z"/>
  <path class="cls-156" d="M851.82,218.45c-1.94-.22-3.5-1-4.22-2.97,1.59.73,3.09,1.59,4.22,2.97Z"/>
  <path class="cls-162" d="M596.04,380.88c-.83,8.93-3,17.6-5.36,26.21-.93,3.37-1.46,6.89-3.1,10.05.39-7.03,2.28-13.79,3.85-20.58,1.23-5.3,2.09-10.75,4.61-15.68Z"/>
  <path class="cls-83" d="M459.87,407.77c.99.3,2.25-.34,2.99.86-1.2.87-2.62,1.13-4.02,1.43-1.32.28-2.61.68-3.81,1.32-3.07,2.84-6.14,5.68-9.21,8.52-1.05-1.48.25-2.28.98-3.18.76-.95,1.97-1.63,1.7-3.14,2.71-4.06,6.59-5.8,11.36-5.81Z"/>
  <path class="cls-65" d="M448.56,414.1c1.15.2,1.27.6.47,1.52-1.17,1.34-3.06,2.17-3.21,4.28-.47.7-.94,1.4-1.42,2.1-2.24,1.81-2.72,5.19-5.66,6.39,0,0-.02-.01-.02-.01.24-.69.48-1.39.72-2.08-.36-2.47,1.88-3.6,2.77-5.43.16-.27.36-.53.56-.77.61-.7,1.22-1.4,1.69-2.21.16-.27.35-.52.55-.76.99-1.01,1.88-2.12,3.09-2.89.15-.05.3-.09.46-.13Z"/>
  <path class="cls-83" d="M438.75,428.39c2.38-1.7,2.84-5.09,5.66-6.39-2.26,4.04-4.91,7.82-7.73,11.49-.29-2.1,1.91-3.18,2.08-5.09Z"/>
  <path class="cls-145" d="M576.23,417.77c-.67-.33-.73-.98-.84-1.6.14-.81-.39-1.92,1.16-2.26.3,1.35.51,2.62-.32,3.85Z"/>
  <path class="cls-97" d="M455.02,411.38c1.01-1.2,2.29-1.6,3.81-1.32-1.17.71-2.36,1.39-3.81,1.32Z"/>
  <path class="cls-22" d="M596.67,371.57c.74-.64,1.63-1.15,2.41-.36.35.36-.27,1-.89,1.18-.25-.74-1.02-.54-1.52-.82Z"/>
  <path class="cls-94" d="M511.01,473.09c.13-1.2.42-2.39.33-3.54-.14-1.93-.48-3.85-3.12-3.85-1.28,0-2.53-.3-2.18-1.97.31-1.46,1.61-1.56,2.83-1.42.57.07,1.15.28,1.67.54,6.61,3.31,12.76,2.13,18.62-1.89,1.17-.8,2.34-1.59,3.55-2.33.88-.54,2.07-1.49,2.8-.4.73,1.08,1.23,3-.35,3.76-5.95,2.85-6.67,8.2-7.29,13.84-.39,3.51-2.67,5.98-5.83,7.52-4.68,2.27-9.55-.24-10.44-5.36-.28-1.62-.4-3.28-.6-4.89Z"/>
  <path class="cls-128" d="M491.4,442.59l.68-.92c.85.57,1.71,1.13,2.56,1.7.11.66-.05,1.03-.81.74-.91-.3-1.81-.6-2.72-.89.06-.23.16-.44.29-.63Z"/>
  <path class="cls-45" d="M520.9,449.65c.05-1.16.1-2.31.15-3.47.15-.39.35-.45.64-.12.57.63.91,1.33.61,2.2l-1.39,1.39Z"/>
  <path class="cls-23" d="M502.5,422.01c1.45-.92,2.9-1.84,4.36-2.75.92-.04,1.92-.32,2.74-.06,1.3.41,3.11,1.34,2.66,2.68-.5,1.47-1.92-.05-2.91-.33-2.28-.65-3.7.95-5.39,1.9-.74.42-1.23,1.95-2.21,1.14-1.22-1.01.36-1.74.75-2.58Z"/>
  <path class="cls-108" d="M530.53,420.15c-3.09-1.63-5.3-2.74-7.43-.39-.39.44-1.14.21-1.43-.42-.27-.58-.08-1.16.37-1.59,1.19-1.14,2.43-2.27,4.25-2.02,2.03.28,3.22,1.51,4.23,4.41Z"/>
  <path class="cls-87" d="M521.53,436.85c.2,1.58.12,3.11-.85,4.54-.52-.78-.67-1.53-.52-2.34.46-.73.91-1.47,1.37-2.2Z"/>
  <path class="cls-113" d="M506.76,442.38c.23-2.62.53-5.45,2.82-7.52.81-.73,1.84-1.34,2.85-.56,1,.78-.18,1.42-.43,2.1-1.41,3.83.33,7.74,4.35,9.48.66.29.96.54.85,1.21-.08.46-.18.92-.3,1.38-.6,2.3-1.15,5.04-3.86,5.36-2.97.34-3.99-2.42-4.99-4.68-.92-2.07-1.23-4.29-1.29-6.77Z"/>
  <path class="cls-92" d="M493.83,444.11c.27-.25.54-.49.81-.74.82.28,1.64.57,2.95,1.02-1.64.57-2.71.23-3.76-.28Z"/>
  <path class="cls-16" d="M521.68,446.06c-.2.11-.41.15-.64.12v-3.2c.87,1.11.69,2.11.64,3.08Z"/>
  <path class="cls-139" d="M497.5,441.75c.24-.43.48-.86.72-1.28.6-.02,1.71-.2,1.54.4-.2.74-1.24,1.24-2.26.88Z"/>
  <path class="cls-40" d="M537.91,432.64c-.29.32-.57.63-.86.95-.63-.57-1.25-1.35-.38-1.96.77-.54,1.13.28,1.24,1.01Z"/>
  <path class="cls-57" d="M756.08,253.88c.95-.67,1.89-1.37,2.87-1.99.95-.6,2.48-.87,1.92-2.43-.49-1.38-1.9-1.1-3.05-1.03-2.55.16-5.09.37-7.91.59,1.01-3,3.57-4.57,4.87-7,.39-1.59,3.15-2.44,2.15-4.07-1.19-1.91-3.29-.09-4.8.26-6.41,1.47-6.29,1.62-4.93-4.63.36-1.67.78-3.17,1.97-4.4,1.65-.87,2.46-2.52,3.51-3.91,7.5-9.85,18.32-14.72,29.32-19.01,9.59-3.74,19.79-5.27,30.01-6.37,4.97-.54,9.87-.07,14.67,1.47,2.03.65,3.5,1.76,4.49,3.69.87,1.69.86,2.93-.63,4.36-2.29,2.21-4.35,4.66-6.45,7.06-9.01,10.32-9.62,23.57-1.53,34.61,3.48,4.75,8.74,6.2,14.18,7.01,1.9.28,2.41.66,1.72,2.61-3.68,10.36-10.12,18.62-18.93,25.02-4.39,3.2-9.46,4.44-14.92,4.9-8.39.7-16.7-.05-25.08-.54-.32-.39-.11-.79.18-1.18.61-.82,1.6-1.54.67-2.75-.83-1.08-1.9-1.26-3.16-1.03-3.89.72-7.78,1.42-12.39,2.25,2.75-3.73,5.97-5.66,9.05-7.74,1-.67,2.2-1.18,1.63-2.69-.5-1.33-1.71-1.57-2.93-1.47-2.46.19-4.9.49-7.71.77.84-2.4,2.64-3.56,4.01-5.04.78-.84,2.09-1.52,1.51-2.9-.57-1.35-1.95-1.63-3.3-1.58-2.88.1-5.75.27-9.26.44,2.62-3.11,6.19-4.22,7.62-7.46.76-.81,2.1-1.39,1.43-2.83-.69-1.48-2.22-1.51-3.33-1-2.35,1.08-4.89-.04-7.18.94-.77.33-1.8.66-2.25-.05-.66-1.04.57-1.56,1.15-2.2.23-.25.54-.44.8-.67Z"/>
  <path class="cls-58" d="M497.53,398.6c-1.19.45-2.38.9-3.56,1.35-2.74.98-5.49,1.94-8.23,2.95-1,.37-2.02.95-2.36-.73,0,0,.02,0,.02,0,.69-3.61.35-7.27.26-10.89-.07-2.57.92-3.9,3.2-4.77,2.42-.93,4.89-1.7,7.31-2.61,2.81-.81,5.48-2.04,8.27-2.94,5.91-2.11,11.89-4.04,17.73-6.36,17.69-6.35,35.39-12.66,53.04-19.12,9.27-3.2,18.5-6.51,27.68-9.95,17.78-6.24,35.51-12.61,53.17-19.17,23.56-8.31,47.04-16.84,70.53-25.34,9.97-3.61,19.97-7.17,29.94-10.78,2.13-.77,4.07-1.3,6.28.42,1.68,1.32,4.16.69,6.18.34,1.34-.23,2.78-.3,4.08-.85h2.43c-.53,1.92-2.37,2.59-3.29,4.02-1.31,1.5-3.61,1.42-4.86,3.03-.13.2-.19.42-.17.65-4.15,2.81-9.02,3.92-13.61,5.64-31.87,11.95-63.65,24.15-95.56,36.02-1.34.5-2.62,1.09-4.09.83-9.07,3.33-18.17,6.6-27.22,10.02-12.91,4.88-25.77,9.87-38.66,14.81-12.56,4.68-25.13,9.35-37.69,14.04-1.87.7-3.69,1.52-5.53,2.28-9.59,3.17-18.98,6.85-28.32,10.68-5.83,1.7-11.4,4.09-16.99,6.42Z"/>
  <path class="cls-58" d="M522.58,316.48c8.06-2.57,16.02-5.41,23.84-8.64,18.31-6.56,36.62-13.1,54.92-19.7,24.4-8.8,48.78-17.65,73.17-26.5.87-.32,1.7-.78,2.54-1.18,13.87-4.94,27.74-9.88,41.61-14.81,6.3-2.24,12.6-4.48,18.91-6.71.87-.1,1.96-.86,2.25.76-.27.24-.53.49-.8.73-1.71,1.47-.86,2.38.73,2.97,1.58.59,3.16.11,4.77-.13,1.32-.2,3.11-1.53,3.92.88-.8,1.74-2.08,3.05-3.64,4.11-3.08,2.37-6.9,3-10.41,4.25-24.21,8.59-48.36,17.37-72.57,25.99-10.77,3.83-21.54,7.64-32.23,11.69-15.93,5.4-31.7,11.22-47.49,17.02-9.35,2.96-18.47,6.6-27.73,9.83-13.22,4.69-26.42,9.45-39.58,14.3-9.3,3.01-18.42,6.55-27.6,9.89-4.13,1.25-8.14,2.82-12.23,4.21-1.82.68-3.64,1.36-5.4,2.2-1.29.61-2.61.92-3.87-.12-1.82-2.45-3.75-4.8-6.26-6.61.18-3.17,3.44-1.87,4.81-3.33,2-.44,3.97-.97,5.75-2.04,4.53-1.56,9.17-2.82,13.52-4.9,7.18-2.45,14.4-4.76,21.38-7.75,6-1.85,11.93-3.89,17.69-6.4Z"/>
  <path class="cls-58" d="M482.6,385.16c-2.91-12.46-7.72-24.11-14.87-34.76-.93-1.58-.17-2.31,1.31-2.8,2.64-.87,5.14-2.11,7.82-2.87,3.84-1.36,7.74-2.58,11.51-4.15,9.21-3.25,18.4-6.57,27.58-9.9,13.23-4.66,26.45-9.37,39.6-14.23,9.29-3.14,18.48-6.53,27.69-9.89,15.84-5.59,31.67-11.21,47.45-17,32.8-11.59,65.49-23.46,98.26-35.13,4-1.42,7.93-3.03,12-4.28,1.81-.56,3.41-.9,4.57,1.17.67,1.19,1.86,1.19,3.14.96.84-.15,2.1-.65,2.48.51.34,1.02-.85,1.53-1.52,2.14-.17.16-.38.27-.58.41-1.69,1.11-1.86,2.77-1.05,4.32.78,1.49,2.42,1.09,3.82.96,2.53-.25,5.07-.47,7.9-.05-2.6,2.02-5.23,4.02-7.8,6.08-.98.78-2.38,1.54-1.84,3.08.58,1.64,2.22,1.06,3.4,1.03,3.49-.07,6.98-.32,10.94-.52-1.22,2.73-3.38,4.01-5.02,5.72-.93.97-2.6,1.69-1.81,3.41.71,1.55,2.25.85,3.47.78,1.52-.09,3.04-.43,4.56-.4,2.03.04.73,1.05.39,1.75-.4.43-.99.69-1.32,1.17-4.14,5.88-10.57,7.87-16.9,10.13-28.82,10.28-57.63,20.56-86.35,31.12-2.87,1.06-5.84,1.81-8.67,3-17.69,6.38-35.38,12.78-53.08,19.12-9.2,3.31-18.43,6.57-27.58,10.02-17.72,6.27-35.41,12.6-53.04,19.12-5.94,2.01-11.83,4.19-17.72,6.34-2.75.78-5.38,1.89-8.05,2.89-2.19.8-4.47,1.34-6.57,2.37-1.95.95-3.34.49-4.11-1.6Z"/>
  <path class="cls-27" d="M651.94,340.35c13.21-5.06,26.41-10.16,39.64-15.18,23.29-8.83,46.59-17.61,69.9-26.38,1.19-.45,2.32-1.24,3.71-.94.55.27,1.1.55,1.65.82-13.99,5.33-27.96,10.7-41.96,16-22.61,8.56-45.24,17.08-67.87,25.6-1.09.41-2.24.68-3.37,1.02-.67-.13-1.35-.23-1.71-.94Z"/>
  <path class="cls-70" d="M749.03,255.35c.15-1.11,1.81-1.19,1.7-2.62-2.32-.05-4.86,1.03-6.46-2.01-.69-1.32-2.38.04-3.51.44-31.13,11.11-62.24,22.28-93.36,33.41-5.44,1.94-10.92,3.77-16.38,5.65-.8.17-1.71.56-1.72-.86,13.51-4.92,27-9.88,40.53-14.75,23.74-8.53,47.5-17.02,71.26-25.48,1.18-.42,2.32-1.24,3.71-.88.59,5.45,5.14,2.84,8.26,3.8-1.12,1.68-2.1,3.02-4.01,3.3Z"/>
  <path class="cls-78" d="M652.66,326.22c14.85-5.43,29.68-10.89,44.55-16.27,19.65-7.11,39.32-14.16,58.99-21.19,1.71-.61,3.14-1.47,4.44-2.75,1.66-1.63,3.08-3.59,5.34-4.51-1,2.24-3.24,3.35-4.68,5.18-.6.76-1.95,1.26-1.22,2.59.61,1.13,1.64,1.62,2.96,1.51,2.68-.23,5.36-.41,8.04-.61-3.88,1.26-7.71,2.73-11.69.11-1.36-.9-2.73.27-4.01.72-31.76,11.41-63.5,22.86-95.26,34.29-1.88.68-3.81,1.21-5.71,1.81-.81.17-1.75.57-1.75-.88Z"/>
  <path class="cls-104" d="M815.57,293.54c.33.07.66.13,1,.2-5.05,3.19-10.59,3.43-16.29,2.69-3.84-.5-7.72-.75-11.53-1.42-6.46-1.15-12.54-.15-18.46,2.5-.84.37-1.8.46-2.71.67,5.84-3.47,11.95-5.44,18.92-4.29,5.42.9,10.93,1.28,16.4,1.86,4.43.48,8.63-.43,12.67-2.22Z"/>
  <path class="cls-111" d="M749.16,229.17c-1.04,3.12-2.08,6.24-3.18,9.52,2.83.82,4.96-.97,7.33-1.23,1.44-.16,3.12-1.53,4.18.24,1.07,1.8-1.03,2.59-1.85,3.75-.19.26-.57.38-.86.57-.46-1.75,2.03-2.24,1.67-4.14-3.44-.02-6.45,1.78-9.78,2.19-2.22.27-2.6.09-1.53-2.07.92-1.85,1.63-3.87,1.78-6.01.1-1.41.83-2.39,2.23-2.81Z"/>
  <path class="cls-103" d="M756.08,253.88c0,1.15-1.69,1.33-1.49,2.68,3.27-.38,6.52-.78,9.78-1.13,1.34-.14,2.75-.07,3.11,1.56.34,1.51-.46,2.46-2.02,2.7-.26-1.14,2.11-1.58.83-2.93-.84-.89-1.99-.43-3.01-.32-3.58.36-7.16.74-11.28,1.17,1.16-2.08,2.39-3.14,4.08-3.72Z"/>
  <path class="cls-51" d="M748.43,244.15c-1.17-1.39-2.54-.64-3.88-.4-1.72.32-3.51.7-5.16-.02-1.78-.77-2.88-1.89-.38-3.29-.98,2.49.64,2.86,2.42,2.72,2.09-.16,4.15-.59,6.22-.91.65-.1,1.52-.65,1.89.07.45.89-.35,1.45-1.11,1.83Z"/>
  <path class="cls-104" d="M765.36,297.2c.84-2.26,3.1-2.24,4.86-3.03-.89,2.17-3.23,2.04-4.86,3.03Z"/>
  <path class="cls-51" d="M739.8,239.7c-.55-.85-1.5-.5-2.25-.76,1.36-.61,2.61-1.99,4.27-.67-.76.36-.91,1.57-2.02,1.43Z"/>
  <path class="cls-57" d="M459.87,407.77c-4.25,1.26-8.48,2.53-11.31,6.34,0,0,.02-.01.02-.01-1.33,1.07-2.49,2.3-3.61,3.58l.03-.04c-.46,1.15-1.36,1.98-2.14,2.89l.03-.04c-1.37,1.95-2.75,3.88-4.24,5.74-5.76,7.48-10.4,15.71-15.64,23.53-4.31,6.43-8.15,13.28-16.29,15.34-6.18,1.56-12.56,2.2-18.96,1.75-3.17-.22-6.31-.89-9.48-1.16-13.04-1.12-22.64-8.07-31.43-17.25-16.1-16.81-22.8-36.56-20.05-59.52,1.08-9.06,3.58-17.55,9.49-25.07,6.46-8.22,13.93-13.76,24.59-14.87,12.19-1.26,23.78.03,35.44,4.24,10.21,3.68,20.94,5.41,31.72.5,4.15-1.89,8.62-3.15,12.58-5.51,2-1.19,2.11-.24,2.13,1.4.05,5.1.67,10.12,2.31,14.98,1.29,2.64.22,4.37-2.16,5.59-7.55,4.36-14.64,9.52-22.7,12.98-7.05,3.03-14.4,5.14-21.86,6.9-1.2.28-2.22,0-3.39-.42-9.73-3.46-19.7-4.63-29.93-2.79-1.15.21-2.3.56-3.38,1.03-1.77.77-2.86,2.16-2.73,4.15.12,1.9,1.47,3.01,3.16,3.39,1.94.44,3.96.65,5.95.72,7.8.27,15.57-.08,23.2-1.87,2.23-.53,3.79-.22,4.8,2.19,1.02,2.44-.28,3.5-2.01,4.51-6.95,4.07-13.55,8.57-18.72,14.87-1.18,1.44-2.67,2.68-3.24,4.57.38,5.26,1.53,6.01,6.38,4.14,2.99-1.15,5.32-3.28,7.71-5.3.24-.22.5-.41.77-.59,2.13-1.4,4-3.06,5.19-5.37.23-.43.54-.8.9-1.13,2.57-1.79,3.08-5.19,5.51-7.09.75-2.53,2.5-3.95,4.86-5.08,12.46-5.98,25.48-9.8,39.31-10.6,1.06-.06,2.12.03,3.18.07,5.98.23,11.28,1.34,14.2,7.67,1.45,3.14,4.04,5.78,6.92,7.93-.1,2.09-1.84,1.16-2.85,1.52-1.39.48-2.83.82-4.25,1.22Z"/>
  <path class="cls-142" d="M465.57,369c1.37,5.61,3.45,10.99,5.41,16.41,1.49,4.12,2.5,8.34,2.51,12.76,0,1.29-.11,2.55-.75,3.76-1.72,3.23-2.07,3.25-4.74.72-6.2-5.87-10.14-13.26-13.81-20.76-2.87-5.87-5.15-12.03-7.7-18.06-.8-1.86.15-3.89-.56-5.76-.75-4.39-.95-8.79-.21-13.21.24-1.41-.49-3.14,1.44-3.93,1.8-.73,2.31,1.18,3.5,1.69.93.61,1.71,1.39,2.4,2.25.21.25.38.52.54.8.97,2.22,2.83,3.97,3.42,6.39.07,1.07.59,1.91,1.33,2.64,2.97,4.48,5.21,9.32,7.22,14.28Z"/>
  <path class="cls-141" d="M461.36,346.21c9.52,12.23,15.84,25.94,18.81,41.15.97,4.99,1.59,10.06.31,15.11-.61,2.4-1.65,4.53-4.62,4.53-1.22,0-2.22-.43-1.41-1.95,3.18-5.99,1.95-12.13-.09-17.9-3.69-10.43-6.48-21.26-12.36-30.83-.37-.59-.78-1.16-1.18-1.73-1.01-1.04-1.45-2.4-2.13-3.63l.03.04c-2.25-1.83-3.63-4.28-4.9-6.82-.38-.78-.7-1.57-.56-2.46.3-2.51,1.43-1.07,2.37-.5l.18-.11c2.4,1.1,4.13,2.92,5.54,5.09Z"/>
  <path class="cls-134" d="M451.62,384.37c.18-.02.34.04.48.16.08,1.56-1.01,1.6-2.11,1.65-1.64.07-3.28-.14-4.91.14-3.85.56-7.74-.06-11.59.35-.56.2-1.14.22-1.72.21-9.11,1.34-17.98,3.52-26.29,7.62-1.27.63-2.64.99-3.94,1.52-1.22.5-2.04-.04-2.45-1.26-.47-1.41.65-1.62,1.51-1.82,4.37-1.02,8.56-2.63,12.87-3.8,8.54-2.31,15.79-7.24,23.48-11.26,2.58-1.35,5.21-2.73,7.56-4.53,1.51-1.16,2.28-.5,2.9.99,1.38,3.35,2.77,6.7,4.22,10.01Z"/>
  <path class="cls-160" d="M393.39,412.77c-.22.24-.45.48-.67.72-1.61,2.19-3.71,3.92-5.62,5.82l.05-.04c-2.06.41-1.94-.62-1.13-1.86.9-1.38,2.22-2.42,3.36-3.6.97-1.01,2.07-1.93,2.55-3.32.41-.92.89-1.8,1.62-2.52.7-.74,1.54-1.39,1.71-2.86-2.92,1.44-5.55,2.91-7.55,5.31-3.26,3.83-7.22,6.99-10.34,10.92.63,1.39,1.64.02,2.42.33.8-.05,1.81-.43,2.16.56.37,1.04-.72,1.29-1.38,1.7-1.3.82-2.76,1.32-4.22,1.72-3.79,1.03-4.98-.27-4.1-4.35,5.56-8.04,12.93-14.08,21.37-18.8,3.22-1.8,4.78-3.82,3.32-7.45,1.44,3.67,3.83,3.46,6.83,1.9,9.15-4.74,19.03-7.17,29.13-8.78,1.88-.3,3.84-.04,5.77.08-12.35,2.29-24.58,4.79-35.8,10.83-2.62,1.41-4.78,2.77-5.24,5.89-.32,3.2-2.69,5.28-4.25,7.8Z"/>
  <path class="cls-119" d="M451.62,384.37c-2.21-2.54-2.9-5.82-4.19-8.8-.88-2.03-1.55-2.51-3.78-1.15-13.07,7.99-26.39,15.49-41.65,18.67-.78.16-2.89-.15-2.19,1.76.62,1.7,2.12.62,3.02.18,6.88-3.43,14.17-5.65,21.63-7.36,2.39-.55,4.76-1.36,7.27-1.07.16.17.21.34.13.49-.07.14-.14.22-.2.22-10.14,1.77-19.98,4.47-29.28,8.99-.97.47-2.12,1.72-3.35,0-1.74-2.43-1.53-3.32,1.42-3.94,13.3-2.8,25.48-8.28,36.98-15.39,2.6-1.61,5.26-3.13,7.84-4.76,1.04-.66,1.75-.66,2.12.61,1.16,3.94,3.67,7.4,4.21,11.57Z"/>
  <path class="cls-72" d="M389.18,391.89c-9.18,1.31-17.34,1-25.5.33-.57-.05-1.35-.13-1.4-.81-.08-1.07.92-1.24,1.67-1.45,4.85-1.39,9.82-.9,14.75-.88,3.33.02,6.56.45,10.48,2.81Z"/>
  <path class="cls-65" d="M408.97,465.96c-1.51,2.04-3.91,1.43-5.88,1.77-14.84,2.57-29.13.35-42.98-5.31-2.24-.92-3.87-2.54-5.09-4.68,2.12.84,3.4,2.88,5.46,3.88,7.19,3.51,15.01,4.34,22.7,5.79,8.75,1.65,17.23-.36,25.79-1.46h0Z"/>
  <path class="cls-161" d="M392.57,410.41c-.47,3.35-3.73,4.49-5.41,6.88-.4.57-2.4,1.32-.02,1.99-2.98,3.25-6.45,5.78-10.78,6.82-1.55.38-3.52.68-4.57-.85-1.02-1.47-1.02-3.3.26-4.86.07.31.13.61.2.92-.09,4.23.72,4.86,4.64,3.68,1.69-.51,3.3-1.16,4.75-2.36-.94-.88-1.74.43-2.55,0-.13-.33-.11-.65.04-.96,3.82-3.19,7.67-6.35,11.07-10.02.62-.67,1.33-1.32,2.38-1.25Z"/>
  <path class="cls-65" d="M326.79,382.29c-1.29,6.23-1.65,12.53-1.43,18.88.25,7.17.76,14.27,3.9,20.9.29.61.25,1.37.37,2.06-3.62-4.83-4.14-10.67-4.85-16.31-.91-7.32-.82-14.7.62-22,.25-1.25.43-2.55,1.39-3.53h0Z"/>
  <path class="cls-160" d="M390.55,392.93c.87-2.02-.64-2.38-1.99-2.9-4-1.55-8.1-2.33-12.42-2.1-2.92.16-5.86.03-9.7.03,6.68-1.65,19.64-.44,26.92,2.22,2.26.82,4.99,1.34,3.57,4.88-1.78-1.76-3.88-2.52-6.38-2.13Z"/>
  <path class="cls-160" d="M360.12,390.18c1.52,3.23,3.93,3.43,6.37,3.44,6.35.04,12.71.01,19.69.01-3.17,1.71-5.98,1.4-8.74,1.41-4.13.01-8.25.09-12.38-.03-2.6-.08-4.82-.9-4.94-4.83Z"/>
  <path class="cls-82" d="M482.6,385.16c.89,1.33,1.96,1.64,3.51,1,2.33-.95,4.76-1.68,7.15-2.51.43.49,1.31.14,1.62.86-2.19.83-4.33,1.88-6.59,2.45-3.41.86-4.75,2.56-4.2,6.23.44,2.94.79,6.08-.68,8.97.21-5.69.04-11.36-.8-17.01Z"/>
  <path class="cls-65" d="M453.53,341.98c.36.62.98,1.13.81,1.97.39.73.66,1.54-.13,2.09-.54.37-1.02-.18-1.43-.55l.03.04c-.1-1.14-1.8-1.57-1.32-2.97-1.14-2.45-3.24-2.95-5.66-2.79.51-.65,1.02-1.31,1.54-1.96,1.83,0,3.67,0,5.56,0-.81,1.01-2.03.08-3.08.83.63,1.44,1.72,2.45,3.12,3.2.27-.29.46-.25.57.14Z"/>
  <path class="cls-133" d="M452.77,345.49c1.67.65,1.53-.53,1.57-1.54,1.46,2.35,2.91,4.71,4.37,7.06-1.02-.37-1.66-.13-1.69,1.07-1.79-1.95-3.31-4.08-4.25-6.59Z"/>
  <path class="cls-135" d="M476.94,345.34c-2.31.85-4.62,1.71-6.94,2.55-1.21.44-2.6.7-2.27,2.52-1.19-.61-1.58-1.78-2.05-2.9,3.44.35,5.88-2.43,9.07-2.87.84-.11,1.93-.99,2.19.7Z"/>
  <path class="cls-65" d="M403.65,353.79c7.21.47,14.08,2.12,20.87-.47-3.63,2.61-14.38,2.84-20.87.47Z"/>
  <path class="cls-65" d="M341.59,445.24c3.78,3.78,7.56,7.56,11.34,11.34l.74-.76c-3.94-3.77-7.88-7.55-11.82-11.32-.09.25-.17.49-.26.74Z"/>
  <path class="cls-133" d="M465.57,369c-2.41-4.76-4.81-9.52-7.22-14.28,3.74,4.08,5.93,8.96,7.22,14.28Z"/>
  <path class="cls-65" d="M362.99,347.03h16.73c0,.09,0,.18,0,.27h-16.73c0-.09,0-.18,0-.27Z"/>
  <path class="cls-65" d="M444.72,343.15c-.86,3.6-.02,7.23-.53,10.92-1.7-2.63,1.3-6.1-1.96-8.15.83-.92,1.66-1.84,2.49-2.76Z"/>
  <path class="cls-56" d="M431.67,387.3c.02-.23.04-.47.07-.7.45-.04.89-.09,1.34-.13,3.7-.58,7.42-.13,11.12-.26.45-.04.8.13,1.05.51-4.5.68-9.05.45-13.57.59Z"/>
  <path class="cls-65" d="M343.15,354.22c-2.09,1.97-4.17,3.95-6.26,5.92,1.84-2.2,3.67-4.41,6.26-5.92Z"/>
  <path class="cls-161" d="M393.39,412.77c1.42-2.6,2.83-5.2,4.25-7.8.29.02.58.05.87.07-1.17,2.93-2.45,5.78-5.11,7.72Z"/>
  <path class="cls-65" d="M331.04,427.67c1.17,2.34,2.33,4.69,3.5,7.03-2.16-1.9-3.62-4.11-3.5-7.03h0Z"/>
  <path class="cls-65" d="M326.79,382.29c.12-2.96-.64-6.11,2.06-8.53-1.83,2.61-.71,5.83-2.05,8.53h0Z"/>
  <path class="cls-127" d="M461.36,346.21c-1.85-1.7-3.7-3.39-5.54-5.09,2.97.48,4.66,2.35,5.54,5.09Z"/>
  <path class="cls-74" d="M442.88,370.17c1.77-1.46,2.85-3.18,2.16-5.59,1.91,3.4,1.62,4.14-2.16,5.59Z"/>
  <path class="cls-56" d="M445.19,385.88c2.31-.43,4.96.96,6.91-1.35.2,1.56.22,1.71-.86,1.83-1.98.22-3.99.24-5.99.35-.12-.14-.23-.28-.35-.41,0-.21.1-.35.29-.42Z"/>
  <path class="cls-65" d="M435.86,348.87c-1.89,2.06-3.98,2.8-6.45,2.49l6.45-2.49Z"/>
  <path class="cls-83" d="M438.66,426.22c.9-2.3,2.34-4.19,4.24-5.74-.27,2.46-2.58,3.71-3.45,5.82-.26-.02-.53-.05-.79-.08Z"/>
  <path class="cls-62" d="M453.53,341.98c-.2-.01-.39-.06-.57-.14-.36-.82-.73-1.65-1.1-2.5,1.22-.56,2.01.49,3,.66.26.41.51.82.77,1.23-.78.03-1.95-1.03-2.1.75Z"/>
  <path class="cls-65" d="M346.64,352.46c.93-1.78,2.53-2.22,4.38-2.17l-4.38,2.17Z"/>
  <path class="cls-65" d="M341.67,444.69c-1.32-.88-2.66-1.75-2.83-3.55,1.32.88,2.66,1.75,2.83,3.55Z"/>
  <path class="cls-74" d="M445.92,358.07c1.14,1.83.44,3.83.56,5.76-1.37-1.8-.53-3.83-.56-5.76Z"/>
  <path class="cls-65" d="M338.84,441.18c-1.1-.72-2.1-1.51-2.43-2.93,1.18.6,2.35,1.22,2.43,2.93Z"/>
  <path class="cls-133" d="M458.68,350.96c1.14.95,1.78,2.21,2.13,3.63-1.6-.69-2.09-2.02-2.13-3.63Z"/>
  <path class="cls-133" d="M451.49,342.56c.37,1.02,1.63,1.65,1.32,2.97-1.11-.67-1.79-1.66-2.15-2.89.28-.03.55-.05.83-.08Z"/>
  <path class="cls-65" d="M329.62,424.13c1.13.92,1.46,2.16,1.42,3.55h0c-1.12-.92-1.46-2.16-1.42-3.55Z"/>
  <path class="cls-65" d="M394.64,351.38c1.1-.49,1.74.15,2.5.74-1.14.62-1.8.03-2.5-.74Z"/>
  <path class="cls-65" d="M435.47,348.98c1.46-.78,2.16-1.67,3.39-1.15-.77,1.12-1.88,1.1-3.39,1.15Z"/>
  <path class="cls-65" d="M356.66,348.04c1.56-.63,2.44-.58,3.41-.28-.87.92-1.81.4-3.41.28Z"/>
  <path class="cls-65" d="M404.08,353.83h-2.79c-.03-.17-.08-.3-.05-.31,1.03-.61,1.93-.29,2.84.31Z"/>
  <path class="cls-160" d="M390.97,392.81c-1.46.92-2.31,1-3.31.52.95-.75,1.98-.21,3.31-.52Z"/>
  <path class="cls-65" d="M444.74,359c-.5-.74-.44-1.45-.03-2.42.52.92.56,1.64.03,2.42Z"/>
  <path class="cls-83" d="M444.97,417.67c.76-1.64,1.91-2.89,3.61-3.58-.78,1.62-1.95,2.85-3.61,3.58Z"/>
  <path class="cls-83" d="M442.87,420.52c.35-1.23,1-2.25,2.14-2.89.1,1.57-.8,2.39-2.14,2.89Z"/>
  <path class="cls-41" d="M652.66,326.22c.38.7,1.08.76,1.75.88-9.49,3.51-18.96,7.08-28.48,10.52-8.19,2.96-16.44,5.76-24.67,8.64-.82.17-1.75.55-1.75-.9,17.62-6.65,35.3-13.13,53.14-19.13Z"/>
  <path class="cls-88" d="M518.78,374.47c17.63-6.62,35.31-13.1,53.13-19.17.47.48,1.39.1,1.7.89-11.62,4.25-23.22,8.52-34.86,12.72-6.09,2.2-12.24,4.26-18.36,6.39-.81.24-1.63.5-1.62-.84Z"/>
  <path class="cls-31" d="M573.61,356.19c-.65-.14-1.34-.21-1.7-.89,9.11-3.56,18.27-7.01,27.61-9.95.37.71,1.08.77,1.75.9-9.07,3.73-18.33,6.91-27.65,9.95Z"/>
  <path class="cls-47" d="M518.78,374.47c.34.67,1.01.71,1.62.84-5.72,2.61-11.72,4.47-17.69,6.38-.81.22-1.67.56-1.65-.85,5.85-2.28,11.68-4.62,17.72-6.37Z"/>
  <path class="cls-114" d="M501.06,380.84c.34.68,1.01.74,1.65.85-2.5,1.23-5.11,2.17-7.82,2.83-.64-.1-1.29-.17-1.62-.86,2.51-1.19,5.09-2.18,7.8-2.82Z"/>
  <path class="cls-67" d="M629.3,289.36c.37.69,1.06.73,1.72.86-12.27,4.47-24.53,8.96-36.81,13.4-3.54,1.28-7.12,2.42-10.69,3.62-.8.18-1.72.58-1.69-.86,15.73-5.94,31.52-11.71,47.47-17.01Z"/>
  <path class="cls-101" d="M555.85,317.16c-13.12,5.03-26.35,9.75-39.69,14.17-.77.19-1.68.64-1.63-.82,13.13-5,26.32-9.79,39.65-14.24.67.09,1.34.16,1.67.89Z"/>
  <path class="cls-95" d="M555.85,317.16c-.65-.11-1.32-.2-1.67-.89,9.13-3.54,18.29-6.98,27.65-9.9.36.69,1.04.74,1.69.86-9.09,3.67-18.34,6.9-27.66,9.92Z"/>
  <path class="cls-47" d="M514.53,330.51c.35.66,1,.71,1.62.82-9.08,3.7-18.37,6.84-27.67,9.93-.81.23-1.68.58-1.61-.86,9.16-3.46,18.3-6.97,27.66-9.89Z"/>
  <path class="cls-82" d="M486.88,340.4c.32.69.98.74,1.61.86-3.7,1.79-7.56,3.11-11.54,4.09-.55-.8-1.43-.56-2.19-.7,4.04-1.41,8.08-2.83,12.12-4.24Z"/>
  <path class="cls-58" d="M500.36,353.22c-3.84,7.07-1.73,15.92,6.23,19.22,1.48.61,1.9,1.9,2.44,3.03-5.97,3.23-12.72,4.07-18.71,7.11-3.44,1.75-5.18.36-6.52-3.51-3.15-9.11-6-18.38-11.35-26.55-1.83-2.8.2-3.42,2.21-4.11,10.65-3.65,21.43-6.99,31.81-11.38,3.66-1.55,7.66-1.84,11.23-3.74,2.4-1.28,3.76-.06,3.36,2.63-.19,1.28-.11,2.68.63,3.35,2.61,2.4.7,4.13-.81,5.59-1.24,1.2-2.64,1.98-1.77,4.03.86,2.02,2.33,3.54,4.47,3.53,4.41-.02,6.06,3.64,8.57,6.08.73.7,1.05,2,2.27,1.74,4.49-.96,9.73.15,12.71-5.05,1.06-1.85,3.32-2.05,4.73-.09,1.35,1.87,2.12,1.82,3.29-.07.93-1.52,2.91-1.37,4.29-2.27.96-.62,1.19-1.38,1.15-2.37h0c3.38,1.08,6.2.71,8.97-2,1.47-1.44,3.87.67,6.05.45,1.72-.18,1.98-.65,1.97-1.99-.92-5.08-4.19-8.84-7.3-12.62-1.18-1.43-3.06-1.8-4.8-.79-2.42,1.41-5.21,1.68-7.73,2.77-2.43-.35-2.85-2.01-2.88-4.12-.02-1.29.73-2.95-1.12-3.71-1.35-.56-1.18-3.61-3.15-2.55-1.85,1-3.67,2.74-4.59,4.61-.82,1.66.82,3.27,2.39,4.25,1.18.74,2.36,1.82,1.81,3.05-.49,1.07-2.16,1.27-3.46,1.27-2.33,0-4.43-2.43-4.37-4.95.06-2.4-4.53-6.23-6.71-5.47-1.27.45-2.29,1.42-1.77,3,.31.95.38,1.76.05,2.73-.55,1.59,0,4.22-2.2,4.32-2.46.12-1.26-2.5-1.74-3.88-.04-.11-.12-.23-.11-.33.19-1.92-3.89-2.71-1.58-4.92,1.26-1.2,3.39-1.79,5.1-2.19,7.11-1.66,13.85-4.5,20.58-7.06,5.67-2.16,11.64-3.45,17.11-6.11,7.98-3.88,16.9-5.03,24.98-8.53,4.11-1.78,8.52-2.68,12.5-4.62,3.75-1.83,7.7-2.56,11.81-3.66-.53,1.44-1.41,2.15-2.52,2.6-3.43,1.38-4.77,3.8-3.69,7.31.66,2.14.59,3.34-1.86,4.32-3.1,1.23-3.64,6.25-1.3,9.15,1.95,2.42,4.62,4.09,6.24,6.96.89,1.58,3.32,1.53,4.94-.09.83-.83,1.71-1.66,2.35-2.64,1.62-2.5,4.16-2.88,6.74-3.83,3.71-1.36,6.67-1.38,10.48-.12,3.18,1.05,5-3.1,7.43-4.92.68-.51.96-2.2,1.9-1.75,4.45,2.14,4.98-3.4,8.05-3.97.95-.18.39-1.38.13-2.16-.66-2.01.33-2.46,1.89-1.67,3.3,1.67,6.86.4,10.27,1.15,3.48.78,6.55.14,9.13-3.27,1.77-2.34,5.26-.11,8.01-.49,3.54-.49,5.8-1.95,5.9-4.94.12-3.75-.55-4.35-4.38-4.04-2.31.19-3.32-.79-3.47-3.27-.34-5.41-.89-10.85-4.69-15.22-1.03-1.19-.05-1.45.69-2.1,2.69-2.36,6.23-2.22,9.33-3.35,7.71-2.81,15.52-5.38,23.17-8.35,4.15-1.61,8.45-2.8,12.62-4.37,4.03-1.51,7.92-3.49,12.15-4.51,2.98-.72,6.64,1.12,6.05,3.87-1.09,5.09,2.2,5.6,5.71,6.57-.91,1.53-3.37,1.04-3.42,3.47-.07,3.62,1.35,5.71,5.23,6.04,2.64.23,5.13.22,1.85,3.51-.98.98-.73,2.15.05,3.22.76,1.05,1.37,2.29,3.08,1.42.7-.36,1.56-.59,2.22.25-2.82,4.89-8.16,5.57-12.7,7.19-13.56,4.83-27.26,9.3-40.65,14.59-6.76,2.67-13.52,5.22-20.61,6.98-3.21.8-6.12,2.82-9.4,3.82-5.15,1.57-10.34,3.13-15.25,5.3-11.24,4.98-23.28,7.71-34.49,12.82-4.67,2.13-9.88,3.34-14.79,5.17-12.14,4.52-24.29,9.02-36.48,13.34-8.79,3.11-17.33,7.16-26.58,8.93-1.7.33-2.96,1.43-4.39,2.19-5.67,3.04-12.19,3.54-17.97,6.31-3.27,1.56-6.96,2.24-10.33,5.03.27-2.28.76-3.47,2.39-4.44,2.95-1.74,4.55-6.53,3.62-9.79-1.77-1.06-3.02-3.14-5.83-1.57-1.19.67-1.34-1.54-1.39-2.61-.12-2.64-1.09-4.84-3.09-6.51-3.6-3.01-7.71-2.3-10.21,1.65-.61.96-.81,2.28-2.16,2.66Z"/>
  <path class="cls-58" d="M674.11,278.14c-1.44,3.33.76,6.74-.98,9.98-.52.97,2.15,1.62,2.3,3.27.08.88.95,1.84-.19,2.53-1.13.69-1.96-.26-2.26-1.03-1.3-3.32-3.52-4.53-7.13-4.29-3.42.23-5.56,2.11-7.02,4.64-.98,1.71-1.72,1.13-2.7.58-4.58-2.58-6.51-2.15-9.2,2.12-1.38,2.19-2.65,3.43-5.87,2.45-2.92-.88-6.3.15-8.27,3.2-1.42,2.2-2.51,1.98-3.87-.12-4.09-6.29-4.25-6.63,3.01-8.98,10.93-3.55,21.37-8.5,32.52-11.37,3.16-.81,5.74-3.37,9.64-2.97Z"/>
  <path class="cls-13" d="M541.55,339c.42.99.85,1.98,1.27,2.97,1.51.21,2.27-1.31,3.58-1.55,2.86-.29,4.14,1.8,5.58,3.67,1.96,1.48,3.15,3.48,3.64,5.85.25,1.18,0,2.38-1.09,3.16-1.28.92-2.18.08-3.08-.73-1.12-2.25-1.95-4.69-3.78-6.68-1.06,1.16-.62,2.25-.6,3.23.04,2.53,1.02,5.57-3.4,5.23-.33-.03-.73.8-1.09,1.24-2.98,3.68-7,3.9-10.3.47-.97-1.01-1.83-2.18-2.48-3.42-1.21-2.3-2.05-4.94-5.59-3.11-.73.38-1.65-.19-1.96-1.07-.44-1.24.2-2.22,1.29-2.52,2.75-.77,2.22-2.39,1.44-4.32-.75-1.85-1.36-3.77-1.86-5.7-.33-1.25.03-2.44,1.5-2.72,1.28-.25,1.84.66,2.31,1.71,1.15,2.62.9,5.79,3.18,7.96-1.63.91-1.87.91-2.64-.5-.74-1.34-1.07-2.86-1.54-4.25.02,2.7,3.12,5.24.59,8.19-.35.4-.14.62.27.66,3.58.37,3.73,3.9,5.43,5.98,1.91,2.34,3.87,4.06,7.7,2.71-5.05.88-9.02-2.74-9.32-7.84.24-.24.52-.39.86-.44,1.56.23,1.84,1.65,2.54,2.69.97,1.44,1.76,3.43,3.98,2.63,2.1-.76,2.55-2.58,2.01-4.67-.12-.45-.16-.93-.21-1.4-1.22-3.78-2.08-7.65-3.29-11.43-.39-1.2-.96-2.74.6-3.37,1.75-.71,2.09,1.05,2.52,2.17.66,1.72.96,3.58,1.94,5.19Z"/>
  <path class="cls-137" d="M685.23,301.49c-1.57-.28-2.67-2.02-4.81-.72-1.65,1-2.75-.69-2.11-2.26.91-2.21-.06-3.86-.85-5.68-1.23-2.82-2.23-5.73-2.12-8.85.08-2.33-.09-5.2,2.96-5.65,2.86-.42,3.51,2.26,4.24,4.35,1.05,3.04,1.4,6.2,1.05,9.4-.17,1.58-.15,3.05,1.09,4.24,1.16,1.39,2.56,1.6,4.15.86h0c1.41-.71,2.73-.37,3,1.1.31,1.7-1.2,2.73-2.55,3.27-1.24.5-2.7.45-4.04-.08Z"/>
  <path class="cls-147" d="M666.78,290.11c2.49-.32,3.94.79,4.79,3.61.95,3.19,1.07,7.16,5.36,8.41.82.24.78,1.41.37,2.2-.68,1.32-2.1,2.15-3.21,1.41-2.18-1.44-3.97-.72-6.12-.08-2.57.77-4.99-.14-6.43-2.53-2.04-3.37-2.07-6.96-.39-10.49,1.05-2.2,3.04-2.81,5.63-2.54Z"/>
  <path class="cls-91" d="M617.31,309.18c-.46-1.58-.96-3.14-1.35-4.73-.3-1.24-.15-2.43,1.29-2.85,1.23-.36,2.12.36,2.51,1.42,2.05,5.64,4.15,11.29,4.37,17.36.08,2.23-.36,4.67-2.97,5.47-2.44.75-3.93-1.02-5.32-2.64-1.78-2.07-2.93-4.53-3.99-7.03-.48-1.14-.68-2.41.75-3.02,1.39-.59,2.16.39,2.78,1.48,1.04,1.8,2.08,3.59,3.13,5.39,2.22-.4.97-1.92.97-3.04v.03c-.65-2.63-1.45-5.22-2.16-7.83Z"/>
  <path class="cls-38" d="M500.36,353.22c1.09-2.41,1.73-5.16,4.51-6.36,5.09-2.2,11.24,1.63,11.78,7.37.1,1.04.01,2.1.01,3.21,3.96-1.95,4.23-1.85,6.37,2.16-.85,1.9-1.58,3.87-2.59,5.68-1.98,3.55-4.83,6.54-9.08,6.2-4.86-.39-7.72-3.95-9.68-8.24-1.47-3.22-1.43-6.61-1.33-10.02Z"/>
  <path class="cls-138" d="M653.32,294.52c3.1,3.52,4.43,7.69,4.47,12.31.01,2.03-.71,3.77-2.73,4.52-2.15.8-4.09.05-5.26-1.78-2.24-3.49-5.05-6.95-2.72-11.56,2.28-1.03,2.82.79,3.5,2.21.69,1.45.67,3.21,2.1,4.64-.21-2.62-1.47-4.58-2.33-6.69-1.09-2.71.09-4.08,2.96-3.66Z"/>
  <path class="cls-165" d="M530.84,347.53c.49,2.54,2.02,4.48,3.78,6.19,1.37,1.33,3.01,2.45,4.85.46.43-.47,1.06-1.2,1.71-.35.51.66,0,1.32-.47,1.86-1.37,1.56-5.31,1.62-7.06-.09-1.24-1.22-2.49-2.58-3.22-4.13-1.28-2.72-2.6-4.95-7.16-3.31,2.11-2.41,4.55-3.43,3.06-6.39-.97-1.93-2.23-4.11-1.46-6.97,2.21,1.79,2.08,4.33,3.03,6.33.46.96.36,2.63,2.22,1.52l3.36-1.63c1.12-.1,2.31-1.92,3.31-.19.84,1.46-.34,2.6-1.35,3.59-1.34,1.31-3.22,1.83-4.59,3.09Z"/>
  <path class="cls-110" d="M557.76,336.2c2.82-2.87,6.67-3.85,10.26-4,3.24-.14,4.96,3.13,6.33,5.97.7,1.45,1.28,2.94,2.83,3.94,1.93,1.24,1.18,3.07.41,4.73-4.14,1.41-4.66,1.07-9.22-6.52,0,1.99-.01,3.16,0,4.33.03,2.11-.72,3.73-2.93,4.2-2.03.44-2.92-1.02-3.73-2.53-1.71-3.22-3.19-6.53-3.96-10.12Z"/>
  <path class="cls-138" d="M639.83,304.19c-.71.66-2.37.93-1.81,2.15.63,1.37,2.08.34,3.15.23,2.36-.26,4.56-.06,5.83,2.25,1.41,2.56.78,5.05-.84,7.27-1.39,1.91-3.34,2.47-5.63,1.82-1.42-.41-2.87-.95-2.62-2.74.24-1.71,1.68-1.72,3.04-1.49,1.41.24,2.43-.22,2.46-1.71.04-1.66-1.31-1.37-2.31-1.22-2.88.43-5.96.87-7.26-2.5-1.27-3.28.89-5.55,3.27-7.49.48-.44,1.08-.34,1.66-.37,1.09-.04,2.22-.01,2.69,1.17.59,1.49-.56,2.07-1.63,2.63Z"/>
  <path class="cls-153" d="M625.69,308.25c-.01-1.23.11-2.5,1.57-2.75,1.51-.25,1.92.94,2.23,2.15.8,3.15,1.19,6.44,3.75,8.91.95.92.74,2.26-.46,3.01-1.31.81-2.45.23-3.41-.82-1.41-1.53-3.7-8.06-3.67-10.5Z"/>
  <path class="cls-25" d="M559.14,345.48c.02.22.02.43.03.65,1.24,1.86.75,3.16-1.28,3.97-.36.03-.72-.03-1.06-.17-2.82-1.95-3.09-5.18-4.03-8.07-.27-.87-.59-1.72-.79-2.61-.24-1.02-.32-2.09.67-2.8,1.05-.75,1.93-.06,2.78.51,1.58,2.69,2.38,5.71,3.68,8.52Z"/>
  <path class="cls-163" d="M530.84,347.53c.16-2.42,2.67-2.26,3.87-3.54.76-.81,2.16-1.48,1.55-2.79-.62-1.31-1.86.35-2.78-.17,3.85-1.21,3.97-3.59,2.37-6.81-.61-1.23-.53-2.98,1.18-3.55,1.87-.62,2.36.88,2.76,2.31.57,2.01,1.18,4,1.77,6.01-1.42-.78-1.26-2.42-1.93-3.59-.67-1.17-.31-3.85-2.36-3.08-1.79.67-.24,2.7.15,4.02.8,2.69,1.86,5.29,2.84,7.92.33.89.69,1.75.42,2.72-2.26-3.28-4.62-2.64-7.08-.24-.5.49-1.3.51-1.95.77-.26,0-.52.02-.79.02Z"/>
  <path class="cls-61" d="M653.32,294.52c-3.3.56-3.67,1.2-1.95,3.98,1.33,2.14,2.07,4.46,2.52,6.89.1.54.19,1.24-.5,1.52-.71.28-1.07-.32-1.37-.78-1.09-1.69-1.85-3.55-2.15-5.54-.25-1.69-1.17-2.46-2.79-2.57.94-1.07,2.3-1.62,2.95-3.15.58-1.38,2.01-1.92,3.29-.35Z"/>
  <path class="cls-32" d="M552.8,341.86l4.25,7.8c-.99.97-.97,2.36-1.44,3.55-1.61.83-3.22,1.67-4.16-.84,1.05.24,2.15,1.33,3.15,0,.83-1.09.35-2.22-.17-3.29-.81-1.67-1.64-3.33-2.47-5,.88-.52.65-1.45.82-2.22Z"/>
  <path class="cls-84" d="M624.41,298.89c1.36.28,2.07,1.11,2.04,2.46-.03,1.24-.78,2.05-1.98,2-1.53-.06-2.33-1.06-2.19-2.58.11-1.21.94-1.81,2.14-1.88Z"/>
  <path class="cls-75" d="M552.83,330.43c-.15,1.45-.81,2.33-2.2,2.33-1.22,0-1.99-.74-1.96-1.97.03-1.33.82-2.21,2.18-2.25,1.27-.04,1.79.86,1.99,1.89Z"/>
  <path class="cls-33" d="M685.23,301.49c1.37-.14,2.82-.05,4.1-.47,1.05-.34,2.17-1.23,2.02-2.56-.17-1.44-1.56-1.06-2.52-1.26.88-1.27,1.98-1.12,2.94-.26,1.03.93.84,2.15.06,3.13-1.78,2.24-3.94,3.09-6.59,1.42Z"/>
  <path class="cls-110" d="M555.62,353.21c.51-1.17-.84-3.1,1.44-3.55l.16-.08c3.18.63,2-1.95,2.44-3.33,2.22.94,1.18,2.63.94,4.13,0,0,0,0,0,0-1.65.96-4.23.28-4.97,2.83Z"/>
  <path class="cls-110" d="M559.14,345.48c-1.68-2.64-2.95-5.46-3.68-8.52,2.24,2.4,3.16,5.37,3.68,8.52Z"/>
  <path class="cls-106" d="M639.83,304.19c.52-.82,1.92-1.36,1.15-2.63-.94-1.56-2.55-.65-3.87-.8,1.75-1.45,3.64-1.42,4.72.5.86,1.51.23,3.01-2,2.93Z"/>
  <path class="cls-51" d="M617.31,309.18c1.3,2.45,2.14,5.03,2.17,7.83-1.35-2.44-2.23-5-2.17-7.83Z"/>
  <path class="cls-58" d="M634.99,313.8c.7-.03,1.07.44,1.24,1.01.16.58.12,1.26-.71,1.23-.63-.02-1-.54-1.11-1.16-.09-.49.01-.92.58-1.08Z"/>
  <path class="cls-70" d="M559.66,346.25c.63,3.64.26,4.14-2.44,3.33,2.32-.2,1.85-1.99,1.95-3.45.17.03.33.07.49.12Z"/>
  <path class="cls-51" d="M619.48,316.98c.81.94.93,2.17.62,3.19-.5,1.65-1.12.73-1.59-.15,1.17-.74.58-2.04.97-3.04Z"/>
  <path class="cls-125" d="M546.4,340.42c-1.26.36-1.54,2.99-3.58,1.55,1.17-.56,1.96-2.03,3.58-1.55Z"/>
  <path class="cls-33" d="M688.82,297.2c-1.8,1.69-3.11,1.05-4.15-.86,1.35.43,2.6,1.37,4.15.86Z"/>
  <path class="cls-58" d="M676.73,299.37c-.43.19-.73.45-.92.38-.26-.08-.43-.41-.64-.63.24-.14.49-.4.72-.37.24.03.46.32.85.62Z"/>
  <path class="cls-161" d="M387.1,419.31c1.37-2.43,3.41-4.2,5.62-5.82-1.2,2.59-3.14,4.47-5.62,5.82Z"/>
  <path class="cls-119" d="M445.19,385.88c-.06.17-.15.31-.29.42-3.94.06-7.88.11-11.82.17,3.98-1.36,8.08-.36,12.11-.59Z"/>
  <path class="cls-151" d="M392.57,410.41c-4.1,4.27-7.98,8.8-13.38,11.57-1.09.33-2.33,1.27-2.84-.71,3.34-3.94,7.01-7.55,10.75-11.09,1.42-1.63,3.33-2.58,5.1-3.71.81-.52,1.68-1.88,2.65-.6.77,1.02-.15,1.92-1.06,2.56-.41.67-.82,1.33-1.23,2Z"/>
  <path class="cls-161" d="M393.8,408.41c.32-.8.64-1.61,1.3-3.27-3.19,2-5.6,3.52-8,5.03,1.77-3.11,5.03-4.26,7.88-5.94,1.09-.64,1.98-.28,1.34,1.16-.53,1.2-.75,2.8-2.52,3.02Z"/>
  <path class="cls-128" d="M376.35,421.26c.7,1.22,1.89.5,2.84.71,0,.23-.03.45-.11.66-1.1-.1-2.24,1.12-3.27.03-.48-.51,0-1.07.53-1.41Z"/>
  <path class="cls-13" d="M574.63,329.87c-.45-.94-.96-1.85-1.32-2.81-.49-1.31-1.12-2.89.66-3.61,1.78-.72,2.42.75,2.91,2.13.41.32.39,1.17,1.12,1.05.49-.08.61-.57.64-1.03.04-.66.01-1.34.32-1.97.61-1.29.51-2.73.99-4.08.64-1.81,1.52-2.56,3.38-1.85h0c.45,1.23.4,2.46.03,3.69v-.03c-.7,1.82-.66,3.8-1.17,5.67-.86,3.15,1.5,4.56,3.36,6.25.73.6,1.43,1.27,2.49.73.74-.37.63-1.19.93-1.79.5-.98.45-2.61,2.18-2.06,1.54.5,1.03,2.02.89,3.06-.29,2.09-1.49,3.79-3.44,4.58-1.77.73-3.45.17-4.74-1.36-1-1.2-1.78-1.48-2.95.09-1.28,1.71-2.61.94-3.62-.62-1.21-1.88-1.43-4.18-2.67-6.04Z"/>
  <path class="cls-60" d="M701.05,297.4c-1.53.03-2.49-.15-2.84-1.2-.41-1.22.22-2.1,1.34-2.48,3.11-1.03,6.24-2.01,9.39-2.92.97-.28,1.93.1,2.28,1.15.35,1.03-.13,2.02-1.04,2.35-3.18,1.17-6.42,2.18-9.14,3.09Z"/>
  <path class="cls-117" d="M600.94,334.45c-1.2.06-1.91-.25-2.23-1.16-.31-.89-.07-1.74.7-2.16,2.56-1.4,5.16-2.74,7.8-3.99.8-.38,1.63-.05,2.08.8.52.98.15,1.85-.54,2.56-2.21,2.31-5.19,3.08-7.82,3.95Z"/>
  <path class="cls-2" d="M574.63,329.87c1.93,1.32,1.69,3.79,2.89,5.52.99,1.42,2.18,2.34,3.23.56,1.4-2.37,2.28-1.15,3.35.05,1.2,1.35,2.65,2.19,4.37,1.37,1.9-.91,3.01-2.61,3.25-4.75.08-.68.18-1.53-.65-1.83-1.2-.44-1.26.63-1.58,1.35-.32.74-.48,1.62-1.45,1.86.17-.68.36-1.35.51-2.04.3-1.38.43-3.12,2.42-2.69,1.94.41,1.92,2.12,1.66,3.7-.89,5.38-4.88,7.16-9.02,3.93-1.06-.83-1.43-.98-2.37.17-1.56,1.91-3.21,1.2-4.2-.65-1.09-2.05-2.17-4.16-2.41-6.55Z"/>
  <path class="cls-124" d="M585.54,333.28c-4.4-2.62-5.04-6.11-2.18-11.92.02.35.1.7.04,1.03-.72,3.91-2.1,7.95,2.14,10.88Z"/>
  <path class="cls-124" d="M583.32,317.7c-2.03-.11-2.87,1.09-3.23,2.88-.25,1.24-.61,2.45-.91,3.67-.66-.45-.55-1.01-.23-1.6.3-1.38.38-2.85.94-4.11.67-1.52,1.8-2.61,3.44-.84Z"/>
  <path class="cls-52" d="M578.94,322.65c.08.53.15,1.07.23,1.6-.32,1.28.13,2.79-1.1,3.84-1.16-.5-1.35-1.43-1.19-2.52,2.53.33.81-2.35,2.06-2.92Z"/>
  <path class="cls-124" d="M583.36,321.39c-.01-1.23-.02-2.46-.03-3.69,1.49,1.22.92,2.45.03,3.69Z"/>
  <path class="cls-36" d="M531.62,347.51c1.73-2.36,5.09-2.74,6.35-6.08,1.1,2.28,1.89,3.91,2.68,5.55-.33,1.53,2.09,2.83-.02,4.67-3.63,3.15-4.7,3.13-7.28-1.13-.6-.99-1.15-2.01-1.73-3.01Z"/>
  <path class="cls-109" d="M666.01,293.84c2.76.7,2.36,3.41,3.03,5.32.54,1.53-.82,2.5-2.15,2.56-2.59.11-2.85-2-2.98-3.89-.11-1.62-.13-3.36,2.1-3.99Z"/>
  <path class="cls-157" d="M506.75,361.72c1.02,2.21,2.3,4.35,5.02,4.32,2.63-.02,3.52-2.44,4.7-4.3.13-.2.19-.44.31-.64.9-1.49,1.09-4.44,3.59-3.34,2.59,1.13.82,3.49.16,5.23-.72,1.88-1.91,3.51-3.34,4.95-3,3.01-6.8,3.27-10.21.75-4.67-3.46-7.02-11.54-4.9-16.91,1.02-2.59,2.69-4.48,5.67-4.59,3.31-.12,5.55,1.73,7.08,4.45,1.43,2.55,1.46,5.22-.24,7.68-1.51,2.19-3.58,1.87-5.68.96-3.44-2.57-3.48-3.22-.29-5.35.56-.12,1.32.31,1.68-.21.5-.73-.11-1.34-.64-1.78-1.37-1.15-2.35-.65-3.04.83-.77,2.67-.56,5.32.14,7.96Z"/>
  <path class="cls-29" d="M508.85,355.41c-3.61,1.66-1.13,3.26.04,4.88-1.19-.23-2.47-.6-2.15,1.43-1.78-2.74-2.29-5.59-.8-8.63.02,1.96,2.93.29,2.9,2.32Z"/>
  <path class="cls-105" d="M567.16,337.16c0,3.2,0,5.52,0,7.84,0,1.24-.24,2.42-1.65,2.78-1.37.35-2.3-.43-2.82-1.57-1.22-2.67-2.39-5.37-3.48-8.1-.35-.88-.31-1.89.48-2.62.87-.79,1.8-.59,2.48.21.94,1.11,1.12.28,1.63-.4,2.23-2.98,4.63-3.07,7.25-.37,2.46,2.54,3.02,6.36,5.96,8.64.79.61.26,1.8-.57,2.44-.94.73-1.97.73-2.95.05-1.4-.99-2.08-2.52-2.88-3.96-.83-1.49-1.25-3.28-3.47-4.94Z"/>
  <path class="cls-85" d="M639.75,301.96c-.55,1.83-3.85,2.55-2.45,4.86,1.3,2.15,3.55.54,5.41.59,1.9.05,3.2,1.38,3.87,3.15.76,2.01-.21,3.61-1.39,5.12-1.19,1.53-2.81,1.54-4.49,1.23-.57-.1-1.14-.47-1.12-1.16.02-.82.75-.71,1.3-.84.67-.15,1.41-.23,1.98-.57,1.1-.67,1.47-1.77,1.29-3.05-.22-1.53-1.4-1.31-2.43-1.34-.94-.03-1.88-.01-2.82,0-2.35.03-4.35-.61-4.46-3.34-.11-2.62,2.39-4.72,5.33-4.66Z"/>
  <path class="cls-149" d="M508.85,355.41c-.89-.87-3.78.77-2.9-2.32.51-1.59,1.55-2.42,3.17-1.7,1.7.75,3.16,2.2,2.69,4.06-.75,2.95-1.94,0-2.96-.05Z"/>
</svg>