<?xml version="1.0" encoding="UTF-8"?>
<svg id="Capa_1" data-name="Capa 1" xmlns="http://www.w3.org/2000/svg" version="1.1" viewBox="0 0 595.28 841.89">
  <defs>
    <style>
      .cls-1 {
        fill: #cac9c9;
      }

      .cls-1, .cls-2, .cls-3, .cls-4, .cls-5, .cls-6, .cls-7, .cls-8, .cls-9, .cls-10, .cls-11, .cls-12, .cls-13, .cls-14, .cls-15, .cls-16, .cls-17, .cls-18, .cls-19, .cls-20, .cls-21, .cls-22, .cls-23, .cls-24, .cls-25, .cls-26, .cls-27, .cls-28, .cls-29, .cls-30, .cls-31, .cls-32, .cls-33, .cls-34, .cls-35, .cls-36, .cls-37, .cls-38, .cls-39, .cls-40, .cls-41, .cls-42, .cls-43, .cls-44, .cls-45, .cls-46, .cls-47, .cls-48, .cls-49, .cls-50, .cls-51, .cls-52, .cls-53, .cls-54, .cls-55, .cls-56, .cls-57, .cls-58, .cls-59, .cls-60, .cls-61, .cls-62, .cls-63, .cls-64, .cls-65, .cls-66, .cls-67, .cls-68, .cls-69, .cls-70, .cls-71, .cls-72, .cls-73, .cls-74, .cls-75, .cls-76, .cls-77, .cls-78, .cls-79, .cls-80, .cls-81, .cls-82, .cls-83, .cls-84, .cls-85, .cls-86, .cls-87, .cls-88, .cls-89, .cls-90, .cls-91, .cls-92, .cls-93, .cls-94, .cls-95, .cls-96, .cls-97, .cls-98, .cls-99, .cls-100, .cls-101, .cls-102, .cls-103, .cls-104, .cls-105, .cls-106, .cls-107, .cls-108, .cls-109, .cls-110, .cls-111, .cls-112, .cls-113, .cls-114, .cls-115, .cls-116, .cls-117, .cls-118, .cls-119, .cls-120, .cls-121, .cls-122, .cls-123, .cls-124, .cls-125, .cls-126, .cls-127, .cls-128, .cls-129, .cls-130, .cls-131, .cls-132, .cls-133, .cls-134, .cls-135, .cls-136, .cls-137, .cls-138 {
        stroke-width: 0px;
      }

      .cls-2 {
        fill: #46425c;
      }

      .cls-3 {
        fill: #ebeaec;
      }

      .cls-4 {
        fill: #908c8e;
      }

      .cls-5 {
        fill: #988fbb;
      }

      .cls-6 {
        fill: #464450;
      }

      .cls-7 {
        fill: #645e73;
      }

      .cls-8 {
        fill: #575363;
      }

      .cls-9 {
        fill: #c5c3c6;
      }

      .cls-10 {
        fill: #23202b;
      }

      .cls-11 {
        fill: #524e6b;
      }

      .cls-12 {
        fill: #ebeaeb;
      }

      .cls-13 {
        fill: #fcfbfc;
      }

      .cls-14 {
        fill: #8c898e;
      }

      .cls-15 {
        fill: #5d587a;
      }

      .cls-16 {
        fill: #867fb0;
      }

      .cls-17 {
        fill: #2d2c2b;
      }

      .cls-18 {
        fill: #c8c6c6;
      }

      .cls-19 {
        fill: #f1f0f1;
      }

      .cls-20 {
        fill: #cbcaca;
      }

      .cls-21 {
        fill: #555161;
      }

      .cls-22 {
        fill: #8c86c0;
      }

      .cls-23 {
        fill: #d5d3d4;
      }

      .cls-24 {
        fill: #4a4661;
      }

      .cls-25 {
        fill: #b3b1b2;
      }

      .cls-26 {
        fill: #cccaca;
      }

      .cls-27 {
        fill: #3c3b44;
      }

      .cls-28 {
        fill: #a09e86;
      }

      .cls-29 {
        fill: #b2a9d2;
      }

      .cls-30 {
        fill: #d8d7d7;
      }

      .cls-31 {
        fill: #35343a;
      }

      .cls-32 {
        fill: #c3c1c2;
      }

      .cls-33 {
        fill: #d3d3d3;
      }

      .cls-34 {
        fill: #fbfbfb;
      }

      .cls-35 {
        fill: #1c1b1f;
      }

      .cls-36 {
        fill: #09070d;
      }

      .cls-37 {
        fill: #7c75a2;
      }

      .cls-38 {
        fill: #16141e;
      }

      .cls-39 {
        fill: #666369;
      }

      .cls-40 {
        fill: #39373c;
      }

      .cls-41 {
        fill: #3c3a3f;
      }

      .cls-42 {
        fill: #454449;
      }

      .cls-43 {
        fill: #c3c1c3;
      }

      .cls-44 {
        fill: #666186;
      }

      .cls-45 {
        fill: #afabae;
      }

      .cls-46 {
        fill: #857da9;
      }

      .cls-47 {
        fill: #807d7e;
      }

      .cls-48 {
        fill: #524e6c;
      }

      .cls-49 {
        fill: #242425;
      }

      .cls-50 {
        fill: #14111a;
      }

      .cls-51 {
        fill: #c5c3c4;
      }

      .cls-52 {
        fill: #1e1d21;
      }

      .cls-53 {
        fill: #d3d2d2;
      }

      .cls-54 {
        fill: #37363b;
      }

      .cls-55 {
        fill: #b3b1b1;
      }

      .cls-56 {
        fill: #7d7a7f;
      }

      .cls-57 {
        fill: #f6f6f7;
      }

      .cls-58 {
        fill: #29292e;
      }

      .cls-59 {
        fill: #5f5f5f;
      }

      .cls-60 {
        fill: #a8a8a8;
      }

      .cls-61 {
        fill: #a79ec9;
      }

      .cls-62 {
        fill: #08060b;
      }

      .cls-63 {
        fill: #171619;
      }

      .cls-64 {
        fill: #ebe9c4;
      }

      .cls-65 {
        fill: #14121b;
      }

      .cls-66 {
        fill: #08070d;
      }

      .cls-67 {
        fill: #cac9cb;
      }

      .cls-68 {
        fill: #343331;
      }

      .cls-69 {
        fill: #15121c;
      }

      .cls-70 {
        fill: #302e36;
      }

      .cls-71 {
        fill: #f5f5f5;
      }

      .cls-72 {
        fill: #948bb8;
      }

      .cls-73 {
        fill: #010101;
      }

      .cls-74 {
        fill: #373440;
      }

      .cls-75 {
        fill: #968dbc;
      }

      .cls-76 {
        fill: #c8c6c7;
      }

      .cls-77 {
        fill: #53515f;
      }

      .cls-78 {
        fill: #c6c5c5;
      }

      .cls-79 {
        fill: #302f37;
      }

      .cls-80 {
        fill: #e1e0e0;
      }

      .cls-81 {
        fill: #cbc9c9;
      }

      .cls-82 {
        fill: #2d2b3c;
      }

      .cls-83 {
        fill: #dddab8;
      }

      .cls-84 {
        fill: #2e2c34;
      }

      .cls-85 {
        fill: #3e3d3f;
      }

      .cls-86 {
        fill: #252529;
      }

      .cls-87 {
        fill: #3c394f;
      }

      .cls-88 {
        fill: #ada4cc;
      }

      .cls-89 {
        fill: #747083;
      }

      .cls-90 {
        fill: #2a2a2b;
      }

      .cls-91 {
        fill: #333143;
      }

      .cls-92 {
        fill: #adacac;
      }

      .cls-93 {
        fill: #0b090f;
      }

      .cls-94 {
        fill: #8b85bf;
      }

      .cls-95 {
        fill: #212124;
      }

      .cls-96 {
        fill: #b7aed5;
      }

      .cls-97 {
        fill: #bdb4d9;
      }

      .cls-98 {
        fill: #333043;
      }

      .cls-99 {
        fill: #232228;
      }

      .cls-100 {
        fill: #45415a;
      }

      .cls-101 {
        fill: #0b0910;
      }

      .cls-102 {
        fill: #06050a;
      }

      .cls-103 {
        fill: #c0bec1;
      }

      .cls-104 {
        fill: #a299c6;
      }

      .cls-105 {
        fill: #ebe8c4;
      }

      .cls-106 {
        fill: #858585;
      }

      .cls-107 {
        fill: #cbc9ca;
      }

      .cls-108 {
        fill: #403d54;
      }

      .cls-109 {
        fill: #060607;
      }

      .cls-110 {
        fill: #18151f;
      }

      .cls-111 {
        fill: #89868c;
      }

      .cls-112 {
        fill: #343236;
      }

      .cls-113 {
        fill: #403e48;
      }

      .cls-114 {
        fill: #fff;
      }

      .cls-115 {
        fill: #5a5576;
      }

      .cls-116 {
        fill: #d3d1d4;
      }

      .cls-117 {
        fill: #b8b6b6;
      }

      .cls-118 {
        fill: #1e1d1d;
      }

      .cls-119 {
        fill: #898888;
      }

      .cls-120 {
        fill: #999899;
      }

      .cls-121 {
        fill: #353439;
      }

      .cls-122 {
        fill: #a6a4a5;
      }

      .cls-123 {
        fill: #030303;
      }

      .cls-124 {
        fill: #e2e1e3;
      }

      .cls-125 {
        fill: #bdbcbc;
      }

      .cls-126 {
        fill: #343143;
      }

      .cls-127 {
        fill: #c4c2c2;
      }

      .cls-128 {
        fill: #cac8c8;
      }

      .cls-129 {
        fill: #79767c;
      }

      .cls-130 {
        fill: #434147;
      }

      .cls-131 {
        fill: #2e2c3c;
      }

      .cls-132 {
        fill: #c1bfbf;
      }

      .cls-133 {
        fill: #abaaaa;
      }

      .cls-134 {
        fill: #08060c;
      }

      .cls-135 {
        fill: #eae7c3;
      }

      .cls-136 {
        fill: #6a609e;
      }

      .cls-137 {
        fill: #514d6b;
      }

      .cls-138 {
        fill: #aba2cc;
      }
    </style>
  </defs>
  <path class="cls-73" d="M181.21,485.23c-3.26,1.87-6.37,4.14-10.45,4.1,2.77-2.5,6.29-4.03,8.69-6.94.4-1.14,2.83-1.56,1.49-3.24-1.24-1.55-2.67-.37-3.9.37-.66.4-1.38.42-2.07.63-1.15.46-2.28.97-3.44,1.38-.7.25-1.6.77-1.85-.58.89-2.08,3.13-2.71,4.73-4.44-1.9,0-3.62-.08-5.33.06-2.22.18-3.86.96-3.9,3.63-.04,2.85-2.94,2.93-4.48,4.34-.99.42-1.97,1.74-3.02.21-1.04-1.51-.82-3.84.36-4.74.58-.44,1.23-.77,1.57-1.46,1-2.18,1.92-4.44,4.66-5.01,3.26-1.71,6.7-2.22,10.32-1.63,5.57,2.43,8.2-2.07,11.18-5.05,5.69-5.7,10.32-12.33,15.38-18.57,2.34-2.89,4.96-5.45,8.16-7.23,5.18-2.88,10.29-5.98,16.08-7.59,12.33-2.13,22.7,1.45,31.09,10.72.67.74,1.25,1.57,2.04,2.21,2.8,2.26,5.15,2.18,7.78-.28,2.16-2.02,4-4.25,5.06-7.06.29-.76.55-1.57,1.41-1.93,1.41.68,1.04,1.91.95,3.05-.65,3.85-2.92,6.74-5.59,9.37-.84.81-1.86,1.34-2.91,1.76-.14.17-.1.17.15.02.13-.08.21-.11.23-.11,1.07-.51,2.13-1,2.84-1.99,2.53-2.88,5.49-5.42,7.03-9.07.27-.64.63-1.53,1.54-1.24,1.09.35,1.14,1.37.88,2.31-.75,2.79-2.15,5.25-4,7.46-1,1.19-2.21,2.2-3.27,3.34-2.42,2.58-5.41,2.79-8.69,2.05,1.82,4.49,7.57,5.72,10.62,2.27,2.74-3.1,5.12-6.47,6.63-10.38.37-.95.4-2.29,1.93-2.31.93.44.93,1.31,1,2.15-1.16,6.19-4.21,11.29-9.12,15.21-2.26,1.81-4.85,2.02-7.5.69-1.06-.53-2.12-1.07-3.4-1.72.03,1.44.23,2.65.54,3.85.89,8.31-.41,16.25-4.44,24.21,5.5-2.48,9.76-5.76,13.42-9.93,9.66-11,15.12-24.08,19.28-37.89,2.83-9.42,4.87-18.98,6.36-28.68.23-1.51.79-3.06-1.63-3.34-.7-.08-1.14-.87-1.2-1.69.61-2.36,2.74-2.31,4.51-2.84,2.4.04,4.64-.41,6.41-2.22,2.49-1.44,5.07-2.59,8-2.74,1.24.1,2.05.71,2.18,2,.12,1.26-.63,2.02-1.61,2.61-1.1.66-2.3,1.38-3.53,1.33-3.01-.12-4.93,1.41-6.49,3.69-.42.38-.9.69-1.39.97-1.18.53-1.36,1.67-1.52,2.72-.69,4.56-1.66,9.07-2.49,13.61-.02.28-.08.54-.19.8-2.24,9.61-4.51,19.22-8.48,28.32-4.74,10.88-10.07,21.35-19.24,29.39-3,2.63-6.14,4.93-9.76,6.54-1.52.67-1.6,1.49-.87,2.73,5.21,7.17,6.27,15.68,7.7,24.06.37,2.16.65,4.34,1.04,6.49.12.68-.51,1.8.85,1.91.95.07,1.81.29,2.75-.56,3.55-3.17,7.28-6.14,10.89-9.24,5.5-4.71,11.1-9.29,17.05-13.42,1.05-.73,2.13-1.44,3.25-2.05,3.25-1.75,5.28-.88,5.96,2.77.55,2.96.73,5.99,1.15,8.98.72,5.07,1.07,10.19,2.25,15.19,1.57,1.95,2.62-.24,3.92-.49,5.3-3.38,10.48-6.98,16.74-8.51,3.23-.79,6.42-1.55,9.56.24,1.94,1.52,2.36,3.25,1.3,5.47-.65,1.36-1.69,2.41-2.94,3.22-6.28,4.09-12.95,6.02-20.36,3.41-.96-.34-1.77-.32-2.61.21-.62.39-1.24.78-1.91,1.09-3.88,1.81-6.96.45-8.02-3.7-1.14-4.45-1.49-9.04-1.86-13.6-.23-2.92-.72-5.81-.68-8.76.03-2.27-.78-2.64-2.71-1.42-4.74,3-8.98,6.68-13.33,10.19-5.07,4.08-10.04,8.29-15.46,11.93-3.69,2.47-6.31,6.11-9.53,9.11-4.15,3.87-8.61,7.29-14.36,8.22-8.23,1.33-15.82-.77-22.84-5.06-4.13-2.52-4.07-2.55-6.46,1.68-2.79,4.95-5.57,9.92-9.07,14.43-.56.73-1.11,1.46-1.76,2.11-2.92,2.92-5.43,3.08-8.33.16-5-5.01-10.49-9.45-15.81-14.09-2.16-1.88-2.2-1.87-2.98.74-1.32,4.43-3.78,8.12-7.26,11.14-1.56,1.36-3.3,2-5.32,1.09-1.49-.67-3.4-3.82-3.32-5.42.05-1.11.69-1.86,1.56-2.45,3.15-3.69,6.24-7.44,8.79-11.57,1.21-1.96,2.73-2.38,4.63-1.46,1.31.63,2.57,1.43,3.68,2.37,6.32,5.3,12.58,10.69,18.37,16.57,1.58,1.61,2.41,1.29,3.63-.19,4.63-5.59,8.2-11.87,12.07-17.97.68-1.63.92-3.32.92-5.08-.03-8.32,0-16.64-.02-24.95,0-3.47-.13-3.57-3.48-3.71-3.22-.14-6.35-.77-9.43-1.67-2.96-.87-3.61-.49-4.44,2.53-1.77,6.2-4.72,11.66-9.86,15.76-1.22.98-2.55,1.76-4.05,2.24-1.05.34-1.95.36-2.41-.77,8.01-4.09,11.68-11.12,13.6-19.39.29-.79.53-1.66-.36-2.12-.33-.17-.48.68-.84.95-1.92,4.45-4.16,8.72-7.89,11.95-1.76,1.53-3.66,3.17-6.33,1.79-.78-1.58.67-1.53,1.44-1.86,1.85-.8,3.16-1.99,3.61-4.34-2.66,1.35-3.5,4.32-6.11,5.21-1.84,1.28-3.68,2.56-5.53,3.84-.66.25-1.26.39-1.23-.66,6.33-5.13,11.52-11.17,14.93-18.64.48-1.14.65-2.31.5-3.63-1.17.23-1.87.94-2.69,1.42-3.18,2.38-6.62,4.28-10.48,5.29-2.53.66-3.31.3-4.91-1.78,5.02-.82,9.45-2.8,13.12-6.34.25-.59.81-.96,1.12-1.49.36-.62.24-1.21-.26-1.71-.46-.46-1-.39-1.47-.08-.84.56-1.81.73-2.72,1.08h.02c-1.33.96-2.78,1.69-4.39,2.01-.96.19-2.03.47-2.47-.87.64-1.86,2.64-2.07,3.91-3.16.89-.76,1.93-1.37,2.78-2.19.47-.46.94-.96.48-1.65-.46-.69-1.14-.59-1.66-.15-.71.6-1.65.66-2.39,1.16Z"/>
  <path class="cls-73" d="M526.59,285.45c.3,1.6-.86,2.53-1.66,3.62-4.74,3.73-9.5,7.42-14.99,10.04-2.01.96-3.7,2.35-5.34,3.83-2.4,1.98-4.79,4-7.41,5.68-3.06,1.96-3.92,5.18-4.78,8.37-2.68,9.86-7.95,18.37-14.86,25.63-5.84,6.15-13.63,8.35-22.16,7.12-4.35-.63-8.75-.78-13.1-1.39-1.87-.26-3.64.25-5.32,1.06-1.25.6-2.53,1.08-3.94,1.12-1.26-.24-2.92,1.19-3.73-.89,0-1.46,1.25-1.79,2.2-2.36.92-.55,1.74-1.21,2.48-1.94-.47-.84-.95.16-1.41,0-.68.15-1.37.21-2.06.22-2.46-.16-5.32.71-6.58-2.54.12-2.89,3.19-3.51,4.46-5.63-1.08-.4-2.07-.02-3.04-.13-.99-.12-2.11,0-2.6-1.13-.5-1.18.11-2.12.85-2.98.95-1.11,2.08-2.05,3.29-3.44-1.59-.25-2.96-.18-4.33.04-.99.16-1.98.37-2.99.33-1.22-.05-2.48-.18-2.89-1.58-.37-1.25.47-2.06,1.34-2.77,1.55-1.26,3.09-2.55,4.94-3.75-1.28-.29-2.35-.13-3.39-.03-1.77.17-3.64.45-4.52-1.56-.92-2.1.41-3.42,2.06-4.56-1.34-.19-2.8.3-3.76-1.02-.39-.87-.67-1.77-.56-2.75.53-1.44,1.92-2.28,2.52-3.66-1.55-1.09-2.98.34-4.51.19-2.41-.24-3.06-.98-2.35-3.13.15-.2.31-.38.49-.55.16-.17.34-.33.52-.47.34-.29.71-.54,1-.88.43-.57.09-1.29.36-1.89.65-1.1,1.58-2.03,1.98-3.27-1.61-.9-3.29.13-4.91-.25-8.42-2.05-10.55-8.07-8.67-15.22.37-1.42.98-3.01,2.84-2.83,1.95.18,2.41,1.79,2.42,3.45,0,2.86,1.04,5.36,2.55,7.72,1.98,3.1,6.22,3.54,8.76.9.44-.46.79-1.02,1.25-1.46,1.3-1.23,1.26-2.1-.58-2.68-4.84-1.53-6.62-6.9-6.18-11.13.18-1.7.84-3.19,2.05-4.4.77-.77,1.74-1.06,2.78-.62,1.1.46,1.38,1.42,1.19,2.51-.17,1-.39,2-.4,3-.03,2.63,1.27,4.52,3.53,5.77,2.11,1.17,4.1,1.21,6.17-.27,1.28-.91,1.52-1.53.41-2.77-2.01-2.24-3.3-4.84-3.23-7.96.06-2.58,1.52-4.64,3.53-4.96,2.39-.38,3.42.83,2.85,3.34-.44,1.98-.41,3.88,1,5.53,2.06,1.62,4.12,1.78,6.6.67,9.54-4.24,19.67-6.11,30.01-6.91,4.13-.32,8.22.08,12.05,1.85,2.97,1.47,4.68,4.4,7.28,6.3.3.31.49.68.63,1.08,1.7,2.3,3.73,4.33,5.95,6.06,3.61,2.81,7.71,3.98,12.39,3.05,4.77-.95,9.46-2.22,14.2-3.3,2.47-.56,5.04-1.23,7.34.62Z"/>
  <path class="cls-109" d="M154.04,481.27c-.35.18-.7.35-1.06.53-7.45,3.41-15.25,3.28-23.13,2.22-1.82-.25-3.6-.78-5.4-1.01-8.47-1.05-15-5.35-20.69-11.48-4.43-4.77-9.2-9.27-12.23-15.12-6.62-12.79-8.66-26.13-5.77-40.46,2.45-12.14,8.95-20.75,19.53-26.67,2.04-1.14,4.26-1.57,6.56-1.91,10.63-1.57,20.91-.83,31.08,3.09,5.43,2.09,11.38,3.38,17.27,1.97,5.69-1.36,11.29-3.2,16.25-6.49.95-.63,1.63-1.47,2.11-2.48.57-1.19,1.32-2.2,2.55-2.77,1.05-.26,2.13-.36,3.2-.53.26,0,.51.03.76.09,1.04.34,2.09.67,3.12,1.05.33.15.63.35.92.56.78.55,1.58,1.07,2.39,1.58,1.88,1.46,3.56,3.12,5.01,5.02.37.54.8,1.02,1.22,1.52,6.18,9.08,10.23,19.06,12.56,29.77.12.43.18.86.22,1.31.21,3.3,1.25,6.6-.09,9.88-.49,1.52-1,3.04-1.8,4.44-1.43,1.97-3.39,2.71-5.76,2.5-1.25-.26-2.33-.87-3.33-1.63-1.14-.7-2.05-1.68-3.13-2.45-3.1-2.27-5.07-5.5-7.25-8.54-.83-1.16-1.75-2.08-3.21-2.38-4.16-.85-8.35-1.3-12.54-.49-8,1.55-15.93,3.31-23.39,6.86-2.71,1.29-4.84,2.79-6.12,5.47-.94.68-1.59,1.6-2.05,2.65-.47.89-1.03,1.71-1.74,2.44-1.79,1.72-3.49,3.54-5.3,5.24-.19.17-.4.32-.61.46-.91.52-1.61,1.31-2.41,1.97-.22.18-.46.33-.71.46-1.21.61-2.39,1.3-3.67,1.74-1.41.49-2.9.75-4.06-.44-1.15-1.19-.87-2.66-.29-4.05.21-.5.47-.98.58-1.51.33-1.09,1.02-1.94,1.81-2.72,3.77-3.76,7.52-7.51,12.37-9.96,1.45-.74,3.71-1.59,2.93-3.71-.84-2.26-3.15-1.37-4.86-1.03-6.44,1.27-12.88,1.92-19.41.75-.91-.16-1.8-.36-2.57-.91-2.4-1.73-2.17-4.63.57-6.29,2.78-1.69,5.98-1.63,9.07-1.93,5.6-.54,10.97.87,16.25,2.4,2.73.79,5.19.61,7.81-.05,10.66-2.68,20.07-7.94,29.17-13.89,2.07-1.36,2.85-2.7,2.04-5.2-.93-2.87-1.29-5.9-1.2-8.96.05-1.73-.73-2.19-2.2-1.31-3.34,2-7.14,2.86-10.7,4.34-3.84,1.59-7.82,1.88-11.89,1.26-4.99-.76-9.92-1.68-14.66-3.59-9.12-3.68-18.58-3.08-27.92-1.32-5.51,1.04-9.66,4.73-13.14,9.02-7.55,9.32-9.19,20.16-8.64,31.77.34,7.16,2.74,13.61,5.29,20.08,1.72,4.35,4.86,7.77,7.8,11.26,3.55,4.21,7.69,7.87,11.97,11.34,1.29,1.04,2.73,1.87,4.34,2.35,9.79,2.89,19.71,4.26,29.9,2.53,5.92-1,9.61-4.84,12.77-9.6,5.37-8.1,10.3-16.48,16.14-24.27.77-1.02,1.47-2.12,2.51-2.9,1.2-.78,2.27-1.71,3.08-2.91,1-1.18,2.23-2.06,3.56-2.82,1.28-.47,2.51-1.07,3.81-1.51.24-.09.49-.15.74-.19.7.02,1.62-.18,1.71.8.07.74-.79.88-1.36,1.11-1.01.4-2.05.72-2.92,1.4-.2.15-.41.29-.63.42-1.43.84-2.53,2.01-3.44,3.37-5.03,6.62-9.67,13.48-14.01,20.57-2.18,3.56-4.79,6.88-6.94,10.48-2.2,1.76-2.86,4.94-5.68,6.13-.95.62-1.92,1.18-3.08,1.31Z"/>
  <path class="cls-26" d="M202.63,437.24c2.08-.09,4.2-.11,5.5-2.17.91-1.44,2.22-2.27,3.83-2.87,5.29-1.97,10.64-3.75,15.89-5.82,2.46-.86,4.91-1.75,7.3-2.77,8.84-3.18,17.61-6.54,26.37-9.89,15.63-5.82,31.25-11.68,46.83-17.62,15.43-5.56,30.71-11.54,46.08-17.28,24.56-9.16,49.06-18.5,73.63-27.65,1.62-.6,3.41-.6,5-1.36.27-.02.59.04.81-.07,6.88-3.67,14.04-1.61,21.01-.7,10.24,1.34,18.37-1.97,24.77-9.82,4.66-5.72,8.14-12.16,11.07-18.9.5-1.15.64-2.46.92-3.71.99-4.54,3.47-7.96,7.5-10.35,1.87-1.11,3.53-2.59,5.28-3.9,2.29-1.58,4.6-3.15,7.12-4.32.74-.34,1.42-1.27,2.43-.56-3.88,3.6-8.09,6.82-11.98,10.43-5.26,4.88-7.99,11.15-10.45,17.52-2.96,7.66-7.77,14.08-12.66,20.47-3.51,4.58-8.65,6.29-14.26,6.61-5.5.31-10.95-.6-16.43-.85-6.43-.3-12.4,1.5-18.36,3.77-14.63,5.59-29.36,10.93-44.05,16.36-21.65,8.01-43.3,16.01-64.95,24.02-.6.22-1.2.45-1.82.63-1.84.55-4.06.55-1.96,3.61.99,1.44.18,3.62-1.45,4.9-1.59,1.25-3.31,2.52-5.27,2.91-5.58,1.1-8.06,4.71-9.19,9.93-.83,3.82-2.12,7.53-3.2,11.29-.46-.94-.38-1.89-.05-2.84l-.02.04c1.18-4.17,1.49-8.53,2.57-12.72.44-1.71.6-3.56,1.91-4.95.3-.18.6-.36.9-.54,2.73-3.33,6.92-3.51,10.59-4.71,1.71-.56,1.48-1.58,1.44-2.71-.05-1.2-.58-1.89-1.92-1.32-2.71.51-5.32,1.33-7.76,2.64-2.25.61-4.37,1.61-6.58,2.33-1.46.73-3.47.41-4.33,2.28-4.82.88-9.25,2.97-13.8,4.65-21.27,7.86-42.56,15.65-63.81,23.57-2.76,1.03-5.42,2.13-7.82,3.94-2.83,2.13-4.98,1.52-6.66-1.47Z"/>
  <path class="cls-20" d="M169.01,548.5c-1.27,2.47-.7,5.53,1.4,6.93,2.43,1.62,4.39.4,6.11-1.31,3.76-3.73,6.05-8.25,6.96-13.47,1.2.02,1.82.92,2.54,1.55,5.74,5.01,11.68,9.78,17.11,15.14,2.41,2.38,3.83,2.37,6.29-.08,4.28-4.26,7.13-9.52,10.08-14.7,1.31-2.3,2.72-4.55,4.08-6.82,2.14,1.3,4.2,2.77,6.44,3.88,12.4,6.16,22.95,6.22,32.91-2.72.55-.49,1.15-.92,1.65-1.45,10.47-11.17,23.55-19.21,35.12-29.05,1.25-1.06,2.67-1.94,4.07-2.82,2.29-1.44,2.77-1.23,2.93,1.47.37,6.32.85,12.62,1.72,18.89.24,1.72.45,3.47.99,5.1,1,3.06,3.37,4.05,6.3,2.8.84-.36,1.65-.82,2.4-1.34,1.2-.85,2.14-1.71,3.54,0,.57.7,2.22.59,3.4.69,6.3.55,12.07-.85,16.94-5.02,2.87-2.45,3.08-4.62,1.1-7.36,3.32.96,4.32,2.97,2.59,5.9-3.07,5.22-8.03,7.81-13.66,9.44-3.28.95-6.67,1.05-10,1.57-1.3.21-2.67-.24-3.63-1.03-1.67-1.39-3.06-.9-4.76-.09-5.28,2.5-8.54.75-9.77-4.95-.26-1.18-.25-2.36-.4-3.53-.7-5.55-.48-11.14-.56-16.72-1.58-.3-2.21.96-3.12,1.61-8.1,5.82-16.3,11.51-24.79,16.75-2.36,1.46-2.68,4.25-4.35,6.21-5.45,6.37-12.04,11.04-20.05,13.38-6.23,1.82-12.34.58-18.1-2.34-2.6-1.32-5.28-2.49-7.51-4.64-2.98,5.35-5.36,10.75-9.15,15.28-1.63,1.95-2.98,4.15-5.21,5.57-4.28,2.74-9.01,2.34-11.97-1.77-3.11-4.33-7.42-7.27-11.15-10.87-1.43-1.37-2.27-1.63-3.5.57-2.33,4.2-5.77,7.59-9.81,10.21-3.1,2.02-6.64,1.15-8.04-1.69-1.63-3.31-.26-7.7,2.86-9.16Z"/>
  <path class="cls-20" d="M188.86,382.11c-.23-.13-.47-.27-.7-.4-.9-.79-2.17-.6-3.15-1.2h.06c-.22-.09-.35-.26-.4-.5.03-.23.12-.43.28-.6,3.88-2.18,8.25-2.92,12.44-4.12,10.94-3.14,21.42-7.48,31.97-11.65,15.49-6.13,31.24-11.57,46.74-17.66,22.76-8.93,46.01-16.46,68.87-25.12,14.12-5.35,28.63-9.59,43.04-14.13,6.37-2.01,12.68-4.19,19.09-6.07.47-.14,1.09-.24,1.21-.91-.23-.51-.69-.6-1.15-.61-7.07-.19-10.02-6.06-11.01-11.39-.55-2.99,2.03-7.17,4.84-8.5-1.35,2.66-1.98,5.38-2.09,8.46-.15,4.24,2.09,6.65,5.11,8.7,1.64,1.12,3.54,1.87,5.69,1.62.94-.11,2.24-.34,2.57.96.38,1.5-.87,2.1-1.98,2.54-4.85,1.93-9.75,3.73-14.66,5.51-19.13,6.92-38.23,13.92-57.36,20.84-19.04,6.88-38.1,13.73-57.14,20.64-14.56,5.28-29.12,10.54-43.64,15.94-.86.32-1.73.62-2.44,1.24-5.02,2.61-10.5,4.02-15.71,6.14-4.63,1.53-9.15,3.36-13.75,4.95-3.5,1.23-6.93,2.66-10.45,3.83-2.13.34-3.93,2.05-6.27,1.49Z"/>
  <path class="cls-26" d="M184.95,379.4c0,.23,0,.46,0,.69-1.1.49-2.27.72-3.44.97-.8.17-1.38.75-1.59,1.4-1.55,4.93-6.25,5.84-10.06,7.7-7.81,3.81-16.02,4.27-24.39,2.02-3.99-1.07-7.73-2.88-11.8-3.73-9.16-1.91-18.39-1.97-27.14,1.2-9.93,3.6-16.07,11.89-18.88,21.37-3.82,12.88-3.58,26,1.77,39.01,4.79,11.65,13.1,20.04,22.44,27.61,5.43,4.4,12.64,4.65,19.32,5.72,7.36,1.18,14.62.33,21.79-1.57-4.09,2.94-8.68,4.57-13.68,5.04-14.97,1.4-26.97-4.83-37.6-14.62-8.77-8.08-15.19-17.65-17.96-29.3-2.33-9.82-3.23-19.71-.57-29.77,1.69-6.37,3.78-12.29,8.04-17.49,4.51-5.52,10.29-8.74,16.93-10.6,12.14-3.39,23.8-1.66,35.38,3.05,8.57,3.49,17.4,3.6,26.07-.6,3.22-1.56,6.49-2.76,8.93-5.62,1.59-1.87,3.88-2.7,6.43-2.49Z"/>
  <path class="cls-128" d="M234.61,365.26c3.29-2.46,7.33-3.15,11.06-4.54,16.61-6.19,33.27-12.26,49.93-18.3,14.78-5.35,29.61-10.56,44.39-15.92,11.52-4.18,22.98-8.54,34.49-12.74,8.5-3.1,17.05-6.07,25.57-9.13,3.44-1.23,6.84-2.55,10.28-3.78.81-.29,1.77-.51,1.55-1.55-.23-1.12-1.34-.73-2.09-.73-4.67-.01-8.18-2.25-10.14-6.25-2.18-4.45-1.83-9,1.35-13.07,0,0,0,.01,0,.01,1.91-.95,2.97.14,3.68,1.68.62,1.33.81,2.81.96,4.27.19,1.96.92,3.73,2.01,5.34,2.2,3.26,5.79,3.29,8.2.14,1.18-1.54-.19-1.84-1.06-2.39-3.92-2.48-5.73-6.07-5.45-10.66.15-2.44.92-4.65,2.94-6.26,1.96-1.57,3.95-.94,4.57,1.51.32,1.27.04,2.54-.07,3.81-.35,3.79,3.07,6.91,6.59,6.08,2.02-.48,2.35-1.24,1.23-3.04-1.13-1.8-2.12-3.65-2.56-5.74-.67-3.14.33-5.78,2.69-7.21,1.25-.75,2.59-1.08,3.9-.3,1.38.81,1.62,2.12,1.14,3.58-.2.14-.39.28-.59.41-.19-1.2.18-2.74-1.71-2.93-1.81-.18-3.07.67-3.61,2.33-1.26,3.86.21,7.12,2.85,9.73,1.68,1.66,1.86,2.38-.31,3.63-3.3,1.91-4.97,2.08-7.83.12-3.06-2.1-3.93-4.28-3.2-7.77.27-1.26,1.26-2.92-.74-3.46-1.83-.5-2.51,1.2-3.09,2.52-2.22,5.09.45,11.22,5.78,12.92,2.35.75,2.33,1.53.73,3-1.32,1.21-2,3.05-4.04,3.55-4.47,1.09-7.2-.4-9.12-5.22-.75-1.89-1.06-3.87-1.15-5.91-.06-1.18-.23-2.59-1.81-2.64-1.37-.04-1.66,1.24-2,2.29-2.37,7.34.69,12.88,8.18,14.84,1.4.39,2.8.35,4.21.01.8-.19,1.43-.14,1.2.96-.96,1.05-1.07,2.74-2.57,3.38-3.85,2.42-8.31,3.3-12.47,4.95-4.94,1.96-9.98,3.68-14.97,5.5-18.09,6.51-36.18,13.02-54.23,19.63-17.88,6.54-35.84,12.88-53.68,19.53-10.74,3.64-21.35,7.65-31.99,11.57-1.89.61-3.77,1.25-5.63,1.97-1.05.41-2.16,1.08-3.34.27Z"/>
  <path class="cls-20" d="M297.91,426.22c.02.95.03,1.9.05,2.84-1.01,6.02-2.17,12.02-2.98,18.06-1.57,11.63-7.06,21.28-14.22,30.34-4.19,5.3-8.35,10.31-14.56,13.38-2.05,1.01-4.49.97-6.25,2.58-.71-.55-1.42-1.11-2.29-1.79,20.04-9.36,28.08-27.19,34.76-45.91,2.27-6.35,3.7-13,5.51-19.51Z"/>
  <path class="cls-107" d="M203.73,503.36c-.01-.18-.06-.37-.03-.54q.61-3.99,4.51-2.8c3.7,1.12,7.45,1.87,11.34,1.55,1.65-.14,2.37.19,2.35,2.16-.08,9.96-.01,19.92.12,29.88.02,1.51-.79,2.06-1.83,2.64-3.89-2.1-3.46-5.8-3.13-9.21.52-5.28,1.14-10.55.95-15.86-.06-1.83,1.32-3.78.22-5.35-1.19-1.7-3.47-.35-5.16-.93-2.17-.74-4.42-1.33-6.43-2.38-1.51-.79-2.23-.45-2.9.85Z"/>
  <path class="cls-107" d="M479.1,272.19c-9.64-3.19-19.19-1.14-28.66.77-5.08,1.02-10.08,2.65-14.76,5.01-2.64,1.34-4.27.3-5.55-1.96,2.84-.74,5.38-2.22,7.97-3.49,11.38-5.57,23.16-6.88,35.43-3.72,2.47.64,4.92,1.42,6.79,3.32-.39.33-.81.27-1.23.06Z"/>
  <path class="cls-81" d="M429.73,270.07c-.03-1.77-.28-3.38-2.57-3.44-2.06-.05-4.4,2.09-4.63,4.35-.35,3.39.92,6.39,3.08,8.81,1.66,1.85,1.03,2.5-.77,3.3-2.1.93-4.11.99-5.92-.54-1.92-1.63-3.71-3.39-2.86-6.31.08-.26.24-.51.26-.78.15-1.63.6-3.55-1.44-4.25-2.01-.69-3.01,1.11-3.84,2.43-2.89,4.61-.58,11.74,4.52,14.31,2.72,1.37,2.69,1.34.45,3.6-2.61,2.64-6.73,3.4-9.56-1.28-1.49-2.46-1.54-5.22-2.06-7.87-.4-2.04-1.33-3.14-3.43-3.13.68-1.21,1.69-1.25,2.83-.78,1.43.59,2.01,1.74,2.19,3.21.37,3.09,1.03,6.1,2.58,8.87.6,1.07,1.41,1.65,2.54,1.86,1.03.19,1.78-.33,2.3-1.16.57-.93,0-1.54-.66-2.11-4.56-3.94-4.63-9-3.55-14.33.39-1.93,1.76-3.21,3.19-4.34,1.75-1.37,3.74-.65,4.62,1.46.58,1.41.46,2.87.53,4.33.1,1.94.39,3.87,2.09,5.14,1.03.77,2.15.96,3.25-.05,1.11-1.01.33-1.86-.23-2.63-1.81-2.48-2.45-5.31-2.36-8.27.13-4.16,5.1-6.71,8.55-4.44,1.52,1,1.8,2.44.87,4.05Z"/>
  <path class="cls-81" d="M154.04,481.27c.74-.88,1.77-1.29,2.81-1.66.19.18.3.4.33.66-.88,1.73.36,3.34.79,4.73.43,1.4,1.58-.4,2.38-.87.93-.62,1.3-1.91,2.85-1.83,1.07.05,1.24-1.12,1.36-2.07.14-1.05-.8-2.5.27-3.07,1.32-.71,2.73-1.53,4.35-1.55,1.1-.01,2.2-.02,3.29.04,1.07.06,2.13.19,3.64.34-2.12,2.15-4.36,3.47-6.45,4.97-1.53-1.55-2.3,0-2.99.88-1.41,1.78-2.63,3.7-4.28,5.29-1.73,1.67-3.63,2.8-6.1,1.82-2.51-.99-2.22-3.21-2.23-5.32,0-.78.62-1.58-.03-2.35Z"/>
  <path class="cls-81" d="M526.59,285.45c-3.43-1.24-6.66-.02-9.94.75-4.8,1.14-9.51,2.57-14.51,2.83-4.07.21-7.32-1.13-10.1-3.94-1.98-2-4.4-3.61-5.67-6.26-.31-.64.06-.71.56-.65,4.99,7.36,9.76,9.9,19.98,7.36,4.9-1.22,9.83-2.07,14.88-1.84,1.7.08,3.68-.14,4.8,1.74Z"/>
  <path class="cls-63" d="M139.72,577.51c-.42-.92.29-1.52.74-2.13,3.11-4.19,6.25-8.36,9.42-12.51.49-.64,1.19-1.13,1.85-1.61.37-.27.89-.28,1.28.04.48.38.25.9,0,1.23-4.01,5.3-7.61,10.95-12.99,15.08-.04.03-.16-.05-.3-.1Z"/>
  <path class="cls-35" d="M369.22,502.26c-.39,2.19-1.95,3.51-3.15,5.07-1.56,2.03-3.32,3.92-4.4,6.29-.24.53-.43,1.37-1.31,1.03-.7-.27-.76-.98-.68-1.65.04-.36.16-.72.3-1.05,1.87-4.37,5.4-7.17,9.24-9.7Z"/>
  <path class="cls-52" d="M143.07,540.12c4.15-1.13,8.3-.56,12.43-.3,1.01.07,2.47.65,2.23,1.94-.26,1.39-1.63.66-2.55.56-4.07-.45-8.21-.55-12.11-2.2Z"/>
  <path class="cls-127" d="M514,297.46c-2.87.74-5.14,2.62-7.63,4.06-.62.36-1.1.95-1.92.82.31-.32.57-.73.93-.96,6.51-4.12,13.03-8.21,19.55-12.31-2.48,4.31-6.94,6.05-10.93,8.39Z"/>
  <path class="cls-1" d="M178.39,490.75c-.17,1.22.55,1.11,1.34.88,1.74-.51,3.48-1.03,5.22-1.54-2.02,2.32-4.72,3.62-7.46,4.79-.87.37-2.09.69-2.74-.33-.67-1.06.19-1.9.96-2.55.83-.7,1.75-1.28,2.63-1.92.29.2.31.43.05.67Z"/>
  <path class="cls-51" d="M178.39,490.75c-.02-.22-.03-.45-.05-.67,1.19-1.07,2.42-2.1,3.57-3.21,1.12-1.08.44-1.48-.7-1.63.68-.59,1.36-1.17,2.03-1.77.84-.74,1.55-1.49,2.57-.04.84,1.19.97,1.92-.32,2.86-2.27,1.65-4.49,3.36-7.1,4.46Z"/>
  <path class="cls-76" d="M174.97,480.17c.91-.59,1.92-1.08,2.71-1.8,1.83-1.65,3.32-.76,4.4.72,1.34,1.84-1.15,1.98-1.68,3.02-.16.3-.54.48-.94.29-1.26-1.22-3.11-1.26-4.48-2.23Z"/>
  <path class="cls-67" d="M184.55,512.78c1.64-1.84,3.27-3.69,4.94-5.51.43-.47.71-1.43,1.7-.71.7.5.47,1.07.28,1.7-.74,2.5-2.44,4-4.92,4.57-.65.15-1.01.24-.95.95-.69.03-.63-.74-1.06-.99Z"/>
  <path class="cls-112" d="M338.84,553.21c-1.54-2.58-2.42-5.43-3.93-7.98-.22-.38-.33-.96.18-1.2.68-.31,1.23.05,1.63.64,1.71,2.55,2.53,5.36,2.12,8.54Z"/>
  <path class="cls-32" d="M184.93,490.08c.5-.37,1.02-.71,1.48-1.13,1.43-1.31,2.8-1.7,3.8.39.94,1.95-.66,2.38-1.96,2.94-.8-1.2-1.68-2.28-3.33-2.2Z"/>
  <path class="cls-25" d="M190.52,495.12c1-.86,1.84-3.11,3.1-2.13,1.68,1.3-.22,2.93-.91,4.34.1-1.57-.48-2.45-2.2-2.21Z"/>
  <path class="cls-132" d="M479.1,272.19c.41-.02.82-.04,1.23-.06.95.7,2.29.92,2.78,2.21.61,1.53,3.01,1.86,2.7,4.01-2.69-1.56-4.02-4.6-6.71-6.15Z"/>
  <path class="cls-26" d="M485.81,278.35c-.35-1.7-2.58-2.14-2.7-4.01,1.69.87,3,2.13,3.82,3.86-.19.22-.37.43-.56.65-.19-.17-.37-.33-.56-.5Z"/>
  <path class="cls-122" d="M199.82,500.03c.16-1,.3-2.83,1.3-2.35,1.18.56.57,2.33-.1,3.53-.32-.47.32-1.92-1.19-1.18Z"/>
  <path class="cls-55" d="M316.76,527.08c-1.23.76-2.28,2.96-3.92.49,1.48,1.27,2.56-.76,3.92-.49Z"/>
  <path class="cls-41" d="M177.79,515.96c.26.5.77.54,1.23.66-.63.63-1.54,1.43-2.22.73-.71-.74.49-1.01.98-1.38Z"/>
  <path class="cls-114" d="M202.63,437.24c4.1,2.45,4.04,2.37,8.06-.49,2.55-1.82,5.68-2.49,8.58-3.57,17.29-6.44,34.63-12.78,51.95-19.16,7.03-2.59,14.05-5.2,21.1-7.74.76-.27,1.81-1.39,2.41.28.77,2.33,2.52,1.03,4.01,1-3.36,20.54-7.59,40.74-17.95,59.08-4.85,8.58-10.93,16.03-19.75,20.87-1.26.69-2.47,1.6-4.3,1.48,4.74-7.85,6.03-16.32,5.34-25.19.92-.74.93-.77,1.75-.5,6.8,2.24,9.1.09,12.37-4.33,1.95-2.64,3.63-5.47,5.22-8.35.79-1.44,1.08-2.89.32-4.42.09-1.24-.31-2.49.1-3.72-.33.46-.45,1.09-1.02,1.39-1.71,4.68-4.11,8.97-7.46,12.67-3.01,3.33-5.09,3.61-8.94,1.3-.71-.42-1.39-.9-2.02-1.42-.86-.72-2.41-1.27-1.67-2.74.84-1.66,1.86.1,2.76.24,1.74.27,3.36.09,4.75-.86,4.09-2.82,7.24-6.44,8.82-11.25.3-.93.75-1.89-.47-3.08-1.2,4.95-4.85,7.88-8,11.19-.72.45-1.08.3-.97-.6,2.3-2.68,4.84-5.21,5.52-8.89.42-1.13.88-2.26-.48-3.12-.96,3.83-3.06,6.98-5.9,9.66-2.72,2.57-4.83,2.78-7.84.61-1.25-.9-2.35-2.05-3.37-3.22-7.77-8.93-17.7-11.78-29.14-10.43-.36.04-.73.07-1.09.11-9.08,2.32-16.82,7.03-23.47,13.5-2.11,2.05-4.42,3.84-6.49,5.93-5.23,5.27-9.98,11-15.46,16.02-1.45,1.32-2.7,3.01-4.93,3.14-3.73-.29-7.38.02-10.84,1.6-.73.17-1.61.72-1.76-.66,6.82-10.52,13.1-21.42,21.04-31.19,1.37-1.03,2.3-2.58,3.91-3.33l-.03.02c3.81-1.71,7.27-4.56,11.88-3.68.29.06.49.17.67.38.71.93,1.91.92,2.81,1.49Z"/>
  <path class="cls-97" d="M224.05,531.81c.98-9.57.41-19.01.39-28.44,0-1.66.11-2.25,2.05-1.72,10.52,2.87,19.34-.31,26.59-8.09,1.54-1.65,2.29-1.19,3.39.12,3.34,3.96,4.94,8.71,6.2,13.6,1.65,6.37,2.37,12.96,4.72,19.15.27.72.19,1.24-.29,1.74-5.43,5.64-10.83,11.47-19.23,12.29-6.03.59-11.83-.76-17.23-3.58-1.86-.97-3.57-2.22-5.73-2.57-1.82-.29-.47-1.79-.86-2.5Z"/>
  <path class="cls-114" d="M215.35,462.73c1.98,3.55,5.01,4.12,9.58,1.76,1.16,4.49,1.85,9.47,7.77,10.16,2.96.34,4.87-1.87,6.29-6.53.72-.28-.36-1.7,1-1.59.79,3.17,3.4,5.76,5.95,5.92,2.54.15,4.64-1.72,5.9-5.2.86-2.37.88-4.82.86-7.28-.39-1.24.05-1.66,1.28-1.28,4.19-.43,4.27-.45,4.97,4.08,1.77,11.41-.6,21.71-8.84,30.13-6.5,6.63-14.53,8.92-23.64,7.06-3-.61-5.13-2.96-7.66-4.48-2.77-1.66-4.82-4.18-6.76-6.76-3.06-4.07-4.73-8-1.89-13.21,2.23-4.11,2.59-9.1,4.62-13.43.51-.06.77.09.58.66Z"/>
  <path class="cls-114" d="M226.85,443.87c4.04-3.57,8.37-6.55,14.1-4.67,4.51,1.48,8.13,4.44,10.98,8.21.97,1.29.56,2.85-.4,4.06-1.06,1.34-2.21.62-3.39-.04-2.39-1.34-4.6-.89-6.37,1.23-1.33,1.59-2,3.47-2.32,5.5-.61.4.46,1.83-1.03,1.7-1.37-3.34-3.06-6.29-7.32-6.32-1.99-.01-3.26.69-4.35,2.53-2.26,3.81-5.83,3.96-7.69.64-.58-1.03-.83-2.27-.38-3.15,1.22-2.38,2.31-4.97,4.94-6.28.95,1.08,1.63.18,2.31-.35,1.44-1.12,2.96-1.81,5.4-.73-1.44-1.26-2.59-.93-3.59-1.21-.5-.21-1.1-.34-.89-1.12Z"/>
  <path class="cls-107" d="M174.94,472.61c5.26-3.89,9.59-8.73,14.04-13.47,9.31-9.91,19.01-19.37,32.05-24.4,1.35-.52,2.74-1.11,4.27-.71-2.34,1-4.67,2.01-7.02,2.99-9.36,3.89-16.43,10.42-22.19,18.66-3.88,5.56-8.54,10.5-13.37,15.3-2.44,2.43-4.8,2.91-7.77,1.64Z"/>
  <path class="cls-1" d="M281.89,445.99c1.3.96,1.55,2.18.83,3.58-2.17,4.22-4.49,8.38-7.67,11.92-3.53,3.94-6.65,4.46-11.52,2.35-.48-.21-.95-.64-1.46-.05-.9-1.49-.24-3.39-1.55-4.8,1.56-.5,2.23.63,3.12,1.14,4.78,2.75,7.76,2.37,11.39-1.76,3.11-3.54,5.5-7.52,6.41-12.24.1-.21.25-.26.45-.14Z"/>
  <path class="cls-13" d="M231.65,455.97c.8.13,1.08.3.78,1.26-1.38,4.36-.68,6.12,3.1,8.01.75.37.57.8.45,1.3-.46,1.96-.73,4.41-3.06,4.76-2.44.37-3.26-1.96-3.99-3.83-1.16-3.01-1.35-6.06,0-9.08.54-1.22,1.33-2.18,2.71-2.41Z"/>
  <path class="cls-34" d="M242.1,460.84c.1-2.32.39-4.58,1.85-6.5.67-.87,1.53-1.4,2.61-.7,1.33.87-.07,1.36-.38,1.91-1.75,3.17-1.09,6.24,2.1,7.55,2.01.83.93,1.87.63,2.82-.47,1.47-1,3.24-2.87,3.25-1.71.01-2.27-1.65-2.88-2.98-.78-1.69-.98-3.52-1.05-5.36Z"/>
  <path class="cls-13" d="M214.66,498.48c-2.95-.31-5.69-1.4-8.45-2.37-.5-.17-1.28-.3-1.27-.89.05-3.05-1.65-6.35,1.28-9.25,2.52,4.82,5.96,8.7,10.18,11.88-.16,1.36-1.06.68-1.73.63Z"/>
  <path class="cls-18" d="M190.34,476.31c3.93-5.33,7.27-11.01,10.09-17.05.48,1.91-.14,3.66-.74,5.25-2.23,5.92-5.05,11.56-9,16.58-1.32,1.68-2.16,1.75-2.91-.33.52-1.67,2.4-2.57,2.56-4.45Z"/>
  <path class="cls-71" d="M192.22,467.66c-1.67,2.94-3.78,5.56-5.8,8.26-1.1,1.47-1.83,1.24-2.99.14-1.42-1.35.08-1.7.69-2.2,2.62-2.14,4.99-4.54,7.34-6.95.62-.12.88.13.76.76Z"/>
  <path class="cls-20" d="M313.38,399.3c.96-.77,2.07-.91,2.09.54.02,1.32,1.63,3.66-.63,3.93-4.21.49-7.81,2.11-11.3,4.27-.06.04-.18,0-.27,0,.64-.75,1.23-1.56,1.93-2.24,1.07-1.04,1.95-2.17,3.92-1.68,1.54.38,3.18-.55,4.59-1.39,1.93-1.16,1.8-2.17-.33-3.43Z"/>
  <path class="cls-3" d="M197.21,479.19c-.68,2.5-1.94,4.73-3.32,6.89-.35.55-.55,1.87-1.7.78-.76-.73-1.34-1.43-.22-2.46,1.83-1.68,3.26-3.71,4.58-5.81.53-.13.78.04.66.61Z"/>
  <path class="cls-90" d="M228.03,444.49c.72-.03,1.49-.23,2.14-.04,1.03.31,2.42,1.06,2.11,2.08-.38,1.23-1.48.03-2.22-.19-2.02-.59-3.3.74-4.59,1.79-1.44,1.18-1.83.75-1.86-.85,0,0,.19-.06.19-.06,1.02-1.51,2.41-2.45,4.23-2.73Z"/>
  <path class="cls-20" d="M302.37,408.59c-1.63,5.43-2.87,10.96-3.85,16.54-.08.47-.2.88-.63,1.13.87-5.24,1.74-10.49,2.63-15.73.17-1.03.57-1.92,1.85-1.94Z"/>
  <path class="cls-116" d="M162.34,473.55c.42.67,1.19.39,1.76.66-2.9.23-2.45,3.31-3.99,4.69-.85.95-1.82,1.65-3.19,1.47-.02-.25-.05-.5-.07-.75,2.24-1.65,3.53-4.16,5.49-6.06Z"/>
  <path class="cls-53" d="M253.98,458.69c-.77.08-1.13.58-1.28,1.28-.85-1.5-.25-3.46-1.94-5.1,1.89.22,3.5.96,4.68-.63.38-.51.84-.15,1.05.29.24.49.43,1.11-.22,1.41-.56.26-1.2.37-1.82.49-.58.11-1.37-.2-1.62.62-.29.96.81,1.06,1.15,1.64Z"/>
  <path class="cls-30" d="M216.36,458.2c-.03-.7.23-1.23,1-1.58.73,2.27,2.29,3.79,4.65,4.66-2.64,1.22-3.54.73-5.07-2.49-.23-.16-.52-.26-.58-.59Z"/>
  <path class="cls-57" d="M299.05,404.28c1.91-1.57,3.96-2.76,6.58-2.33-1.55,2.58-3.99,2.68-6.58,2.33Z"/>
  <path class="cls-109" d="M156.92,480.37c1.23-.13,2.13-.97,3.19-1.47-.15.32-.26.87-.47.91-2.98.63-1.88,2.96-1.52,4.45.45,1.88,1.43-.39,2.23-.12-.41,1.08-.99,2.1-2.35,1.69-1.17-.35-.83-1.33-.73-2.28.11-1.05-1.9-1.92-.35-3.19Z"/>
  <path class="cls-23" d="M190.34,476.31c.53,2.28-1.16,3.28-2.56,4.45-.63-2.33,1.79-2.92,2.56-4.45Z"/>
  <path class="cls-54" d="M281.89,445.99c-.16.02-.31.07-.45.14-.17-.77.32-1.72-.63-2.27-.03-1.35.43-2.54,1.17-4.02,1.26,2.33-.18,4.23-.08,6.15Z"/>
  <path class="cls-125" d="M208.73,473.73c-.28,1.37-.62,2.71-1.71,4.16-.77-2.27.67-3.71,1.16-5.35,1.05,0,.76.62.56,1.2Z"/>
  <path class="cls-49" d="M210.86,466.27c-.68-1.84.63-2.96,1.54-4.77.25,2.24-.84,3.43-1.54,4.77Z"/>
  <path class="cls-78" d="M228.03,444.49c-1.41.91-2.82,1.82-4.23,2.73.06-1.99,1.79-2.45,3.05-3.35.22.55.76.47,1.18.62Z"/>
  <path class="cls-117" d="M253.8,450.25c1.09.96,1.76,1.65.73,2.66-.38.37-1.02.93-1.35.4-.58-.94.39-1.76.61-3.06Z"/>
  <path class="cls-124" d="M267.6,449.32c.32.2.65.4.97.6-.68,1.15-1.95,1.33-3.02,1.83-.55.06-1.27.39-1.18-.67,1.34-.11,2.13-1.22,3.24-1.76Z"/>
  <path class="cls-39" d="M219.08,442.18c-1.29.95-2.58,1.9-3.86,2.85.56-1.75,2.06-2.45,3.38-3.34.58-.25.64.01.49.49Z"/>
  <path class="cls-9" d="M257.75,450.74c1.28.29,2.78.52,1.47,2.51-.56-.96-1.01-1.73-1.47-2.51Z"/>
  <path class="cls-103" d="M192.22,467.66c-.25-.25-.51-.5-.76-.76.61-.74,1.22-1.48,2.27-2.75-.06,1.92-.75,2.73-1.52,3.51Z"/>
  <path class="cls-121" d="M228.54,440c-1.13.95-1.85,1.55-2.56,2.14.11-1.29.75-1.97,2.56-2.14Z"/>
  <path class="cls-85" d="M196.21,499.95c-.2-1.29.07-2.01,1.12-2.55.25,1.08-.21,1.71-1.12,2.55Z"/>
  <path class="cls-80" d="M215.35,462.73c-.19-.22-.39-.44-.58-.66-.1-.65.22-1.16.58-1.65.59-.3.74.21.98.54.07.32.14.65.21.97.13.32.08.6-.16.85-.34-.02-.69-.04-1.03-.06Z"/>
  <path class="cls-40" d="M272.64,437.3c.21-.82.82-.79.93-.14.17,1.07.63,2.31-.45,3.26-.19-1.04.44-2.2-.48-3.12Z"/>
  <path class="cls-111" d="M203.98,484.94c-.58-1.2-.04-1.92.58-2.79.72,1.26.06,1.94-.58,2.79Z"/>
  <path class="cls-33" d="M216.33,460.96c-.33-.18-.66-.36-.98-.54.1-.85.5-1.56,1.01-2.23.19.2.39.39.58.59-1.11.47-.25,1.5-.61,2.18Z"/>
  <path class="cls-119" d="M216.39,462.79c.05-.28.11-.57.16-.85.84.31,1.46.89,2.04,1.62-1.04.5-1.66,0-2.2-.76Z"/>
  <path class="cls-58" d="M220.78,440.46c.54-.81,1.32-1.19,2.5-1l-2.49,1.67c-.32-.22-.32-.44,0-.67Z"/>
  <path class="cls-129" d="M199.19,486.27c.18-.52-.01-1.64.73-1.37,1.2.43-.08,1.27-.06,1.94-.52.15-.74-.03-.67-.57Z"/>
  <path class="cls-92" d="M208.73,473.73c-.08-.45-.07-.93-.56-1.2.2-.55.39-1.1.59-1.65.6-.04.77.23.56.78.03.76-.19,1.44-.59,2.07Z"/>
  <path class="cls-43" d="M208.66,460.98c-.16.67-.33,1.35-.49,2.02-.41-.88-1.35-1.97.55-2,0,0-.06-.02-.06-.02Z"/>
  <path class="cls-133" d="M239.99,466.54c-.33.53-.67,1.06-1,1.59,0-.69-.01-1.38.02-2.07.02-.4.23-.64.66-.42.37.19.37.54.31.89Z"/>
  <path class="cls-120" d="M238.43,459.86c.34-.57.69-1.13,1.03-1.7.21,1.1-.02,2.11-.57,3.08-.62-.34-.53-.87-.46-1.38Z"/>
  <path class="cls-4" d="M208.72,460.99c-.51-.73-.58-1.41.3-2.16.5.93.21,1.56-.35,2.14,0,0,.06.02.06.02Z"/>
  <path class="cls-130" d="M220.78,440.46c0,.22,0,.45,0,.67-.57.35-1.14.7-1.71,1.05-.16-.16-.32-.33-.49-.49.55-.74,1.38-.96,2.19-1.23Z"/>
  <path class="cls-45" d="M214.66,498.48c.53-.35,1.34.09,1.73-.63.48.07.93.28.92.78-.01.53-.55.36-.84.31-.62-.1-1.21-.3-1.82-.46Z"/>
  <path class="cls-42" d="M195.22,462.4c.3.72-.18,1.14-.56,1.58-.01.01-.52-.25-.53-.4-.03-.7.42-1.04,1.09-1.18Z"/>
  <path class="cls-56" d="M197.21,479.19c-.22-.2-.44-.41-.66-.61.02-.58.57-1.3.79-1.15.69.5.35,1.19-.13,1.76Z"/>
  <path class="cls-86" d="M201.44,456.47c.46-.18.57.1.54.35-.03.22-.17.51-.36.61-.29.16-.52-.07-.49-.37.03-.23.21-.43.3-.59Z"/>
  <path class="cls-47" d="M208.17,463.42c-.39,1.05-.59,1.6-.86,2.35-.4-.96-.58-1.62.86-2.35Z"/>
  <path class="cls-106" d="M209.33,469.26c.22-.53.43-1.06.71-1.74.65,1.03.29,1.68-.19,2.32-.34-.05-.36-.37-.52-.58Z"/>
  <path class="cls-14" d="M264.36,451.08c.16.63.76.49,1.18.67-.89.78-1.52.27-2.12-.41.31-.09.63-.17.94-.26Z"/>
  <path class="cls-31" d="M199.19,486.27c.22.19.45.38.67.57-.28.4-.56.81-.84,1.21-.53-.65-.26-1.22.17-1.78Z"/>
  <path class="cls-60" d="M209.33,469.26c.17.19.35.39.52.58-.17.61-.35,1.21-.52,1.82-.19-.26-.37-.52-.56-.78.19-.54.38-1.08.57-1.62Z"/>
  <path class="cls-95" d="M198.82,492.83c.2-.36.39-1,.61-1.01.74-.04.34.52.23.82-.07.19-.34.32-.51.48-.11-.09-.22-.19-.33-.28Z"/>
  <path class="cls-64" d="M418.1,310.67c1.47-1.74,2.93-3.48,4.42-5.21.5-.58.98-1.16.51-1.93-.47-.77-1.26-.72-1.96-.47-1.54.54-3.24.55-4.65,1.48q-2.65.49-1.57-3.21v.02c.56-1.47.4-3.23,1.76-4.38,1.2-.62,1.81-1.8,2.56-2.82,5.27-7.25,13.03-11.04,20.93-14.17,9.83-3.9,20.2-5.97,30.89-5.74,2.32.05,4.56.63,6.68,1.49,3.18,1.29,3.7,4.05,1.4,6.55-1.43,1.55-2.85,3.12-4.24,4.7-7.04,8.04-7.54,18.27-1.33,26.89,2.69,3.73,6.75,4.9,10.97,5.55,1.6.25,1.99.5,1.43,2.16-2.39,6.99-6.76,12.58-12.18,17.38-4.1,3.63-8.98,5.28-14.57,5.65-6.34.42-12.58-.14-18.88-.44-.23-1.18,1.8-1.91.49-3.23-1.14-1.16-2.4-.6-3.62-.39-2.6.44-5.19.93-8.25,1.48,2.03-2.71,4.44-4.19,6.76-5.78.82-.56,1.97-.89,1.48-2.24-.43-1.16-1.48-1.29-2.52-1.21-1.82.15-3.63.37-5.74.59.7-1.83,2.09-2.74,3.16-3.88.6-.64,1.63-1.18,1.13-2.25-.47-1.02-1.51-1.28-2.57-1.24-2.18.08-4.37.19-7.02.31,2.08-2.48,4.95-3.51,6.28-6.09.33-.64,1.05-1.1.55-1.92-.47-.77-1.25-.65-1.98-.59-2.8.25-5.59.52-8.65.25,1.25-.99,2.51-1.96,3.73-2.97.84-.69,2.72-.65,2.23-2.29-.45-1.51-2.03-.77-3.14-.91-1.25.42-2.54.21-3.8.17-.85-.03-1.08-.55-.66-1.31Z"/>
  <path class="cls-97" d="M209.74,431.21c1-3.44.22-6.9.1-10.35.59-1.49,2.05-1.58,3.28-2.02,1.76-.64,3.58-1.14,5.31-1.86,2.02-.86,4.18-1.36,6.19-2.25,4.57-1.68,9.17-3.28,13.74-4.96,9.19-3.29,18.39-6.56,27.57-9.86,9.18-3.33,18.4-6.56,27.57-9.92,16.37-5.82,32.72-11.7,49.05-17.62,12.94-4.57,25.85-9.22,38.76-13.88,13.51-4.88,27.07-9.64,40.54-14.63.85-.32,1.84-.75,2.6,0,1.94,1.9,4.21,1.21,6.43,1,.63-.04,1.26-.08,1.88-.12.75-.04,1.84-.88,1.89.78-1.1,2-3.54,2.2-5.02,3.7-.64,1.51-2,2.02-3.39,2.55-19.11,7.22-38.23,14.41-57.35,21.6-20.49,7.71-40.97,15.42-61.45,23.14-15.62,5.82-31.21,11.72-46.79,17.65-8.84,3.21-17.6,6.62-26.4,9.93-2.5.81-4.9,1.93-7.4,2.74-4.79,1.89-9.64,3.6-14.45,5.42-.97.37-2.68,1.63-2.67-1.02Z"/>
  <path class="cls-97" d="M209.66,419.73c-2.43-10.65-6.64-20.54-12.54-29.73,1.98-1.99,4.77-2.29,7.15-3.46,2.97-1,5.99-1.84,8.85-3.14,7.33-2.5,14.58-5.21,21.9-7.76,9.72-3.51,19.47-6.94,29.19-10.45,7.74-2.69,15.48-5.41,23.17-8.27,12.37-4.28,24.63-8.84,36.98-13.18,20.98-7.49,41.96-14.96,62.92-22.52,7.68-2.77,15.39-5.42,23.06-8.23,1.73-.63,2.79-.24,3.38,1.48,1.27,1.57,3.11.05,4.61.75-.38,1.15-1.45,1.46-2.14,2.14-.88.88-1.09,1.95-.69,3.03.43,1.16,1.56,1.11,2.58,1.02,2.16-.19,4.32-.4,6.72-.11-2.02,1.57-4.07,3.12-6.07,4.71-.76.61-1.87,1.17-1.49,2.37.41,1.31,1.7.87,2.62.85,2.73-.06,5.46-.27,8.47-.44-.86,2.32-2.78,3.34-4.18,4.79-.64.66-1.54,1.22-1.1,2.28.47,1.12,1.53.73,2.41.67,1.54-.11,3.08-.25,4.62-.38.19.21.37.42.56.63-2.14,1.97-4.28,3.94-6.42,5.91-3.76,2.35-8.09,3.33-12.19,4.8-22.52,8.12-45.04,16.22-67.55,24.33-.94.34-1.94.53-2.83,1.01-15.33,5.46-30.64,10.98-45.94,16.53-1.03.37-2.11.61-3.1,1.09-9.19,3.29-18.39,6.59-27.57,9.91-9.18,3.27-18.35,6.57-27.51,9.9-4.6,1.6-9.18,3.26-13.75,4.95-2.08.71-4.15,1.44-6.2,2.23-2.65.74-5.06,2.28-7.91,2.29Z"/>
  <path class="cls-97" d="M195.99,388.81c-1.42-1.88-2.89-3.71-4.85-5.08-1.05-1.28-.01-1.77.9-2.21,1.07-.52,2.24-.78,3.34-1.2,3.72-1.22,7.36-2.64,11.03-4,4.63-1.58,9.2-3.3,13.8-4.96,8.1-2.89,16.19-5.84,24.26-8.81,10.67-3.82,21.34-7.64,31.98-11.57,22.84-8.19,45.64-16.48,68.44-24.77,13.18-4.79,26.41-9.43,39.54-14.35,5.66-1.76,11.15-4.01,16.74-5.97,2.16-.76,4.32-1.42,6.57-1.83.73.1,1.62-.02,1.59,1.14h-.01c-.72.41-1.59.84-1.32,1.82.24.87,1.17,1.11,1.99,1.15,1.08.06,2.13-.03,3.23-.31.84-.21,2.3-1.15,2.72.75-.59,1.34-1.6,2.33-2.77,3.17-3.94,2.2-8.31,3.33-12.52,4.81-14.05,4.94-28.05,10.04-42.09,15.02-11.71,4.15-23.43,8.31-35.09,12.58-12.33,4.35-24.64,8.76-36.93,13.22-7.74,2.71-15.45,5.5-23.16,8.26-9.74,3.44-19.47,6.93-29.18,10.45-7.2,2.44-14.29,5.16-21.49,7.6-2.94,1.31-6.06,2.11-9.07,3.23-1.8.35-3.25,1.59-5.06,1.95-.88.18-1.73.64-2.57-.1Z"/>
  <path class="cls-99" d="M307.3,395.97c11.55-4.4,23.09-8.84,34.65-13.2,28.2-10.65,56.41-21.27,84.62-31.88,1.12-.42,2.18-.89,3.08-1.69.77,2.35,2.39-.15,3.44.61-7.09,3.21-14.48,5.65-21.75,8.39-33.34,12.58-66.71,25.11-100.07,37.65-.85.32-1.74.53-2.61.79-.63.14-1.33.43-1.35-.66Z"/>
  <path class="cls-91" d="M323.32,343.73c13.19-4.77,26.37-9.56,39.56-14.3,15.79-5.67,31.59-11.31,47.4-16.93.92-.33,1.81-.94,2.89-.71.18.9.36,1.79.55,2.69-.91-1.85-2.24-1.1-3.59-.62-27.91,9.99-55.83,19.96-83.75,29.93-.6.21-1.22.35-1.84.52-.58.18-1.23.5-1.22-.58Z"/>
  <path class="cls-82" d="M341.5,372.34c12.74-4.63,25.46-9.28,38.21-13.88,13.96-5.04,27.93-10.04,41.89-15.05.85-.3,1.74-.49,2.61-.74,1.45,3.1,4.38,1.68,6.68,2.17-2.19.44-4.37,1.31-6.41-.6-.75-.7-1.73.12-2.56.41-25.44,9.13-50.87,18.27-76.3,27.41-.94.34-1.92.58-2.88.86-.59.17-1.25.51-1.23-.59Z"/>
  <path class="cls-84" d="M407.43,304.53c-7.58,2.62-15.16,5.24-22.74,7.85-.63.15-1.35.47-1.33-.67,9.1-3.54,18.21-7.05,27.57-9.87.23.73,1.15,1.48-.05,2.18-.72-.28-1.38.14-2.07.2-.46.09-.93.13-1.37.3Z"/>
  <path class="cls-104" d="M415.93,308.61c-.77-1.08-1.79-.68-2.74-.41-1.27.36-2.55.39-3.81.19-.79-.13-1.67-.45-1.73-1.49-.06-1.12.54-1.7,1.67-1.7-.05.77-1.61.99-.84,1.99.52.67,1.39.79,2.26.65,1.53-.24,3.06-.46,4.59-.7.51-.08,1.19-.54,1.47,0,.35.67-.31,1.12-.86,1.46Z"/>
  <path class="cls-68" d="M413.49,298.47c-.3-1.39-1.28-.55-1.98-.58-1.16-.05-2.36.41-3.43-.39,1.43-.26,2.89-.01,4.34-.41,1.25-.34,1.38-.04,1.06,1.39Z"/>
  <path class="cls-68" d="M414.83,301.33c-.05.45.02.95-.16,1.34-1.01,2.14.41,1.94,1.74,1.87-.86,1.01-2.48,1.02-2.81.33-.55-1.17.45-2.46,1.24-3.53Z"/>
  <path class="cls-28" d="M418.1,310.67c.98,2.34,3.12.2,4.46,1.15-1.25.65-2.65.34-3.96.58-.48.09-1.19.31-1.42-.34-.25-.72.32-1.12.92-1.39Z"/>
  <path class="cls-68" d="M416.59,296.97c-.59,1.46-1.18,2.92-1.76,4.38.03-1.68-.15-3.45,1.76-4.38Z"/>
  <path class="cls-16" d="M434.66,345.5c-.38-.87-1.25-.55-1.89-.78.47-.19.93-.45,1.42-.56.47-.1,1.16-.53,1.4.02.29.65-.35,1.05-.93,1.32Z"/>
  <path class="cls-104" d="M407.43,304.53c.4-.18.8-.35,1.2-.53.74-.3,1.33-.33,1.27.74-.19.15-.38.3-.57.45-.47-.69-1.24-.52-1.9-.66Z"/>
  <path class="cls-37" d="M409.9,304.75c-.22-.6-.75-.65-1.27-.74.75-.45,1.51-1.15,2.24.03-.32.24-.65.48-.97.72Z"/>
  <path class="cls-105" d="M143.26,434.59c1.08-3.94,4.48-5.13,7.73-6.55,8.73-3.82,17.81-6.19,27.35-6.7.73-.04,1.47.02,2.2.05,4.62.22,8.79,1,11.06,5.94,1.12,2.44,3.12,4.51,5.39,6.14.8,1.54-.57,1.5-1.36,1.8-1.86.7-3.89.32-5.78.84h.04c-1.34.48-2.72.9-3.96,1.66-1.09.86-2.18,1.73-3.26,2.59-.89,1.02-1.89,1.94-2.84,2.9-4.2,4.76-7.42,10.22-10.92,15.47-3.55,5.33-7.04,10.72-10.69,15.99-2.14,3.09-5.39,4.72-8.93,5.53-11.09,2.54-21.89.79-32.53-2.56-1.74-.55-3.29-1.61-4.7-2.82-5.86-5.04-11.48-10.35-15.8-16.79-4.33-6.46-6.92-13.68-8.17-21.38-1.36-8.39-.92-16.91,1.72-24.74,3.57-10.61,12.25-21.52,26.27-22.2,9.36-.45,18.08.84,26.95,3.87,7.69,2.63,15.81,3.74,23.91-.01,3.52-1.63,7.25-2.9,11.09-5.01-.01,5.39.83,10.32,2.18,15.16.28,1.01-.57,1.5-1.25,1.92-8.43,5.34-16.56,11.27-26.56,13.56-1.06.24-2.05.82-3.1,1.11-3.21.88-6.18,1.91-9.8.61-6.52-2.33-13.41-3-20.36-1.91-1.17.18-2.35.42-3.48.79-1.71.56-2.95,1.68-2.74,3.62.21,1.83,1.68,2.55,3.31,2.8,1.45.22,2.92.32,4.38.35,5.51.11,11,.01,16.42-1.28,1.79-.43,3.79-1.13,4.78,1.59.99,2.71-1.3,3.28-2.66,4.02-5.3,2.9-9.86,6.64-13.79,11.2-.41.48-.72,1.04-1.08,1.56-1.12,1.69-2.34,3.75-.8,5.37,1.53,1.61,3.68.49,5.48-.44.88-.46,1.76-.92,2.64-1.38l-.03.02c.95-.72,1.66-1.73,2.8-2.22l-.04.03c1.92-1.78,3.88-3.53,5.5-5.61.54-.73,1.07-1.47,1.61-2.2.77-.78.87-2.02,1.82-2.69Z"/>
  <path class="cls-22" d="M202.18,426.96c-.06,2.63.13,5.37-1.86,6.16-1.58.63-2.94-1.78-4.12-3.1-5.39-6.02-8.73-13.22-11.9-20.56-2.72-6.3-4.39-12.74-4.2-19.62.04-1.27.31-2.54.36-3.82.04-1.05.02-2.06,1.25-2.45,1.27-.41,1.86.62,2.43,1.36,2.34,3.06,4.43,6.28,6.33,9.63,5.28,9.31,8.59,19.37,11.32,29.65.28,1.05.32,2.16.4,2.74Z"/>
  <path class="cls-94" d="M187.76,383.34l1.65,1.11c1.08.71,1.95,1.64,2.73,2.66,8.52,10.58,13.86,22.55,15.75,36.02.39,2.83.45,5.66-.29,8.46-.31,1.17-.78,2.25-1.82,2.98-.9.63-1.95.83-2.84.24-1.04-.69-.07-1.49.22-2.14,1.94-4.37.98-8.73-.42-12.88-3.22-9.52-6.16-19.19-11.72-27.74-1.58-2.43-3.4-4.72-4.43-7.47-.37-1.13-.23-1.77,1.17-1.24Z"/>
  <path class="cls-83" d="M145.18,427.32c-1.25-.22-1.39-1.51-1.73-2.41-.43-1.15.84-.98,1.4-1.12,6.77-1.65,13.5-3.48,19.67-6.81,5.15-2.78,10.22-5.72,15.26-8.7,1.15-.68,1.63-.79,2.16.59,1.05,2.73,2.19,5.43,3.43,8.09.68,1.46,0,1.77-1.2,1.87-1.64.14-3.29.38-4.93.36-11.11-.1-21.61,2.42-31.63,7.13-.74.35-1.52.63-2.45,1Z"/>
  <path class="cls-19" d="M129.47,442.85c1.07-1.07,2.14-2.15,3.21-3.22,1.72-1.71,3.48-3.36,5.64-4.52.65-.35,1.28-1.41,2.04-.49.65.78-.14,1.46-.69,2.04l.03-.04c-.38.92-.99,1.65-1.8,2.22-.13.15-.26.3-.39.45-.88,1.72-2.22,3-3.9,3.94l.04-.03c-.9.78-1.62,1.78-2.77,2.25l.04-.03c-.76.84-1.84,1.12-2.79,1.64-.55.3-1.21.7-1.67-.03-.42-.67.14-1.2.59-1.64.84-.83,1.59-1.73,2.44-2.54Z"/>
  <path class="cls-12" d="M135.08,423.11c-6.42.86-12.8.7-19.57.21,2.91-2.78,15.16-2.84,19.57-.21Z"/>
  <path class="cls-21" d="M209.74,431.21c.23,1.76,1.25,1.02,2.15.68,4.99-1.87,9.99-3.74,14.99-5.61.36.31,1.01.06,1.25.62-5.48,2.07-10.95,4.16-16.45,6.19-1.3.48-2.51,1.05-3.54,1.98.54-1.29,1.07-2.57,1.61-3.86Z"/>
  <path class="cls-17" d="M189.87,436.11c1.76-1.05,3.79-1.11,5.72-1.53.68-.15,1.54.03,1.42-1.11.94.76,1.88,1.52,2.82,2.28-4.5-.1-8.5,1.7-12.56,3.31.74-2.06,3.07-1.49,4.47-2.72-.69-.08-1.28-.16-1.87-.23Z"/>
  <path class="cls-118" d="M139.67,436.67c.24-.65.48-1.29.83-2.23-3.27,1.13-5.27,3.58-7.82,5.19,1.78-3.16,4.97-4.57,7.9-6.3.37-.22.84-.51,1.2-.01.3.41.17.9-.16,1.23-.67.69-.77,1.9-1.95,2.12Z"/>
  <path class="cls-118" d="M131.61,447.26c-1.46,1.47-3.25,2.35-5.26,2.65-1.23.18-2.72.47-3.49-.85-.72-1.24-.51-2.67.22-3.91.31-.53.81-.96,1.22-1.43-.02.27.06.61-.07.81-.87,1.37-1.71,2.99-.47,4.26,1.33,1.38,3.05.46,4.57-.25,1.06-.49,2-1.34,3.28-1.28Z"/>
  <path class="cls-44" d="M209.66,419.73c2.62-.93,5.24-1.86,7.86-2.78.33.3.9.08,1.14.55-2.94,1.12-5.88,2.25-8.82,3.37-.06-.38-.12-.76-.18-1.14Z"/>
  <path class="cls-118" d="M129.47,442.85c-.54,1.55-2.37,2.18-2.81,3.91,1.74.42,2.83-1,4.25-1.33-.02.09-.02.2-.08.26-1.2,1.38-2.69,2.11-4.55,1.99-.42-.03-.73-.34-.59-.73.68-1.89,2.03-3.19,3.78-4.11Z"/>
  <path class="cls-48" d="M195.99,388.81c2.9.51,4.89-2.07,7.59-2.26.64-.23.78.08.68.64-2.38.94-4.76,1.87-7.14,2.81-.49-.28-1.05-.51-1.13-1.19Z"/>
  <path class="cls-89" d="M195.52,380.66c-.99.4-1.98.81-2.98,1.2-.87.33-1.73.65-1.4,1.87-.99-.22-1.58-.99-2.28-1.62,2.02-.67,4.04-1.34,6.06-2.02.24.14.57.2.6.57Z"/>
  <path class="cls-118" d="M139.83,439.49c-1.28,2.41-3.16,4.24-5.5,5.61,1.46-2.24,3.43-3.97,5.5-5.61Z"/>
  <path class="cls-118" d="M133.61,443.24c1.3-1.31,2.6-2.63,3.9-3.94-.45,2.16-1.77,3.45-3.9,3.94Z"/>
  <path class="cls-17" d="M187.29,439.03c-1.18,1.26-2.34,2.53-3.91,3.33.96-1.51,1.88-3.08,3.91-3.33Z"/>
  <path class="cls-136" d="M187.76,383.34c-.79.04-1.12.51-1.17,1.24-.56-.6-1.12-1.19-1.69-1.79-.01-.94.53-.87,1.16-.63.56.4,1.13.79,1.69,1.19Z"/>
  <path class="cls-17" d="M185.94,437.77c1.05-1.19,2.43-1.62,3.96-1.67-1.14.97-2.48,1.49-3.96,1.67Z"/>
  <path class="cls-17" d="M179.84,443.27c.61-1.3,1.62-2.21,2.84-2.9-.48,1.43-1.47,2.35-2.84,2.9Z"/>
  <path class="cls-10" d="M192.14,387.11c-.91-.89-1.82-1.77-2.73-2.66,1.5.28,2.37,1.21,2.73,2.66Z"/>
  <path class="cls-118" d="M134.37,445.07c-.74.99-1.6,1.81-2.8,2.22.6-1.16,1.29-2.21,2.8-2.22Z"/>
  <path class="cls-118" d="M130.88,445.46c.73-.99,1.64-1.76,2.77-2.25-.54,1.22-1.24,2.25-2.77,2.25Z"/>
  <path class="cls-118" d="M143.26,434.59c-.35,1.07-.75,2.1-1.82,2.69.23-1.15.47-2.29,1.82-2.69Z"/>
  <path class="cls-10" d="M181.52,381.06c.97-.93,2.31-.58,3.44-.97.05.13.09.27.11.41-1.16.33-2.29.86-3.55.56Z"/>
  <path class="cls-10" d="M186.07,382.16c-.45.1-.99.03-1.16.63-.51-.08-1.39-.32-1.08-.75.57-.77,1.51-.54,2.24.11Z"/>
  <path class="cls-10" d="M185.01,380.5c1.24-.09,2.34.16,3.15,1.2-1.16-.12-2.3-.27-3.15-1.2Z"/>
  <path class="cls-118" d="M137.9,438.85c.6-.74,1.2-1.48,1.8-2.22.08,1.29-.62,1.95-1.8,2.22Z"/>
  <path class="cls-70" d="M307.3,395.97c.3.53.84.57,1.35.66-7.32,2.8-14.63,5.65-21.97,8.4-8.29,3.11-16.6,6.15-24.91,9.22-.61.15-1.27.4-1.29-.63,15.52-6.1,31.11-12.05,46.82-17.65Z"/>
  <path class="cls-113" d="M260.48,413.62c.28.51.81.52,1.29.63-8.71,3.6-17.55,6.87-26.46,9.93-.57.12-1.21.4-1.25-.6,8.73-3.51,17.51-6.92,26.42-9.96Z"/>
  <path class="cls-77" d="M234.06,423.59c.42.2.83.4,1.25.59-2.28,1.21-4.71,2.03-7.19,2.72-.48-.08-.97-.12-1.25-.62,2.4-.9,4.79-1.8,7.19-2.7Z"/>
  <path class="cls-6" d="M244.63,363.05c-8.01,3.2-16.15,6.02-24.32,8.77-.6.24-1.2.46-1.16-.58,5.15-1.99,10.31-3.98,15.46-5.98,2.93-.95,5.86-1.9,8.79-2.85.35.34,1.01.06,1.24.64Z"/>
  <path class="cls-8" d="M219.15,371.24c.39.19.77.39,1.16.58-4.49,1.91-9.11,3.49-13.76,4.96-.57.22-1.16.47-1.16-.54,4.59-1.67,9.18-3.33,13.76-5Z"/>
  <path class="cls-7" d="M205.38,376.24c.39.18.77.36,1.16.54-3.59,1.54-7.26,2.83-11.02,3.88-.2-.19-.4-.38-.6-.57,3.49-1.28,6.97-2.57,10.46-3.85Z"/>
  <path class="cls-79" d="M383.35,311.72c.29.53.81.6,1.33.67-10.15,3.72-20.29,7.48-30.45,11.16-24.91,9.04-49.84,18.04-74.76,27.05-.94.34-1.92.59-2.88.87-.6.16-1.29.48-1.24-.63,11.18-4.1,22.35-8.23,33.54-12.3,23.94-8.7,47.89-17.38,71.84-26.05.85-.31,1.75-.51,2.62-.77Z"/>
  <path class="cls-27" d="M275.35,350.84c.27.5.77.54,1.24.63-10.54,4.17-21.24,7.92-31.97,11.57-.47-.1-.97-.14-1.24-.64,10.58-4.06,21.2-8.01,31.96-11.57Z"/>
  <path class="cls-123" d="M237.43,494.95c-2.92.06-5.15-1.67-5.65-4.56-.34-1.97-.62-3.95-.36-6,.24-1.89.11-3.8-2.63-3.78-.81,0-1.48-.36-1.47-1.27.02-1.03.79-1.42,1.68-1.42.62,0,1.3.13,1.85.41,5.25,2.64,10.09,1.63,14.72-1.55.83-.57,1.66-1.15,2.52-1.66.75-.45,1.73-1.3,2.37-.23.44.73.85,2.22-.25,2.73-4.89,2.28-5.17,6.75-5.88,11.22-.55,3.42-3.91,6.07-6.9,6.13Z"/>
  <path class="cls-59" d="M246.48,445.24c-2.42-1.31-4.16-2.15-5.8-.31-.22.24-.7.21-.97-.13-.41-.52-.27-1.04.15-1.45.93-.89,1.9-1.78,3.33-1.58,1.58.23,2.51,1.19,3.3,3.47Z"/>
  <path class="cls-98" d="M341.5,372.34c.27.48.76.52,1.23.59-11.51,4.2-23.02,8.41-34.55,12.58-4.81,1.74-9.67,3.37-14.51,5.04-.58.17-1.23.5-1.21-.57,16.27-6.07,32.6-12.01,49.03-17.64Z"/>
  <path class="cls-108" d="M292.46,389.98c.27.48.76.48,1.21.57-9.1,3.57-18.31,6.82-27.58,9.9-.58.21-1.2.5-1.19-.56,9.13-3.46,18.28-6.86,27.56-9.91Z"/>
  <path class="cls-2" d="M264.91,399.89c.4.19.79.37,1.19.56-9.11,3.55-18.32,6.81-27.59,9.9-.58.23-1.17.51-1.14-.54,9.18-3.3,18.36-6.61,27.55-9.91Z"/>
  <path class="cls-137" d="M237.36,409.81c.38.18.76.36,1.14.54-4.49,1.95-9.14,3.46-13.79,4.95-.57.25-1.15.51-1.13-.52,4.59-1.65,9.18-3.31,13.77-4.96Z"/>
  <path class="cls-115" d="M223.58,414.77c.38.17.75.35,1.13.52-2.02.74-4.04,1.47-6.05,2.21-.44-.06-.9-.09-1.14-.55,2.02-.72,4.05-1.45,6.07-2.17Z"/>
  <path class="cls-97" d="M237.33,395.45c-.61-3.23-1.71-6.05-4.81-7.87-4.03-2.37-7.53-1.54-9.22,2.87-1.8,4.7-3.09,9.54.18,14.26,1.13,1.63,2.42,2.97,4.42,3.48.93.23,1.33,1.04,1.46,1.84.17,1.11-1,.79-1.54,1.17-4.11,2.92-9.72,2.24-13.65,5.76-1.19,1.07-4.11-.76-4.34-2.63-.92-7.43-4.21-13.94-7.85-20.3-1.77-3.09-1.69-3.17,1.62-4.57,6.21-2.63,12.93-3.87,19.02-6.64,3.94-1.79,8.09-2.77,12.01-4.45,1.18-.51,2.39-.94,3.67-.76.72.1,2.43,6.83,1.97,7.49-.47.67-.93,1.35-1.46,1.98-.73.88-1.9,1.51-1.14,3.02.72,1.43,1.82,2.56,3.34,2.51,3.6-.12,4.81,2.87,6.76,4.86.5.51.83,1.46,1.58,1.21,2.21-.73,4.69.47,6.75-1.09,1-.76,2.15-1.26,2.92-2.4,1.18-1.73,2.73-2.24,4.2-.25.87,1.18,1.59,1.18,2.22-.08.54-1.08,1.67-1.03,2.53-1.49.98-.52,2.09-.87,1.88-2.32h0c2.62.45,5.27,1.13,6.88-2.03.45-.88,1.02-.08,1.55.23,3.22,1.88,6.11.31,6.3-3.39.1-2.02,2.23-3.7,4.24-2.76,3.55,1.66,5.25-.67,6.95-2.77.92-1.13,1.33-1.52,2.43-.38,1.25,1.3,2.63,1.26,4.21.37,2.01-1.14,4.06-2.03,5.89-3.62,1.59-1.38.93-2.36.46-3.5-.51-1.24-1.57-1.68-2.95-1.22-2.13.72-4.59.48-6.05,2.9-.63,1.05-2.15,1-3.04-.24-1.52-2.12-3.3-2.01-5.14-.57-.77.6-1.49,1.04-1.96,0-.41-.91-2.37-1.31-1.02-2.89,1.44-1.68,1.07-3.89.85-5.69-.22-1.77-2.56-1.11-3.93-1.63-1.31-.49-2.14.28-2.28,1.26-.25,1.75-1.15,2.09-2.72,2.36-3.12.54-4.26,4.05-2.22,6.61.63.79,1.73,1.34.69,2.41-1.03,1.05-1.45-.52-2.18-.77-1.44-.5-2.68-1.24-3.77.6-.93,1.58-3.15.74-4.29,2.05.25.96.13,1.67-1.09,1.65-1.53-.22-2.58-1.24-2.13-2.61.83-2.51-1.36-3.46-2.17-5.1-.12-.25-.71-.54-.92-.44-1.68.76-2.75,2.31-3.88,3.61-.8.92.4,2.18,1.28,3,.85.8,2.79,1.36,1.57,2.79-.98,1.13-2.78,1.35-4.13-.12-.86-.94-2.16-1.41-1.88-3.26.23-1.55-2.77-3.94-4.41-3.82-1.38.1-2.35.96-1.84,2.38.5,1.4-.23,2.5-.43,3.72-.11.68-.71,1.37-1.57,1.27-.77-.09-.97-.78-.97-1.45,0-1.84-1-3.07-2.95-4.45,3.47-.5,5.17-3.27,8.77-3.54,3.6-.27,7.11-2.48,10.72-3.68,2.17-.72,4.6-1.43,6.38-2.4,3.35-1.83,7.16-1.6,10.3-3.39,3.87-2.21,8.21-2.76,12.33-4.08,4.17-1.34,8.24-2.98,12.3-4.62,3.21-1.29,6.67-1.92,9.64-3.84.72-.47,1.72-.44,2.62.04-.34.97-1.03,1.51-1.91,1.86-2.55,1-3.59,2.78-2.95,5.45.41,1.71.41,2.76-1.54,3.69-2,.95-2.34,3.23-1.67,5.24.63,1.88,1.67,3.64,3.67,4.54.32.15.69.37.86.66.8,1.41,1.35,3.12,3.53,2.68,2.1-.43,3.36-2.11,4.51-3.62.89-1.16,1.34-1.96,3.1-1.72,1.22.16,3.14.48,3.72-1.66.26-.97,1.03-.33,1.59-.15,5.22,1.67,5.96,1.41,9.18-3.03.56-.77,1.59-1.46,2.34-1.19,2.98,1.04,3.66-2.41,5.87-2.81.42-.08.39-.76.21-1.22-1.05-2.7.48-2.14,2.09-1.73,3.84.99,7.74.75,11.64.45.72-.06,1.32-.27,1.49-.97.57-2.39,2.36-1.79,3.93-1.63,2.03.21,3.99.56,5.94-.62,1.86-1.13,2.85-3.31,1.92-5.24-.52-1.09-1.3-1.53-2.68-1.2-1.78.42-3.04,0-3.26-2.38-.38-4.13-.57-8.4-3.6-11.78-.59-.66,1.81-3.26,3.24-3.38,5.53-.46,10.34-2.77,15.28-5.12,2.18-1.04,4.99-1.25,7.45-2.16,6.33-2.35,12.72-4.56,19.07-6.85,2.48-.89,5.39.86,4.75,3.32-.85,3.34,1.27,3.65,3.3,4.4.25.09.52.15.77.24.07.03.11.13.3.37-.93.73-2.58.62-2.61,2.51-.06,3.2.95,4.58,4.2,4.58,1.89,0,3.08.24,1.5,2.32-.77,1.01-.84,1.9-.12,3,.72,1.1,1.44,1.46,2.72.9.77-.33,1.83-.21,1.98.83.15,1.02-.76,1.72-1.6,1.98-13.12,4.02-25.99,8.8-38.72,13.85-3.35,1.33-7.08,1.83-10.36,3.97-1.9,1.24-5.26,1.53-7.95,2.26-1.43.39-2.77.98-3.88,1.98-.85.77-1.69,1.31-2.95.94-1.02-.3-2.04.24-2.89.69-3.64,1.92-7.61,3.32-11.38,4.57-4.53,1.5-9.13,2.91-13.6,4.62-3.58,1.37-7.44,2.04-10.65,4.46-1.23.92-3.18.15-4.87.83-7.54,3.01-15.21,5.73-22.83,8.53-1.97.72-4.04,1.22-5.93,2.1-4.48,2.08-9.19,3.71-13.78,5.33-4.08,1.45-8.09,3.56-12.56,4.08-2.18.25-4.22,1.17-5.89,2.74-.38.36-.95.71-1.44.72-5.94.1-10.8,3.65-16.33,5.08-.77.2-1.36,1.07-2.2,1.77-.51-1.52.4-2,1.18-2.77,2.24-2.21,3.95-4.72,3.18-8.14-1.26-.73-2.07-1.99-3.3-2.75Z"/>
  <path class="cls-97" d="M358.7,335.05c-.94,1.3-1.08,7.17-.3,8.49.32.54.5,1.17.76,1.75.29.65.3,1.24-.35,1.69-.88.61-.97-.56-1.53-.69-.07-.02-.14-.12-.19-.19-.89-1.19-1.13-3.34-2.87-3.33-3.02.02-6.15.68-7.94,3.41-1.1,1.67-1.62,1.24-2.89.34-2.54-1.8-4.51-1.17-6.04,1.52-1.06,1.85-1.89,3.55-4.92,2.99-2.22-.41-5.13-.3-6.66,2.49-.39.71-1.52,1.77-2.11.49-.91-1.95-2.57-3.25-3.64-5.03-.53-.87-.48-1.2.6-1.46,5.59-1.33,10.87-3.52,16.17-5.74,5.13-2.15,10.57-3.6,15.9-5.26,1.95-.61,3.71-2.06,6-1.49Z"/>
  <path class="cls-36" d="M263.26,393.1c-1.36-1.72-1.79-4.01-3.52-5.78-.88,1.46-.31,2.89-.32,4.24,0,1.35-.3,2.46-1.93,2.33-.91-.07-1.21.39-1.68,1.01-2.17,2.85-5.27,3.08-7.77.55-.95-.96-1.8-2.12-2.37-3.33-.83-1.74-1.6-3.05-3.84-1.94-.7.35-1.48.01-1.78-.82-.3-.82.08-1.58.83-1.78,2.49-.66,1.85-2.15,1.18-3.77-.49-1.18-.89-2.4-1.25-3.63-.29-1-.41-2.13.86-2.53,1.3-.41,1.74.59,2.07,1.61.39,1.22.88,2.41,1.19,3.65.56,2.25,1.63,2.62,3.42,1.14.98-.81,1.93-1.82,3.83-.61-.65-2.12-1.19-3.64-1.56-5.2-.24-1.01-.2-2.15,1.11-2.42,1.19-.24,1.45.73,1.76,1.65.79,2.33,1.65,4.63,2.59,7.23,1.4-.69,2.51-1.85,4.07-1.28,1.38.51,2.05,1.73,2.96,2.71,2.36,1.25,2.83,3.42,2.59,5.78-.14,1.39-.98,2.13-2.44,1.19Z"/>
  <path class="cls-134" d="M283.55,372.71c.39-1.84.76-3.69,1.17-5.54.26-1.14.74-2.26,2.16-1.91,1.46.36,1.23,1.57.96,2.7-.28,1.16-.37,2.38-.82,3.46-1.32,3.17.84,4.93,2.72,6.66,1.32,1.22,1.62-.33,1.92-1.19.34-.99.23-2.53,1.83-2.13,1.68.43,1.39,1.95,1.07,3.2-.98,3.82-3.39,4.77-6.75,2.66-.7-.44-1.17-1.06-2.02-.08-1.51,1.74-2.6.65-3.28-.83-1.03-2.24-1.88-4.57-2.77-6.87-.37-.95-.81-2.07.41-2.65,1.42-.68,1.92.49,2.36,1.54.18.42.32.86,1.05.97Z"/>
  <path class="cls-102" d="M365.6,344.7c-.08.93-.2,1.57-.17,2.21.09,2.18,2.12,3.58,4.14,2.77.93-.37,1.76-.71,2.39.32.59.98,0,1.78-.67,2.43-1.45,1.4-3.11,1.38-4.83.57-.66-.31-1.48-1.09-1.92-.92-4.05,1.64-3.22-.71-2.78-3.09.13-.68-.52-1.52-.85-2.27-1.21-2.81-2.14-5.67-1.7-8.78.19-1.33.63-2.61,2.14-2.85,1.54-.24,2.28.91,2.83,2.13,1.12,2.47,1.43,5.09,1.41,7.49Z"/>
  <path class="cls-36" d="M352.33,344.27c2.26-.44,3.24.89,3.94,3.16.7,2.29.74,5.17,3.9,6.03.78.21.8,1.19.4,1.89-.56,1-1.73,1.59-2.54.97-1.61-1.23-2.91-.52-4.47-.06-1.98.59-3.88.04-5.06-1.79-1.72-2.67-1.74-5.53-.36-8.34.77-1.58,2.22-2.07,4.19-1.88Z"/>
  <path class="cls-101" d="M314.5,360.68c-.49-1.66-1-3.31-1.48-4.98-.3-1.04-.38-2.09.88-2.5,1.1-.35,1.75.42,2.07,1.33,1.46,4.14,2.94,8.29,3.28,12.7.14,1.81-.06,3.86-2.12,4.65-2.15.82-3.44-.8-4.51-2.27-1.02-1.39-1.8-2.96-2.59-4.5-.5-.96-1.14-2.18.2-2.88,1.36-.71,1.87.57,2.44,1.5.76,1.22.94,2.78,2.18,3.72,1.89-.3.78-1.56.79-2.46.08-.12.06-.23-.05-.32-.44-1.31-.68-2.67-1.1-3.98Z"/>
  <path class="cls-134" d="M272.61,378.98c1.87-1.98,3.5-1.95,5.45.11,1.87,1.98,2.33,4.92,4.63,6.66.63.48.17,1.39-.43,1.9-.81.69-1.7.62-2.5-.02-1.18-.93-1.72-2.32-2.42-3.59-.54-.97-.74-2.22-2.25-2.88-.12,2.64-.23,5.04-.34,7.44-.67,1.09-1.59,1.06-2.54.49-1.78-1.06-4.01-7.44-3.44-9.71.68-.5,1.38-.35,2.01.05.81.51,1.34.12,1.84-.46Z"/>
  <path class="cls-69" d="M331.72,360.33c-3.11.28-4.8-.66-5.1-2.71-.32-2.17,1.75-5.03,3.87-5.34.86-.13,1.72-.08,2.13.82.44.97-.16,1.56-.99,1.93-.84.38-2.01.79-1.56,1.85.45,1.05,1.61.29,2.45.18,1.97-.27,3.74,0,4.67,2,.96,2.06.36,3.97-1.03,5.62-1.31,1.55-3.02,1.57-4.79.91-.81-.31-1.5-.84-1.37-1.83.13-1,.88-1.4,1.8-1.26,1.28.19,2.71.34,2.45-1.45-.24-1.7-1.78-.52-2.54-.72Z"/>
  <path class="cls-29" d="M237.33,395.45c2.02-.18,2.62,1.33,3.3,2.75-.86,1.68-1.35,3.5-2.46,5.1-3.78,5.42-8.76,5.63-12.68.33-2.23-3.01-2.92-6.47-2.42-10.12.52-3.75,2.9-5.87,6.15-5.76,3.27.11,6.26,3.21,6.45,6.69.03.64,0,1.28,0,2.13.79-.13,1.22-.61,1.65-1.11Z"/>
  <path class="cls-93" d="M340.5,347.58c.52.12,1.13.09,1.54.37,2.25,1.54,4.15,8.44,3.06,10.99-.25.58-.55,1.15-1.24,1.34-3.84.44-8.14-4.76-7-8.46.23-.76.81-.9,1.47-.95.28,0,.56.08.81.2,1.26,1.25,1.03,3.25,2.23,4.55.36-2.18-1.86-3.5-1.83-5.56.11-.91-.28-2.02.96-2.49Z"/>
  <path class="cls-87" d="M323.32,343.73c.27.48.76.5,1.22.58-10.07,3.65-20.13,7.31-30.2,10.94-2.23.81-4.51,1.51-6.76,2.26-.58.21-1.21.51-1.18-.56,12.24-4.59,24.53-9.05,36.92-13.21Z"/>
  <path class="cls-50" d="M320.52,358.65c0-1.3.1-2.27,1.29-2.4,1.01-.11,1.36.66,1.58,1.53.62,2.54.99,5.17,3.03,7.16.65.63.42,1.62-.39,2.13-1.02.65-1.99.27-2.63-.62-1.75-2.42-2.44-5.24-2.87-7.8Z"/>
  <path class="cls-24" d="M234.06,375.69c9.73-3.49,19.47-6.98,29.2-10.47.37.24.93.05,1.18.55-9.67,3.72-19.43,7.15-29.26,10.43-.57.26-1.13.5-1.12-.51Z"/>
  <path class="cls-65" d="M263.72,384.55c-.16-.39-.31-.79-.47-1.18-.54-3.18-.21-3.67,2.15-3.16.13.14.27.29.4.43.82.74.82,1.84,1.2,2.77v-.02c.8,1.5,1.45,3.07,2.24,4.58.84,1.6.62,2.8-1.35,3.25-2.76-1.37-3.42-4.05-4.18-6.66Z"/>
  <path class="cls-100" d="M264.44,365.77c-.39-.18-.79-.36-1.18-.55,7.65-2.93,15.34-5.77,23.14-8.28.27.45.73.49,1.18.56-7.62,3.03-15.35,5.72-23.14,8.27Z"/>
  <path class="cls-38" d="M307.88,374.19c-.03.76-.41,1.27-.9,1.69-1.62,1.42-3.6,2.12-5.64,2.67-.77.21-1.49.06-1.8-.79-.3-.81.05-1.49.77-1.83,1.9-.87,3.8-1.74,5.61-2.81.98-.59,1.73,0,1.95,1.06Z"/>
  <path class="cls-11" d="M234.06,375.69c.37.17.75.34,1.12.51-7.21,2.86-14.54,5.4-21.92,7.79-.61.22-.79-.04-.7-.62,7.17-2.56,14.33-5.12,21.5-7.69Z"/>
  <path class="cls-138" d="M269.3,379.47c-1.05.79-.67,1.81-.33,2.71.69,1.77,1.5,3.5,2.28,5.23.73,1.63,1.87,2.13,3.49,1.19-1.46,1.8-2.59,1.76-3.77-.3-1.48-2.59-2.69-5.32-3.33-8.27.36-.55.73-1.1,1.09-1.65,1.2-.07,2.39-.05,3.46.62.18.96-.05,1.43-1.07.86-.58-.33-1.07-1-1.84-.38Z"/>
  <path class="cls-75" d="M263.72,384.55c1.8,1.85,1.71,4.9,4.08,6.39-.18.32-.42.38-.72.18-.98-.6-.72,0-.86.68-.33,1.65-1.08,2.9-2.95,1.3,2.27.32,2.8-.78,2.02-2.67-.61-1.48-1.43-2.87-2.16-4.31.7-.33.6-.97.6-1.57Z"/>
  <path class="cls-69" d="M338.83,351.36c-1,.01-1.73.22-1.75,1.5-.07,3.69,3.1,7.22,6.78,7.42-1.02,1.03-2.19.76-3.26.24-2.75-1.35-4.75-7.2-3.55-10.19,1.13-.58,1.63-.07,1.79,1.03Z"/>
  <path class="cls-15" d="M212.56,383.38c.23.21.46.41.7.62-2.86,1.44-5.93,2.32-8.99,3.2-.23-.21-.45-.43-.68-.64,2.99-1.06,5.99-2.12,8.98-3.17Z"/>
  <path class="cls-131" d="M321.02,352.72c0,.95-.44,1.65-1.38,1.71-1.05.07-1.7-.6-1.74-1.65-.04-.96.54-1.52,1.5-1.53.96-.02,1.44.6,1.62,1.48Z"/>
  <path class="cls-126" d="M263.71,375.72c-.15.91-.61,1.53-1.59,1.55-.88.02-1.38-.58-1.43-1.36-.05-.92.47-1.62,1.43-1.69.99-.08,1.46.57,1.59,1.51Z"/>
  <path class="cls-138" d="M267.08,391.12c.24-.06.48-.12.72-.18,1.65-.46,1.79-1.49,1.15-2.89-.7-1.53-1.72-2.94-1.96-4.66,1.58,2.32,3.66,4.44,2.86,7.65,0,0,0,0,0,0-.91.41-1.82.98-2.77.08Z"/>
  <path class="cls-75" d="M265.4,380.21c-3.03-.52-1.94,1.76-2.15,3.16-.94-1.13-.94-2.37-.03-3.41.62-.71,1.58-.91,2.18.25Z"/>
  <path class="cls-74" d="M269.3,379.47c.64-.89,1.26-.4,1.85.04.72.54.92.1,1.06-.52.13-.03.27-.04.41-.02,0,1.79-.44,2.57-2.08.98-.29-.28-.82-.33-1.23-.48Z"/>
  <path class="cls-97" d="M328.74,363.64c0,.38-.06.77-.54.75-.5-.01-.82-.34-.86-.84-.03-.39.18-.74.58-.77.54-.04.74.38.82.86Z"/>
  <path class="cls-72" d="M314.5,360.68c.73,1.23,1.15,2.54,1.1,3.98-.89-1.18-1.27-2.51-1.1-3.98Z"/>
  <path class="cls-72" d="M315.65,364.98c.62.77.73,1.74.49,2.57-.4,1.37-.89.53-1.29-.11,1.04-.57.5-1.65.79-2.46Z"/>
  <path class="cls-46" d="M340.5,347.58c-.82.77-.78,1.74-.68,2.74-.1.06-.19.11-.29.17-.09-.07-.18-.13-.26-.2.07-1.06-.72-2.5,1.23-2.7Z"/>
  <path class="cls-46" d="M338.83,351.36c-.22-1-1.17-.72-1.79-1.03.72-.97,1.48-.32,2.23-.05,0,0,.02.02.02.02.3.41.34.82-.05,1.2-.13-.07-.26-.12-.41-.14Z"/>
  <path class="cls-138" d="M267,383.41c-.79-.75-.99-1.76-1.2-2.77,1.2.58,1.35,1.61,1.2,2.77Z"/>
  <path class="cls-135" d="M184.51,417.16c.31.88-.45.79-.89,1-1.04.5-2.16.41-3.25.37-11.28-.4-21.95,1.96-32.15,6.74-.99.47-2.75,2.09-3.4.06-.39-1.22,1.69-1.08,2.71-1.33,10.64-2.55,20.21-7.49,29.46-13.14.23-.14.45-.32.68-.46,3.25-1.93,3.23-1.92,4.68,1.71.64,1.61,1.37,3.19,2.06,4.79.04.08.06.17.1.26Z"/>
  <path class="cls-110" d="M379.05,349.86c-1.09.04-1.85-.07-2.12-.9-.32-.97.23-1.61,1.09-1.9,2.34-.78,4.69-1.51,7.05-2.21.74-.22,1.5-.09,1.86.73.42.95-.11,1.7-.91,1.99-2.4.87-4.84,1.59-6.98,2.28Z"/>
  <path class="cls-62" d="M258.29,389.16c.02.14.03.6.17,1.03.33,1.06.87,2.37-.59,2.76-1.15.3-1.53-.95-1.88-1.93-1.44-4.04-2.92-8.07-4.38-12.1-.21-.58-.72-1.35.03-1.71,1.03-.49,1.16.65,1.39,1.22.83,2.03,1.54,4.1,2.31,6.15.49,1.3,1.2,1.57,2.12.39,1.13-1.45,2.42-1.2,3.56-.18,1.8,1.63,2.73,3.86,3.72,6.02.2.43.15.93-.37,1.15-.5.21-.89-.05-1.13-.49-.65-1.21-1.18-2.49-1.95-3.63-.47-.7-1.04-1.84-2.07-1.42-.88.35-.96,1.47-.92,2.73Z"/>
  <path class="cls-96" d="M252.3,383.34c.9,2.39,1.25,4.07,2.11,5.43,1.62,2.57-.35,3.8-1.84,4.78-1.82,1.19-2.73-.69-3.62-1.91-1.42-1.92-2.43-3.77.88-4.98,1.09-.4,1.85-1.42,2.47-3.32Z"/>
  <path class="cls-88" d="M350.21,350.19c.2-1.37.04-3.18,1.79-2.9,2.14.33,1.78,2.68,2.22,4.2.32,1.11-.84,1.87-1.87,1.8-1.98-.13-1.86-1.86-2.14-3.1Z"/>
  <path class="cls-66" d="M227.9,399.49c.61,1.96,1.7,3.6,3.88,3.71,2.08.11,2.77-1.82,3.72-3.25.15-.23.21-.51.35-.74.69-1.15.88-3.39,2.87-2.35,1.75.91.49,2.62,0,3.91-.57,1.46-1.48,2.74-2.59,3.86-2.32,2.36-5.29,2.6-7.95.66-3.63-2.65-5.5-8.97-3.85-13.14.79-2.01,2.1-3.5,4.42-3.57,2.58-.08,4.32,1.36,5.51,3.48,1.11,1.99,1.16,4.09-.23,5.97-1.67,2.24-3.55,1.06-5.37.12-1.26-.41-1.37-1.34-1.01-2.39.49-1.44,1.85-1.18,3.11-1.37-.05-1.13-.65-1.72-1.67-1.69-.99.03-1.21.91-1.43,1.73-.48,1.73-.03,3.39.25,5.07Z"/>
  <path class="cls-61" d="M227.9,399.49c-1.14-1.89-1.37-3.91-.74-5.99.36-1.2,1.06-2.3,2.55-1.71,1.44.57,2.37,1.69,2.21,3.38-.06.68-.52.99-1.13.61-.77-.48-1.47-1.27-2.38-.37-.95.95-.16,1.84.23,2.72-.57.28-.67.81-.76,1.35Z"/>
  <path class="cls-5" d="M339.24,351.5c.02-.4.03-.8.05-1.2.18,0,.35,0,.53.01,1.3,1.66,2.29,3.45,2.54,5.58.06.52.29,1.19-.39,1.41-.65.21-.92-.45-1.16-.91-.82-1.53-1.55-3.1-1.58-4.9Z"/>
</svg>