<?xml version="1.0" standalone="no"?>
<!DOCTYPE svg PUBLIC "-//W3C//DTD SVG 20010904//EN"
 "http://www.w3.org/TR/2001/REC-SVG-20010904/DTD/svg10.dtd">
<svg version="1.0" xmlns="http://www.w3.org/2000/svg"
 width="800.605850pt" height="563.475176pt" viewBox="0 0 800.605850 563.475176"
 preserveAspectRatio="xMidYMid meet">
<metadata>
Created by potrace 1.12, written by Peter Selinger 2001-2015
</metadata>
<g transform="translate(-139.034165,810.870075) scale(0.100000,-0.100000)"
fill="#000000" stroke="none">
<path d="M7553 8086 c-24 -21 -28 -31 -26 -69 2 -51 23 -99 62 -140 l26 -29
-30 -24 c-59 -48 -104 -44 -168 16 -44 41 -42 33 -34 145 2 24 -2 31 -19 33
-27 4 -51 -25 -63 -76 -19 -88 39 -189 119 -207 17 -4 30 -11 30 -16 0 -5 -19
-30 -41 -54 -39 -42 -45 -45 -93 -45 -39 0 -58 5 -74 20 -31 29 -60 91 -67
142 -12 84 -14 90 -38 86 -31 -4 -47 -43 -47 -116 0 -67 13 -103 52 -139 35
-33 114 -65 156 -63 54 3 54 3 38 -28 -14 -26 -63 -46 -583 -235 -2147 -780
-2688 -976 -2918 -1062 -143 -53 -325 -121 -404 -150 l-144 -53 -44 20 c-40
17 -49 18 -86 6 -33 -10 -45 -21 -62 -55 -17 -37 -31 -48 -100 -83 -44 -21
-93 -42 -110 -46 -16 -4 -48 -15 -70 -25 -29 -14 -65 -19 -131 -19 -112 0
-181 12 -309 55 -146 49 -210 58 -355 50 -69 -4 -146 -11 -173 -16 -122 -23
-234 -109 -335 -259 -86 -126 -122 -267 -122 -468 1 -142 18 -243 58 -342 16
-41 37 -95 46 -120 24 -68 105 -171 246 -312 145 -147 172 -162 355 -204 96
-21 146 -27 245 -27 193 -1 289 26 374 102 25 22 141 188 200 284 99 162 200
303 260 363 66 66 78 74 154 98 89 28 141 33 160 14 6 -6 32 -11 57 -12 39 -1
51 3 71 27 26 31 10 24 689 276 237 88 570 212 740 276 171 64 843 317 1495
562 652 244 1208 453 1236 464 46 18 60 19 165 9 62 -5 147 -15 187 -21 92
-13 148 -2 258 51 59 29 95 54 129 92 99 110 215 310 245 424 11 42 29 93 39
113 24 47 196 182 328 258 54 31 112 68 128 82 17 14 51 39 76 54 114 72 71
121 -71 82 -273 -75 -368 -79 -450 -19 -25 18 -90 80 -144 138 -54 59 -111
113 -126 121 -60 31 -158 39 -301 26 -74 -7 -161 -20 -194 -28 -85 -20 -243
-72 -289 -96 -38 -19 -41 -19 -72 -2 -45 24 -67 73 -59 129 6 38 4 46 -13 55
-27 15 -27 15 -59 -13z m926 -122 c39 -11 57 -23 71 -47 11 -18 20 -34 20 -37
0 -3 -36 -46 -81 -95 -118 -132 -124 -146 -124 -285 1 -101 4 -121 25 -164 49
-100 157 -176 251 -176 27 0 30 -3 23 -22 -46 -153 -192 -331 -320 -394 -40
-20 -81 -29 -152 -36 -87 -9 -350 -3 -361 7 -2 3 2 11 9 20 18 22 5 45 -27 45
-15 0 -62 -6 -103 -14 -41 -8 -77 -12 -79 -10 -6 6 39 44 102 86 26 17 47 37
47 43 0 28 -28 36 -96 29 l-69 -6 49 50 c66 68 56 82 -57 82 l-80 0 44 35 c54
41 92 91 83 106 -5 8 -36 9 -102 5 -88 -7 -95 -6 -82 9 7 9 33 28 57 42 28 16
43 31 41 42 -3 13 -17 16 -82 14 -88 -2 -87 -10 -9 84 69 82 58 97 -49 67 -32
-9 -61 -14 -64 -11 -3 2 2 30 11 61 18 61 85 149 171 225 63 55 278 163 389
194 224 64 435 84 544 51z m-1189 -523 c0 -6 -10 -17 -21 -25 -14 -10 -19 -21
-15 -32 6 -14 16 -16 76 -10 39 3 70 3 70 -1 -1 -5 -11 -20 -23 -35 -18 -22
-155 -75 -832 -317 -445 -159 -1091 -390 -1435 -514 -344 -124 -841 -302
-1105 -397 -264 -94 -505 -182 -535 -195 l-55 -24 -56 62 -57 62 47 17 c25 10
267 96 536 192 457 162 1290 463 2775 1001 338 123 618 224 623 224 4 1 7 -3
7 -8z m109 -205 c38 8 39 -2 6 -28 -28 -22 -34 -72 -11 -81 8 -3 48 -4 88 -1
72 5 73 5 48 -13 -154 -113 -156 -129 -17 -127 53 1 97 -1 97 -4 0 -4 -23 -30
-51 -58 -28 -29 -48 -57 -45 -63 4 -6 36 -11 72 -11 l65 0 -58 -54 -58 -54
-715 -258 c-916 -329 -2342 -844 -2805 -1013 -197 -72 -362 -127 -366 -123 -3
4 -14 39 -23 77 -27 107 -90 261 -151 363 -53 91 -54 93 -32 102 12 5 126 46
252 91 453 159 2768 985 3370 1202 l260 93 22 -23 c17 -18 29 -21 52 -17z
m157 -537 c7 -12 116 -7 163 7 35 10 23 -16 -20 -43 -19 -12 -45 -30 -59 -41
-27 -20 -28 -21 -1200 -462 -931 -351 -2056 -776 -2470 -935 -166 -63 -305
-115 -308 -115 -4 0 -6 48 -6 107 l1 108 439 156 c242 86 716 255 1054 376
338 122 779 280 980 352 201 72 595 214 875 315 281 102 518 185 527 185 9 1
20 -4 24 -10z m-4205 -807 c148 -182 259 -471 259 -675 0 -94 -15 -141 -47
-149 -36 -9 -42 1 -26 40 12 28 14 57 10 117 -10 136 -146 491 -246 639 -35
52 -81 132 -81 141 0 21 74 -44 131 -113z m-174 76 c71 -79 189 -294 233 -428
18 -52 42 -122 55 -155 35 -94 49 -192 36 -242 -7 -24 -18 -43 -25 -43 -8 0
-41 29 -74 65 -109 119 -262 445 -278 590 -7 73 -6 214 2 227 9 14 30 8 51
-14z m-100 -126 c2 -26 10 -89 20 -140 9 -51 14 -94 12 -96 -20 -19 -204 -130
-284 -171 -113 -60 -320 -129 -380 -128 -22 0 -87 13 -145 27 -91 24 -119 27
-211 22 -147 -6 -209 -35 -195 -91 3 -13 16 -30 28 -36 39 -21 226 -23 331 -5
122 22 149 20 162 -18 9 -25 6 -31 -20 -53 -17 -13 -52 -36 -80 -50 -28 -15
-92 -68 -148 -124 -97 -97 -98 -99 -95 -141 3 -42 4 -43 40 -46 48 -4 100 23
187 98 66 57 161 182 161 212 0 24 29 44 126 86 109 48 162 65 312 97 126 28
190 31 292 14 69 -12 69 -12 106 -67 20 -31 57 -77 82 -104 25 -27 43 -49 41
-51 -2 -1 -43 -12 -92 -24 -141 -36 -213 -104 -375 -358 -39 -60 -88 -135
-110 -165 -21 -30 -51 -76 -66 -102 -70 -120 -149 -178 -273 -197 -188 -29
-488 13 -592 82 -103 70 -314 298 -361 391 -32 66 -90 224 -100 274 -4 26 -12
96 -16 155 -6 91 -3 127 16 230 28 152 32 162 100 267 67 101 140 169 224 210
53 25 82 31 200 41 166 13 244 4 391 -46 125 -42 279 -69 356 -62 63 5 161 38
274 92 39 18 72 31 74 29 3 -3 6 -26 8 -52z m96 -378 c22 -52 36 -98 33 -102
-4 -3 -74 -10 -157 -14 -123 -6 -173 -13 -282 -42 -72 -19 -167 -51 -210 -70
-43 -20 -80 -36 -82 -36 -3 0 -11 13 -20 29 l-15 30 55 11 c91 19 254 77 340
122 97 50 266 146 280 159 5 5 11 9 15 9 3 0 22 -43 43 -96z m-902 -166 c22
-6 39 -14 39 -18 0 -17 -192 -26 -309 -14 -64 7 -77 18 -38 34 32 13 263 12
308 -2z m129 -226 c0 -29 -123 -158 -194 -206 -46 -31 -82 -35 -67 -8 16 29
143 150 196 186 52 36 65 42 65 28z"/>
<path d="M6376 6865 c-23 -23 -21 -103 5 -173 12 -31 21 -74 20 -94 -2 -41 10
-54 36 -39 13 6 26 5 43 -5 52 -28 124 -5 118 39 -3 19 -9 22 -42 20 -65 -4
-73 6 -78 99 -7 131 -54 201 -102 153z"/>
<path d="M6171 6691 c-42 -42 -35 -153 12 -186 24 -16 84 -20 106 -6 9 6 22 4
37 -6 17 -11 27 -12 43 -3 28 15 27 48 -2 59 -16 6 -29 25 -41 58 -33 93 -37
98 -88 101 -36 2 -52 -2 -67 -17z m89 -76 c14 -42 8 -65 -18 -65 -27 0 -42 20
-42 55 0 36 6 45 31 45 11 0 22 -13 29 -35z"/>
<path d="M6750 6677 c-50 -17 -66 -27 -68 -43 -5 -32 19 -35 97 -10 79 25 97
37 88 60 -8 21 -39 20 -117 -7z"/>
<path d="M6004 6636 c-3 -7 6 -35 20 -61 15 -26 26 -62 26 -79 -1 -30 -1 -30
-16 -11 -8 11 -20 40 -26 63 -12 48 -32 63 -54 40 -22 -21 8 -112 52 -156 36
-36 66 -37 92 -4 26 34 5 160 -35 204 -19 21 -51 24 -59 4z"/>
<path d="M5622 6578 c-16 -16 -15 -33 4 -48 22 -19 54 12 38 37 -14 22 -27 26
-42 11z"/>
<path d="M5799 6541 c-21 -21 -29 -39 -29 -64 0 -48 22 -62 87 -60 46 2 54 -1
51 -15 -2 -11 -16 -19 -38 -22 -46 -7 -55 -45 -15 -60 41 -15 54 -12 86 19 36
37 40 90 8 122 -18 18 -29 21 -70 16 -27 -3 -49 -3 -49 1 0 4 14 19 32 33 28
23 30 29 19 43 -20 24 -49 19 -82 -13z"/>
<path d="M5523 6534 c-3 -8 6 -55 21 -102 14 -48 29 -102 33 -121 9 -48 -12
-37 -46 24 -30 55 -63 68 -69 27 -4 -28 53 -126 86 -148 47 -31 92 7 92 75 0
32 -34 165 -56 221 -17 42 -49 55 -61 24z"/>
<path d="M5670 6490 c-33 -21 23 -192 66 -198 35 -5 47 21 25 50 -11 14 -28
52 -37 86 -17 62 -30 77 -54 62z"/>
<path d="M5015 6318 c-2 -7 -10 -40 -18 -73 l-13 -60 -15 30 c-16 33 -36 39
-52 13 -8 -12 -2 -36 24 -99 39 -95 58 -112 88 -85 19 17 23 18 39 4 9 -8 26
-18 36 -22 44 -15 109 71 86 114 -16 30 -38 24 -54 -15 -8 -19 -18 -35 -21
-35 -4 0 -21 15 -37 32 -29 31 -30 35 -23 88 14 100 13 115 -13 118 -12 2 -24
-3 -27 -10z"/>
<path d="M5335 6157 c-61 -33 -73 -52 -44 -70 11 -7 31 -2 75 19 48 24 59 33
59 54 0 35 -20 34 -90 -3z"/>
<path d="M4580 6155 c-18 -21 -5 -47 22 -43 26 3 37 36 16 49 -18 12 -24 11
-38 -6z"/>
<path d="M4394 6125 c-6 -15 -3 -42 12 -92 5 -18 2 -23 -12 -23 -11 0 -30 -9
-44 -20 -14 -11 -30 -20 -36 -20 -6 0 -19 26 -29 58 -22 67 -37 87 -59 79 -22
-9 -20 -46 5 -109 13 -33 17 -54 10 -56 -6 -2 -21 -12 -33 -22 -19 -15 -20
-20 -9 -34 10 -12 23 -15 47 -10 31 6 34 3 54 -36 32 -63 66 -90 112 -90 29 0
46 7 66 27 15 15 32 28 37 29 6 0 16 2 23 2 8 1 12 20 12 57 0 30 3 55 8 55 4
0 18 -21 32 -48 26 -49 64 -69 76 -38 7 19 -28 96 -63 137 -26 31 -69 39 -91
17 -16 -16 -19 -11 -51 74 -27 73 -54 98 -67 63z m55 -204 l22 -59 -24 -26
c-33 -35 -52 -33 -82 11 -30 44 -32 69 -7 77 11 4 29 18 42 31 13 14 24 25 25
25 1 0 12 -27 24 -59z"/>
<path d="M4793 6087 c-14 -19 -22 -22 -35 -14 -23 15 -50 -9 -42 -37 18 -62
58 -136 77 -142 34 -11 50 21 42 85 -8 67 3 65 47 -9 25 -42 39 -55 57 -55 40
0 49 28 20 63 -13 17 -35 48 -48 70 -37 62 -87 78 -118 39z"/>
<path d="M4618 6048 c-13 -36 58 -183 87 -183 32 0 29 34 -10 118 -26 56 -41
77 -54 77 -10 0 -21 -6 -23 -12z"/>
<path d="M3948 5891 c-84 -66 -48 -256 57 -302 35 -15 49 -17 72 -8 38 14 71
46 95 92 24 48 21 81 -9 85 -17 3 -26 -6 -41 -40 -39 -87 -91 -100 -132 -33
-28 45 -32 127 -9 151 22 21 56 4 65 -32 8 -30 -2 -42 -18 -26 -21 21 -48 14
-48 -12 0 -51 85 -76 114 -34 27 39 20 94 -16 133 -43 46 -92 56 -130 26z"/>
<path d="M5462 5691 c-29 -10 -66 -31 -82 -46 -23 -22 -39 -28 -82 -30 -71 -3
-98 -13 -98 -35 0 -23 17 -29 52 -19 25 7 27 6 18 -12 -6 -10 -22 -81 -35
-157 -76 -434 -210 -805 -368 -1022 -73 -100 -205 -222 -286 -263 -41 -20 -76
-36 -78 -33 -2 2 7 26 20 53 63 124 92 310 68 437 -6 33 -10 61 -8 62 1 2 29
-10 61 -26 32 -17 67 -30 78 -30 80 0 198 153 233 302 17 73 18 88 7 88 -5 0
-16 -26 -25 -57 -21 -74 -79 -174 -138 -235 -36 -38 -52 -48 -78 -48 -32 0
-87 24 -130 58 -25 20 -26 60 0 53 36 -10 71 -13 94 -7 65 16 185 169 185 235
l0 35 -26 -52 c-50 -101 -165 -203 -209 -186 -12 5 -7 11 23 24 44 20 102 86
131 151 22 47 27 99 11 99 -5 0 -10 -7 -10 -15 0 -49 -90 -173 -145 -199 -33
-16 -37 -16 -77 2 -27 12 -67 46 -107 91 -48 54 -79 80 -120 98 -169 76 -290
97 -401 69 -80 -20 -272 -116 -346 -174 -30 -24 -113 -116 -188 -210 -74 -92
-171 -204 -218 -250 l-84 -82 -53 10 c-30 5 -73 10 -96 10 -51 0 -167 -41
-177 -64 -5 -9 -12 -24 -16 -33 -5 -9 -25 -25 -45 -36 -36 -19 -47 -40 -27
-52 6 -4 8 -15 5 -24 -3 -11 2 -24 11 -32 14 -12 20 -9 48 23 17 20 40 38 51
40 16 3 21 12 23 49 3 43 5 47 40 58 20 7 68 11 106 9 l70 -3 -57 -43 c-31
-23 -57 -47 -57 -52 0 -12 69 13 130 47 l50 28 26 -26 26 -26 -78 -63 c-43
-34 -93 -69 -111 -78 -35 -16 -43 -32 -18 -32 25 0 121 46 184 89 l60 41 15
-22 c14 -20 14 -24 -1 -41 -10 -10 -43 -35 -75 -54 -32 -20 -58 -40 -58 -45 0
-16 73 3 127 33 63 35 65 35 81 8 12 -19 10 -25 -20 -56 -46 -48 -185 -116
-220 -109 -35 7 -36 -8 -3 -30 21 -14 32 -15 71 -5 61 15 116 44 182 93 29 21
57 36 62 33 13 -8 -14 -78 -59 -155 -51 -84 -156 -207 -210 -245 -53 -36 -36
-46 22 -12 41 25 162 144 205 202 12 17 22 25 22 18 0 -6 -6 -18 -14 -26 -8
-7 -12 -24 -9 -39 6 -33 -48 -98 -83 -98 -29 0 -32 -16 -4 -25 56 -18 163 94
232 241 28 61 32 66 36 41 14 -103 -131 -352 -226 -388 -19 -7 -22 -13 -14
-21 19 -19 86 19 146 82 63 66 109 151 132 246 9 38 17 70 18 71 1 1 43 -9 95
-23 51 -13 122 -24 157 -24 l64 0 0 -304 c0 -209 -3 -307 -11 -312 -6 -3 -53
-70 -104 -149 -51 -78 -110 -161 -131 -184 l-37 -42 -56 54 c-31 30 -110 103
-176 162 -195 175 -244 197 -285 130 -12 -19 -57 -80 -101 -136 -43 -56 -79
-107 -79 -114 0 -25 33 -77 55 -87 13 -6 35 -8 49 -4 56 14 155 154 172 242 3
19 10 34 14 34 10 0 223 -183 312 -267 45 -43 74 -63 91 -63 53 0 124 87 247
303 40 71 76 124 79 120 13 -19 139 -91 192 -111 32 -12 96 -26 143 -33 174
-24 280 25 471 219 44 45 117 107 162 139 45 32 154 117 243 188 195 157 272
210 281 192 3 -6 9 -62 13 -124 8 -133 31 -319 45 -355 6 -15 22 -34 35 -44
31 -20 65 -13 119 22 36 23 40 24 56 10 25 -23 125 -31 196 -16 130 27 225 96
225 165 0 71 -91 90 -227 46 -67 -22 -108 -43 -257 -135 -70 -42 -82 -44 -90
-12 -7 28 -30 200 -46 341 -14 120 -29 155 -68 155 -49 0 -155 -73 -372 -255
-251 -210 -264 -220 -287 -217 -18 3 -23 12 -29 50 -18 129 -64 354 -84 405
-12 31 -37 80 -56 109 -19 28 -37 55 -40 59 -2 4 26 24 63 43 320 168 561 632
678 1301 18 106 30 153 42 160 9 6 36 28 60 50 31 28 52 39 68 37 13 -2 45 6
70 17 38 17 46 25 43 43 -4 30 -30 32 -96 9z m-1185 -734 c111 -66 169 -149
133 -192 -16 -19 -31 -19 -73 1 -31 15 -37 15 -68 0 -42 -20 -65 -56 -80 -126
l-11 -52 -19 41 c-30 67 -63 91 -125 91 -48 0 -55 -3 -68 -28 -18 -36 -45 -59
-77 -67 -34 -8 -79 35 -79 77 0 39 59 127 118 176 156 128 235 146 349 79z
m-477 -31 c0 -2 -19 -19 -42 -36 l-43 -32 39 36 c38 35 46 40 46 32z m754
-186 c-7 -7 -16 2 -28 27 l-17 38 27 -27 c19 -19 25 -31 18 -38z m-87 6 c-4
-9 -14 -16 -22 -16 -9 0 -14 3 -12 8 2 4 7 16 11 26 5 14 10 16 18 8 6 -6 8
-18 5 -26z m-142 -27 c4 -5 -1 -19 -10 -29 -27 -29 -24 -99 5 -122 12 -10 29
-18 37 -18 19 0 12 -47 -13 -85 -37 -57 -95 -3 -102 95 -2 32 -2 74 2 93 10
55 62 97 81 66z m115 -29 c8 0 22 7 32 16 16 16 18 15 24 -1 8 -20 -10 -35
-43 -35 -28 0 -31 -26 -4 -35 10 -3 30 -1 44 4 23 9 27 7 37 -22 21 -55 25
-253 6 -327 -50 -198 -181 -347 -354 -400 -126 -39 -226 -24 -337 51 -89 61
-148 125 -195 212 l-33 63 30 84 c17 47 45 129 62 182 17 53 40 118 52 144
l20 48 20 -33 c11 -18 33 -38 49 -45 17 -7 27 -15 23 -19 -15 -16 -47 -5 -74
24 l-29 31 0 -26 c0 -14 10 -36 22 -48 15 -15 17 -20 5 -15 -46 19 -50 17 -19
-12 36 -35 76 -40 121 -16 29 14 29 14 36 -22 21 -115 115 -185 183 -137 28
19 51 64 61 117 l7 42 21 -45 c24 -54 49 -78 89 -85 40 -8 74 13 101 60 37 66
39 136 8 255 -6 23 -5 24 8 8 8 -10 20 -18 27 -18z m-370 -19 c0 -6 -5 -13
-11 -17 -16 -9 -6 -87 15 -119 9 -14 25 -25 36 -25 24 0 25 -8 4 -60 -30 -76
-88 -62 -118 28 -26 74 -18 141 21 184 17 19 53 25 53 9z m-586 -83 c-23 -97
-120 -292 -184 -367 l-21 -24 -21 21 -21 21 29 37 c81 102 130 178 175 272 28
56 52 102 54 102 2 0 -3 -28 -11 -62z m141 -22 c-9 -31 -19 -56 -22 -56 -6 0
5 57 19 93 18 47 20 22 3 -37z m-264 -53 c-19 -39 -122 -186 -147 -213 -12
-13 -17 -12 -35 7 l-21 21 108 110 c60 61 110 111 112 111 1 1 -6 -16 -17 -36z
m275 -137 c-15 -47 -31 -86 -37 -86 -6 0 -9 6 -7 13 8 31 63 166 66 162 2 -2
-8 -42 -22 -89z m-212 -113 c-8 -33 -46 -110 -68 -138 -16 -19 -16 -19 -30 -1
-14 17 -10 25 42 92 31 41 58 74 60 74 1 0 -1 -12 -4 -27z m127 -100 c-10 -17
-10 -16 -11 3 0 23 13 41 18 25 2 -6 -1 -18 -7 -28z m-75 -20 c-18 -33 -21
-17 -5 24 6 15 13 23 16 16 2 -6 -3 -24 -11 -40z m252 -184 l67 -62 -47 7
c-26 4 -78 17 -115 30 l-68 23 -9 58 c-7 46 -5 64 8 93 l17 35 40 -61 c22 -34
70 -89 107 -123z m769 34 c51 -55 92 -161 138 -366 25 -109 49 -207 55 -217
15 -27 -6 -56 -94 -131 -92 -78 -137 -105 -213 -124 -105 -27 -267 6 -393 79
-25 14 -54 26 -64 26 -17 0 -18 6 -12 61 3 34 6 169 6 300 l0 239 26 -10 c46
-18 157 -23 219 -10 86 17 175 64 236 124 30 29 58 53 62 54 4 1 20 -10 34
-25z"/>
<path d="M4218 4922 c-16 -9 -28 -22 -28 -29 0 -17 11 -16 38 2 16 12 27 13
41 5 36 -19 46 -10 18 15 -33 29 -34 29 -69 7z"/>
<path d="M3965 4878 c-32 -18 -65 -50 -59 -59 3 -5 23 3 45 18 35 23 44 25 74
16 39 -12 45 -5 17 20 -21 19 -48 21 -77 5z"/>
<path d="M4309 4309 c-112 -69 -152 -74 -276 -38 -32 10 -46 10 -54 2 -18 -18
-3 -43 25 -43 33 0 37 -8 40 -97 4 -100 22 -138 75 -154 79 -24 154 44 166
149 9 81 22 107 66 136 28 19 39 33 39 51 0 13 -4 26 -8 29 -5 3 -37 -13 -73
-35z"/>
<path d="M6479 3793 c-81 -73 -136 -173 -96 -173 8 0 18 10 24 23 6 12 37 56
70 97 32 41 62 81 67 88 16 26 -14 10 -65 -35z"/>
<path d="M2440 3151 c0 -8 82 -22 207 -36 58 -6 75 6 41 29 -17 12 -49 16
-135 16 -62 0 -113 -4 -113 -9z"/>
<path d="M5920 3076 c0 -2 13 -33 30 -68 16 -34 30 -69 30 -75 0 -7 5 -13 11
-13 6 0 8 8 5 18 -2 9 -8 33 -11 52 -9 44 -35 90 -52 90 -7 0 -13 -2 -13 -4z"/>
<path d="M2576 2748 c-14 -13 -64 -75 -111 -138 -146 -197 -92 -174 71 30 79
97 97 130 75 130 -6 0 -21 -10 -35 -22z"/>
</g>
</svg>
